%TF.GenerationSoftware,KiCad,Pcbnew,7.0.11+dfsg-1build4*%
%TF.CreationDate,2026-09-21T08:58:11+00:00*%
%TF.ProjectId,Station-BedNode,53746174-696f-46e2-9d42-65644e6f6465,rev?*%
%TF.SameCoordinates,Original*%
%TF.FileFunction,Copper,L2,Bot*%
%TF.FilePolarity,Positive*%
%FSLAX46Y46*%
G04 Gerber Fmt 4.6, Leading zero omitted, Abs format (unit mm)*
G04 Created by KiCad (PCBNEW 7.0.11+dfsg-1build4) date 2026-09-21 08:58:11*
%MOMM*%
%LPD*%
G01*
G04 APERTURE LIST*
%TA.AperFunction,ComponentPad*%
%ADD10R,2.000000X2.000000*%
%TD*%
%TA.AperFunction,ComponentPad*%
%ADD11C,2.000000*%
%TD*%
%TA.AperFunction,ComponentPad*%
%ADD12R,1.700000X1.700000*%
%TD*%
%TA.AperFunction,ComponentPad*%
%ADD13O,1.700000X1.700000*%
%TD*%
%TA.AperFunction,ViaPad*%
%ADD14C,0.800000*%
%TD*%
%TA.AperFunction,Conductor*%
%ADD15C,0.400000*%
%TD*%
G04 APERTURE END LIST*
D10*
%TO.P,BZ1,1*%
%TO.N,BUZZER*%
X80000000Y-67600000D03*
D11*
%TO.P,BZ1,2*%
%TO.N,GND*%
X80000000Y-60000000D03*
%TD*%
D12*
%TO.P,J_TFT,1*%
%TO.N,GND*%
X80000000Y-25270000D03*
D13*
%TO.P,J_TFT,2*%
%TO.N,+3V3*%
X80000000Y-27810000D03*
%TO.P,J_TFT,3*%
%TO.N,TFT_SCLK*%
X80000000Y-30350000D03*
%TO.P,J_TFT,4*%
%TO.N,TFT_MOSI*%
X80000000Y-32890000D03*
%TO.P,J_TFT,5*%
%TO.N,TFT_RST*%
X80000000Y-35430000D03*
%TO.P,J_TFT,6*%
%TO.N,TFT_DC*%
X80000000Y-37970000D03*
%TO.P,J_TFT,7*%
%TO.N,TFT_CS*%
X80000000Y-40510000D03*
%TO.P,J_TFT,8*%
%TO.N,TFT_BLK*%
X80000000Y-43050000D03*
%TD*%
D11*
%TO.P,SW1,1*%
%TO.N,BTN*%
X74000000Y-74000000D03*
X80500000Y-74000000D03*
%TO.P,SW1,2*%
%TO.N,GND*%
X74000000Y-78500000D03*
X80500000Y-78500000D03*
%TD*%
D12*
%TO.P,J_SENS,1*%
%TO.N,+3V3*%
X80000000Y-48130000D03*
D13*
%TO.P,J_SENS,2*%
%TO.N,GND*%
X80000000Y-50670000D03*
%TO.P,J_SENS,3*%
%TO.N,N/C*%
X80000000Y-53210000D03*
%TO.P,J_SENS,4*%
%TO.N,DROP_AO*%
X80000000Y-55750000D03*
%TD*%
D12*
%TO.P,J_PWR,1*%
%TO.N,+5V*%
X18000000Y-57000000D03*
D13*
%TO.P,J_PWR,2*%
%TO.N,GND*%
X18000000Y-59540000D03*
%TD*%
D12*
%TO.P,J_MCU_B,1*%
%TO.N,TFT_BLK*%
X39240000Y-24000000D03*
D13*
%TO.P,J_MCU_B,2*%
%TO.N,N/C*%
X39240000Y-26540000D03*
%TO.P,J_MCU_B,3*%
X39240000Y-29080000D03*
%TO.P,J_MCU_B,4*%
X39240000Y-31620000D03*
%TO.P,J_MCU_B,5*%
%TO.N,DROP_AO*%
X39240000Y-34160000D03*
%TO.P,J_MCU_B,6*%
%TO.N,BUZZER*%
X39240000Y-36700000D03*
%TO.P,J_MCU_B,7*%
%TO.N,BTN*%
X39240000Y-39240000D03*
%TO.P,J_MCU_B,8*%
%TO.N,N/C*%
X39240000Y-41780000D03*
%TD*%
D12*
%TO.P,J_MCU_A,1*%
%TO.N,+5V*%
X24000000Y-24000000D03*
D13*
%TO.P,J_MCU_A,2*%
%TO.N,GND*%
X24000000Y-26540000D03*
%TO.P,J_MCU_A,3*%
%TO.N,+3V3*%
X24000000Y-29080000D03*
%TO.P,J_MCU_A,4*%
%TO.N,TFT_SCLK*%
X24000000Y-31620000D03*
%TO.P,J_MCU_A,5*%
%TO.N,TFT_MOSI*%
X24000000Y-34160000D03*
%TO.P,J_MCU_A,6*%
%TO.N,TFT_RST*%
X24000000Y-36700000D03*
%TO.P,J_MCU_A,7*%
%TO.N,TFT_DC*%
X24000000Y-39240000D03*
%TO.P,J_MCU_A,8*%
%TO.N,TFT_CS*%
X24000000Y-41780000D03*
%TD*%
D14*
%TO.N,TFT_SCLK*%
X5000000Y-8000000D03*
X44000000Y-8000000D03*
X5000000Y-31620000D03*
X44000000Y-30350000D03*
%TO.N,TFT_MOSI*%
X6000000Y-9000000D03*
X6000000Y-34160000D03*
X45600000Y-9000000D03*
X45600000Y-32890000D03*
%TO.N,TFT_RST*%
X47200000Y-35430000D03*
X47200000Y-10000000D03*
X7000000Y-36700000D03*
X7000000Y-10000000D03*
%TO.N,TFT_DC*%
X8000000Y-39240000D03*
X8000000Y-11000000D03*
X48800000Y-11000000D03*
X48800000Y-37970000D03*
%TO.N,TFT_CS*%
X50400000Y-40510000D03*
X9000000Y-12000000D03*
X9000000Y-41780000D03*
X50400000Y-12000000D03*
%TO.N,TFT_BLK*%
X52000000Y-43050000D03*
X52000000Y-24000000D03*
%TO.N,DROP_AO*%
X53600000Y-55750000D03*
X53600000Y-34160000D03*
%TO.N,BUZZER*%
X55200000Y-67600000D03*
X55200000Y-36700000D03*
%TO.N,BTN*%
X56800000Y-39240000D03*
X56800000Y-74000000D03*
%TO.N,+3V3*%
X60000000Y-48130000D03*
X10000000Y-13000000D03*
X58400000Y-13000000D03*
X10000000Y-29080000D03*
X58400000Y-27810000D03*
X60000000Y-27810000D03*
%TO.N,+5V*%
X11000000Y-24000000D03*
X11000000Y-57000000D03*
%TO.N,GND*%
X64800000Y-50670000D03*
X13000000Y-26540000D03*
X12000000Y-59540000D03*
X13000000Y-14000000D03*
X12000000Y-26540000D03*
X61600000Y-14000000D03*
X64800000Y-60000000D03*
X61600000Y-25270000D03*
X63200000Y-50670000D03*
X66400000Y-60000000D03*
X63200000Y-25270000D03*
X66400000Y-78500000D03*
%TD*%
D15*
%TO.N,TFT_SCLK*%
X24000000Y-31620000D02*
X5000000Y-31620000D01*
X5000000Y-8000000D02*
X44000000Y-8000000D01*
X44000000Y-30350000D02*
X80000000Y-30350000D01*
%TO.N,TFT_MOSI*%
X24000000Y-34160000D02*
X6000000Y-34160000D01*
X45600000Y-32890000D02*
X80000000Y-32890000D01*
X6000000Y-9000000D02*
X45600000Y-9000000D01*
%TO.N,TFT_RST*%
X47200000Y-35430000D02*
X80000000Y-35430000D01*
X24000000Y-36700000D02*
X7000000Y-36700000D01*
X7000000Y-10000000D02*
X47200000Y-10000000D01*
%TO.N,TFT_DC*%
X8000000Y-11000000D02*
X48800000Y-11000000D01*
X48800000Y-37970000D02*
X80000000Y-37970000D01*
X24000000Y-39240000D02*
X8000000Y-39240000D01*
%TO.N,TFT_CS*%
X50400000Y-40510000D02*
X80000000Y-40510000D01*
X9000000Y-12000000D02*
X50400000Y-12000000D01*
X24000000Y-41780000D02*
X9000000Y-41780000D01*
%TO.N,TFT_BLK*%
X52000000Y-43050000D02*
X80000000Y-43050000D01*
X39240000Y-24000000D02*
X52000000Y-24000000D01*
%TO.N,DROP_AO*%
X53600000Y-55750000D02*
X80000000Y-55750000D01*
X39240000Y-34160000D02*
X53600000Y-34160000D01*
%TO.N,BUZZER*%
X39240000Y-36700000D02*
X55200000Y-36700000D01*
X55200000Y-67600000D02*
X80000000Y-67600000D01*
%TO.N,BTN*%
X56800000Y-74000000D02*
X80500000Y-74000000D01*
X39240000Y-39240000D02*
X56800000Y-39240000D01*
%TO.N,+3V3*%
X80000000Y-27810000D02*
X60000000Y-27810000D01*
X24000000Y-29080000D02*
X10000000Y-29080000D01*
X10000000Y-13000000D02*
X58400000Y-13000000D01*
X60000000Y-48130000D02*
X80000000Y-48130000D01*
X58400000Y-27810000D02*
X80000000Y-27810000D01*
%TO.N,+5V*%
X11000000Y-24000000D02*
X24000000Y-24000000D01*
X18000000Y-57000000D02*
X11000000Y-57000000D01*
%TO.N,GND*%
X66400000Y-78500000D02*
X80500000Y-78500000D01*
X13000000Y-14000000D02*
X61600000Y-14000000D01*
X18000000Y-59540000D02*
X12000000Y-59540000D01*
X64800000Y-60000000D02*
X80000000Y-60000000D01*
X12000000Y-26540000D02*
X24000000Y-26540000D01*
X63200000Y-50670000D02*
X80000000Y-50670000D01*
X80000000Y-50670000D02*
X64800000Y-50670000D01*
X80000000Y-25270000D02*
X63200000Y-25270000D01*
X24000000Y-26540000D02*
X13000000Y-26540000D01*
X80000000Y-60000000D02*
X66400000Y-60000000D01*
X61600000Y-25270000D02*
X80000000Y-25270000D01*
%TD*%
M02*
