M48
; DRILL file {KiCad 7.0.11+dfsg-1build4} date Mon Sep 21 08:58:11 2026
; FORMAT={-:-/ absolute / metric / decimal}
; #@! TF.CreationDate,2026-09-21T08:58:11+00:00
; #@! TF.GenerationSoftware,Kicad,Pcbnew,7.0.11+dfsg-1build4
; #@! TF.FileFunction,MixedPlating,1,2
FMAT,2
METRIC
; #@! TA.AperFunction,Plated,PTH,ViaDrill
T1C0.400
; #@! TA.AperFunction,Plated,PTH,ComponentDrill
T2C1.000
; #@! TA.AperFunction,Plated,PTH,ComponentDrill
T3C1.100
; #@! TA.AperFunction,NonPlated,NPTH,ComponentDrill
T4C3.200
%
G90
G05
T1
X5.0Y-8.0
X5.0Y-31.62
X6.0Y-9.0
X6.0Y-34.16
X7.0Y-10.0
X7.0Y-36.7
X8.0Y-11.0
X8.0Y-39.24
X9.0Y-12.0
X9.0Y-41.78
X10.0Y-13.0
X10.0Y-29.08
X11.0Y-24.0
X11.0Y-57.0
X12.0Y-26.54
X12.0Y-59.54
X13.0Y-14.0
X13.0Y-26.54
X44.0Y-8.0
X44.0Y-30.35
X45.6Y-9.0
X45.6Y-32.89
X47.2Y-10.0
X47.2Y-35.43
X48.8Y-11.0
X48.8Y-37.97
X50.4Y-12.0
X50.4Y-40.51
X52.0Y-24.0
X52.0Y-43.05
X53.6Y-34.16
X53.6Y-55.75
X55.2Y-36.7
X55.2Y-67.6
X56.8Y-39.24
X56.8Y-74.0
X58.4Y-13.0
X58.4Y-27.81
X60.0Y-27.81
X60.0Y-48.13
X61.6Y-14.0
X61.6Y-25.27
X63.2Y-25.27
X63.2Y-50.67
X64.8Y-50.67
X64.8Y-60.0
X66.4Y-60.0
X66.4Y-78.5
T2
X18.0Y-57.0
X18.0Y-59.54
X24.0Y-24.0
X24.0Y-26.54
X24.0Y-29.08
X24.0Y-31.62
X24.0Y-34.16
X24.0Y-36.7
X24.0Y-39.24
X24.0Y-41.78
X39.24Y-24.0
X39.24Y-26.54
X39.24Y-29.08
X39.24Y-31.62
X39.24Y-34.16
X39.24Y-36.7
X39.24Y-39.24
X39.24Y-41.78
X80.0Y-25.27
X80.0Y-27.81
X80.0Y-30.35
X80.0Y-32.89
X80.0Y-35.43
X80.0Y-37.97
X80.0Y-40.51
X80.0Y-43.05
X80.0Y-48.13
X80.0Y-50.67
X80.0Y-53.21
X80.0Y-55.75
X80.0Y-60.0
X80.0Y-67.6
T3
X74.0Y-74.0
X74.0Y-78.5
X80.5Y-74.0
X80.5Y-78.5
T4
X4.0Y-4.0
X4.0Y-82.0
X96.0Y-4.0
X96.0Y-82.0
M30
