%TF.GenerationSoftware,KiCad,Pcbnew,7.0.11+dfsg-1build4*%
%TF.CreationDate,2026-09-21T08:58:11+00:00*%
%TF.ProjectId,Station-BedNode,53746174-696f-46e2-9d42-65644e6f6465,rev?*%
%TF.SameCoordinates,Original*%
%TF.FileFunction,Legend,Top*%
%TF.FilePolarity,Positive*%
%FSLAX46Y46*%
G04 Gerber Fmt 4.6, Leading zero omitted, Abs format (unit mm)*
G04 Created by KiCad (PCBNEW 7.0.11+dfsg-1build4) date 2026-09-21 08:58:11*
%MOMM*%
%LPD*%
G01*
G04 APERTURE LIST*
%ADD10C,0.165000*%
%ADD11C,0.150000*%
%ADD12C,0.240000*%
%ADD13C,0.195000*%
%ADD14C,0.120000*%
G04 APERTURE END LIST*
D10*
X78213313Y-43530300D02*
X78841885Y-43530300D01*
X78527599Y-44630300D02*
X78527599Y-43530300D01*
X79837123Y-44525539D02*
X79784742Y-44577920D01*
X79784742Y-44577920D02*
X79627599Y-44630300D01*
X79627599Y-44630300D02*
X79522837Y-44630300D01*
X79522837Y-44630300D02*
X79365694Y-44577920D01*
X79365694Y-44577920D02*
X79260932Y-44473158D01*
X79260932Y-44473158D02*
X79208551Y-44368396D01*
X79208551Y-44368396D02*
X79156170Y-44158872D01*
X79156170Y-44158872D02*
X79156170Y-44001729D01*
X79156170Y-44001729D02*
X79208551Y-43792205D01*
X79208551Y-43792205D02*
X79260932Y-43687443D01*
X79260932Y-43687443D02*
X79365694Y-43582681D01*
X79365694Y-43582681D02*
X79522837Y-43530300D01*
X79522837Y-43530300D02*
X79627599Y-43530300D01*
X79627599Y-43530300D02*
X79784742Y-43582681D01*
X79784742Y-43582681D02*
X79837123Y-43635062D01*
X80937123Y-44630300D02*
X80570456Y-44106491D01*
X80308551Y-44630300D02*
X80308551Y-43530300D01*
X80308551Y-43530300D02*
X80727599Y-43530300D01*
X80727599Y-43530300D02*
X80832361Y-43582681D01*
X80832361Y-43582681D02*
X80884742Y-43635062D01*
X80884742Y-43635062D02*
X80937123Y-43739824D01*
X80937123Y-43739824D02*
X80937123Y-43896967D01*
X80937123Y-43896967D02*
X80884742Y-44001729D01*
X80884742Y-44001729D02*
X80832361Y-44054110D01*
X80832361Y-44054110D02*
X80727599Y-44106491D01*
X80727599Y-44106491D02*
X80308551Y-44106491D01*
X81251408Y-43530300D02*
X81879980Y-43530300D01*
X81565694Y-44630300D02*
X81565694Y-43530300D01*
X82770456Y-43530300D02*
X82246646Y-43530300D01*
X82246646Y-43530300D02*
X82194265Y-44054110D01*
X82194265Y-44054110D02*
X82246646Y-44001729D01*
X82246646Y-44001729D02*
X82351408Y-43949348D01*
X82351408Y-43949348D02*
X82613313Y-43949348D01*
X82613313Y-43949348D02*
X82718075Y-44001729D01*
X82718075Y-44001729D02*
X82770456Y-44054110D01*
X82770456Y-44054110D02*
X82822837Y-44158872D01*
X82822837Y-44158872D02*
X82822837Y-44420777D01*
X82822837Y-44420777D02*
X82770456Y-44525539D01*
X82770456Y-44525539D02*
X82718075Y-44577920D01*
X82718075Y-44577920D02*
X82613313Y-44630300D01*
X82613313Y-44630300D02*
X82351408Y-44630300D01*
X82351408Y-44630300D02*
X82246646Y-44577920D01*
X82246646Y-44577920D02*
X82194265Y-44525539D01*
X83503789Y-43530300D02*
X83608551Y-43530300D01*
X83608551Y-43530300D02*
X83713313Y-43582681D01*
X83713313Y-43582681D02*
X83765694Y-43635062D01*
X83765694Y-43635062D02*
X83818075Y-43739824D01*
X83818075Y-43739824D02*
X83870456Y-43949348D01*
X83870456Y-43949348D02*
X83870456Y-44211253D01*
X83870456Y-44211253D02*
X83818075Y-44420777D01*
X83818075Y-44420777D02*
X83765694Y-44525539D01*
X83765694Y-44525539D02*
X83713313Y-44577920D01*
X83713313Y-44577920D02*
X83608551Y-44630300D01*
X83608551Y-44630300D02*
X83503789Y-44630300D01*
X83503789Y-44630300D02*
X83399027Y-44577920D01*
X83399027Y-44577920D02*
X83346646Y-44525539D01*
X83346646Y-44525539D02*
X83294265Y-44420777D01*
X83294265Y-44420777D02*
X83241884Y-44211253D01*
X83241884Y-44211253D02*
X83241884Y-43949348D01*
X83241884Y-43949348D02*
X83294265Y-43739824D01*
X83294265Y-43739824D02*
X83346646Y-43635062D01*
X83346646Y-43635062D02*
X83399027Y-43582681D01*
X83399027Y-43582681D02*
X83503789Y-43530300D01*
X84551408Y-43530300D02*
X84656170Y-43530300D01*
X84656170Y-43530300D02*
X84760932Y-43582681D01*
X84760932Y-43582681D02*
X84813313Y-43635062D01*
X84813313Y-43635062D02*
X84865694Y-43739824D01*
X84865694Y-43739824D02*
X84918075Y-43949348D01*
X84918075Y-43949348D02*
X84918075Y-44211253D01*
X84918075Y-44211253D02*
X84865694Y-44420777D01*
X84865694Y-44420777D02*
X84813313Y-44525539D01*
X84813313Y-44525539D02*
X84760932Y-44577920D01*
X84760932Y-44577920D02*
X84656170Y-44630300D01*
X84656170Y-44630300D02*
X84551408Y-44630300D01*
X84551408Y-44630300D02*
X84446646Y-44577920D01*
X84446646Y-44577920D02*
X84394265Y-44525539D01*
X84394265Y-44525539D02*
X84341884Y-44420777D01*
X84341884Y-44420777D02*
X84289503Y-44211253D01*
X84289503Y-44211253D02*
X84289503Y-43949348D01*
X84289503Y-43949348D02*
X84341884Y-43739824D01*
X84341884Y-43739824D02*
X84394265Y-43635062D01*
X84394265Y-43635062D02*
X84446646Y-43582681D01*
X84446646Y-43582681D02*
X84551408Y-43530300D01*
X85599027Y-43530300D02*
X85703789Y-43530300D01*
X85703789Y-43530300D02*
X85808551Y-43582681D01*
X85808551Y-43582681D02*
X85860932Y-43635062D01*
X85860932Y-43635062D02*
X85913313Y-43739824D01*
X85913313Y-43739824D02*
X85965694Y-43949348D01*
X85965694Y-43949348D02*
X85965694Y-44211253D01*
X85965694Y-44211253D02*
X85913313Y-44420777D01*
X85913313Y-44420777D02*
X85860932Y-44525539D01*
X85860932Y-44525539D02*
X85808551Y-44577920D01*
X85808551Y-44577920D02*
X85703789Y-44630300D01*
X85703789Y-44630300D02*
X85599027Y-44630300D01*
X85599027Y-44630300D02*
X85494265Y-44577920D01*
X85494265Y-44577920D02*
X85441884Y-44525539D01*
X85441884Y-44525539D02*
X85389503Y-44420777D01*
X85389503Y-44420777D02*
X85337122Y-44211253D01*
X85337122Y-44211253D02*
X85337122Y-43949348D01*
X85337122Y-43949348D02*
X85389503Y-43739824D01*
X85389503Y-43739824D02*
X85441884Y-43635062D01*
X85441884Y-43635062D02*
X85494265Y-43582681D01*
X85494265Y-43582681D02*
X85599027Y-43530300D01*
D11*
X43100588Y-28582438D02*
X43005350Y-28534819D01*
X43005350Y-28534819D02*
X42862493Y-28534819D01*
X42862493Y-28534819D02*
X42719636Y-28582438D01*
X42719636Y-28582438D02*
X42624398Y-28677676D01*
X42624398Y-28677676D02*
X42576779Y-28772914D01*
X42576779Y-28772914D02*
X42529160Y-28963390D01*
X42529160Y-28963390D02*
X42529160Y-29106247D01*
X42529160Y-29106247D02*
X42576779Y-29296723D01*
X42576779Y-29296723D02*
X42624398Y-29391961D01*
X42624398Y-29391961D02*
X42719636Y-29487200D01*
X42719636Y-29487200D02*
X42862493Y-29534819D01*
X42862493Y-29534819D02*
X42957731Y-29534819D01*
X42957731Y-29534819D02*
X43100588Y-29487200D01*
X43100588Y-29487200D02*
X43148207Y-29439580D01*
X43148207Y-29439580D02*
X43148207Y-29106247D01*
X43148207Y-29106247D02*
X42957731Y-29106247D01*
X43576779Y-29534819D02*
X43576779Y-28534819D01*
X43576779Y-28534819D02*
X43957731Y-28534819D01*
X43957731Y-28534819D02*
X44052969Y-28582438D01*
X44052969Y-28582438D02*
X44100588Y-28630057D01*
X44100588Y-28630057D02*
X44148207Y-28725295D01*
X44148207Y-28725295D02*
X44148207Y-28868152D01*
X44148207Y-28868152D02*
X44100588Y-28963390D01*
X44100588Y-28963390D02*
X44052969Y-29011009D01*
X44052969Y-29011009D02*
X43957731Y-29058628D01*
X43957731Y-29058628D02*
X43576779Y-29058628D01*
X44576779Y-29534819D02*
X44576779Y-28534819D01*
X45243445Y-28534819D02*
X45433921Y-28534819D01*
X45433921Y-28534819D02*
X45529159Y-28582438D01*
X45529159Y-28582438D02*
X45624397Y-28677676D01*
X45624397Y-28677676D02*
X45672016Y-28868152D01*
X45672016Y-28868152D02*
X45672016Y-29201485D01*
X45672016Y-29201485D02*
X45624397Y-29391961D01*
X45624397Y-29391961D02*
X45529159Y-29487200D01*
X45529159Y-29487200D02*
X45433921Y-29534819D01*
X45433921Y-29534819D02*
X45243445Y-29534819D01*
X45243445Y-29534819D02*
X45148207Y-29487200D01*
X45148207Y-29487200D02*
X45052969Y-29391961D01*
X45052969Y-29391961D02*
X45005350Y-29201485D01*
X45005350Y-29201485D02*
X45005350Y-28868152D01*
X45005350Y-28868152D02*
X45052969Y-28677676D01*
X45052969Y-28677676D02*
X45148207Y-28582438D01*
X45148207Y-28582438D02*
X45243445Y-28534819D01*
X46529159Y-28534819D02*
X46338683Y-28534819D01*
X46338683Y-28534819D02*
X46243445Y-28582438D01*
X46243445Y-28582438D02*
X46195826Y-28630057D01*
X46195826Y-28630057D02*
X46100588Y-28772914D01*
X46100588Y-28772914D02*
X46052969Y-28963390D01*
X46052969Y-28963390D02*
X46052969Y-29344342D01*
X46052969Y-29344342D02*
X46100588Y-29439580D01*
X46100588Y-29439580D02*
X46148207Y-29487200D01*
X46148207Y-29487200D02*
X46243445Y-29534819D01*
X46243445Y-29534819D02*
X46433921Y-29534819D01*
X46433921Y-29534819D02*
X46529159Y-29487200D01*
X46529159Y-29487200D02*
X46576778Y-29439580D01*
X46576778Y-29439580D02*
X46624397Y-29344342D01*
X46624397Y-29344342D02*
X46624397Y-29106247D01*
X46624397Y-29106247D02*
X46576778Y-29011009D01*
X46576778Y-29011009D02*
X46529159Y-28963390D01*
X46529159Y-28963390D02*
X46433921Y-28915771D01*
X46433921Y-28915771D02*
X46243445Y-28915771D01*
X46243445Y-28915771D02*
X46148207Y-28963390D01*
X46148207Y-28963390D02*
X46100588Y-29011009D01*
X46100588Y-29011009D02*
X46052969Y-29106247D01*
X43100588Y-38742438D02*
X43005350Y-38694819D01*
X43005350Y-38694819D02*
X42862493Y-38694819D01*
X42862493Y-38694819D02*
X42719636Y-38742438D01*
X42719636Y-38742438D02*
X42624398Y-38837676D01*
X42624398Y-38837676D02*
X42576779Y-38932914D01*
X42576779Y-38932914D02*
X42529160Y-39123390D01*
X42529160Y-39123390D02*
X42529160Y-39266247D01*
X42529160Y-39266247D02*
X42576779Y-39456723D01*
X42576779Y-39456723D02*
X42624398Y-39551961D01*
X42624398Y-39551961D02*
X42719636Y-39647200D01*
X42719636Y-39647200D02*
X42862493Y-39694819D01*
X42862493Y-39694819D02*
X42957731Y-39694819D01*
X42957731Y-39694819D02*
X43100588Y-39647200D01*
X43100588Y-39647200D02*
X43148207Y-39599580D01*
X43148207Y-39599580D02*
X43148207Y-39266247D01*
X43148207Y-39266247D02*
X42957731Y-39266247D01*
X43576779Y-39694819D02*
X43576779Y-38694819D01*
X43576779Y-38694819D02*
X43957731Y-38694819D01*
X43957731Y-38694819D02*
X44052969Y-38742438D01*
X44052969Y-38742438D02*
X44100588Y-38790057D01*
X44100588Y-38790057D02*
X44148207Y-38885295D01*
X44148207Y-38885295D02*
X44148207Y-39028152D01*
X44148207Y-39028152D02*
X44100588Y-39123390D01*
X44100588Y-39123390D02*
X44052969Y-39171009D01*
X44052969Y-39171009D02*
X43957731Y-39218628D01*
X43957731Y-39218628D02*
X43576779Y-39218628D01*
X44576779Y-39694819D02*
X44576779Y-38694819D01*
X45243445Y-38694819D02*
X45433921Y-38694819D01*
X45433921Y-38694819D02*
X45529159Y-38742438D01*
X45529159Y-38742438D02*
X45624397Y-38837676D01*
X45624397Y-38837676D02*
X45672016Y-39028152D01*
X45672016Y-39028152D02*
X45672016Y-39361485D01*
X45672016Y-39361485D02*
X45624397Y-39551961D01*
X45624397Y-39551961D02*
X45529159Y-39647200D01*
X45529159Y-39647200D02*
X45433921Y-39694819D01*
X45433921Y-39694819D02*
X45243445Y-39694819D01*
X45243445Y-39694819D02*
X45148207Y-39647200D01*
X45148207Y-39647200D02*
X45052969Y-39551961D01*
X45052969Y-39551961D02*
X45005350Y-39361485D01*
X45005350Y-39361485D02*
X45005350Y-39028152D01*
X45005350Y-39028152D02*
X45052969Y-38837676D01*
X45052969Y-38837676D02*
X45148207Y-38742438D01*
X45148207Y-38742438D02*
X45243445Y-38694819D01*
X46052969Y-38790057D02*
X46100588Y-38742438D01*
X46100588Y-38742438D02*
X46195826Y-38694819D01*
X46195826Y-38694819D02*
X46433921Y-38694819D01*
X46433921Y-38694819D02*
X46529159Y-38742438D01*
X46529159Y-38742438D02*
X46576778Y-38790057D01*
X46576778Y-38790057D02*
X46624397Y-38885295D01*
X46624397Y-38885295D02*
X46624397Y-38980533D01*
X46624397Y-38980533D02*
X46576778Y-39123390D01*
X46576778Y-39123390D02*
X46005350Y-39694819D01*
X46005350Y-39694819D02*
X46624397Y-39694819D01*
X43100588Y-31122438D02*
X43005350Y-31074819D01*
X43005350Y-31074819D02*
X42862493Y-31074819D01*
X42862493Y-31074819D02*
X42719636Y-31122438D01*
X42719636Y-31122438D02*
X42624398Y-31217676D01*
X42624398Y-31217676D02*
X42576779Y-31312914D01*
X42576779Y-31312914D02*
X42529160Y-31503390D01*
X42529160Y-31503390D02*
X42529160Y-31646247D01*
X42529160Y-31646247D02*
X42576779Y-31836723D01*
X42576779Y-31836723D02*
X42624398Y-31931961D01*
X42624398Y-31931961D02*
X42719636Y-32027200D01*
X42719636Y-32027200D02*
X42862493Y-32074819D01*
X42862493Y-32074819D02*
X42957731Y-32074819D01*
X42957731Y-32074819D02*
X43100588Y-32027200D01*
X43100588Y-32027200D02*
X43148207Y-31979580D01*
X43148207Y-31979580D02*
X43148207Y-31646247D01*
X43148207Y-31646247D02*
X42957731Y-31646247D01*
X43576779Y-32074819D02*
X43576779Y-31074819D01*
X43576779Y-31074819D02*
X43957731Y-31074819D01*
X43957731Y-31074819D02*
X44052969Y-31122438D01*
X44052969Y-31122438D02*
X44100588Y-31170057D01*
X44100588Y-31170057D02*
X44148207Y-31265295D01*
X44148207Y-31265295D02*
X44148207Y-31408152D01*
X44148207Y-31408152D02*
X44100588Y-31503390D01*
X44100588Y-31503390D02*
X44052969Y-31551009D01*
X44052969Y-31551009D02*
X43957731Y-31598628D01*
X43957731Y-31598628D02*
X43576779Y-31598628D01*
X44576779Y-32074819D02*
X44576779Y-31074819D01*
X45243445Y-31074819D02*
X45433921Y-31074819D01*
X45433921Y-31074819D02*
X45529159Y-31122438D01*
X45529159Y-31122438D02*
X45624397Y-31217676D01*
X45624397Y-31217676D02*
X45672016Y-31408152D01*
X45672016Y-31408152D02*
X45672016Y-31741485D01*
X45672016Y-31741485D02*
X45624397Y-31931961D01*
X45624397Y-31931961D02*
X45529159Y-32027200D01*
X45529159Y-32027200D02*
X45433921Y-32074819D01*
X45433921Y-32074819D02*
X45243445Y-32074819D01*
X45243445Y-32074819D02*
X45148207Y-32027200D01*
X45148207Y-32027200D02*
X45052969Y-31931961D01*
X45052969Y-31931961D02*
X45005350Y-31741485D01*
X45005350Y-31741485D02*
X45005350Y-31408152D01*
X45005350Y-31408152D02*
X45052969Y-31217676D01*
X45052969Y-31217676D02*
X45148207Y-31122438D01*
X45148207Y-31122438D02*
X45243445Y-31074819D01*
X46576778Y-31074819D02*
X46100588Y-31074819D01*
X46100588Y-31074819D02*
X46052969Y-31551009D01*
X46052969Y-31551009D02*
X46100588Y-31503390D01*
X46100588Y-31503390D02*
X46195826Y-31455771D01*
X46195826Y-31455771D02*
X46433921Y-31455771D01*
X46433921Y-31455771D02*
X46529159Y-31503390D01*
X46529159Y-31503390D02*
X46576778Y-31551009D01*
X46576778Y-31551009D02*
X46624397Y-31646247D01*
X46624397Y-31646247D02*
X46624397Y-31884342D01*
X46624397Y-31884342D02*
X46576778Y-31979580D01*
X46576778Y-31979580D02*
X46529159Y-32027200D01*
X46529159Y-32027200D02*
X46433921Y-32074819D01*
X46433921Y-32074819D02*
X46195826Y-32074819D01*
X46195826Y-32074819D02*
X46100588Y-32027200D01*
X46100588Y-32027200D02*
X46052969Y-31979580D01*
D10*
X58370456Y-71400300D02*
X58370456Y-72290777D01*
X58370456Y-72290777D02*
X58422837Y-72395539D01*
X58422837Y-72395539D02*
X58475218Y-72447920D01*
X58475218Y-72447920D02*
X58579980Y-72500300D01*
X58579980Y-72500300D02*
X58789504Y-72500300D01*
X58789504Y-72500300D02*
X58894266Y-72447920D01*
X58894266Y-72447920D02*
X58946647Y-72395539D01*
X58946647Y-72395539D02*
X58999028Y-72290777D01*
X58999028Y-72290777D02*
X58999028Y-71400300D01*
X59470456Y-72447920D02*
X59575218Y-72500300D01*
X59575218Y-72500300D02*
X59784742Y-72500300D01*
X59784742Y-72500300D02*
X59889504Y-72447920D01*
X59889504Y-72447920D02*
X59941885Y-72343158D01*
X59941885Y-72343158D02*
X59941885Y-72290777D01*
X59941885Y-72290777D02*
X59889504Y-72186015D01*
X59889504Y-72186015D02*
X59784742Y-72133634D01*
X59784742Y-72133634D02*
X59627599Y-72133634D01*
X59627599Y-72133634D02*
X59522837Y-72081253D01*
X59522837Y-72081253D02*
X59470456Y-71976491D01*
X59470456Y-71976491D02*
X59470456Y-71924110D01*
X59470456Y-71924110D02*
X59522837Y-71819348D01*
X59522837Y-71819348D02*
X59627599Y-71766967D01*
X59627599Y-71766967D02*
X59784742Y-71766967D01*
X59784742Y-71766967D02*
X59889504Y-71819348D01*
X60832361Y-72447920D02*
X60727599Y-72500300D01*
X60727599Y-72500300D02*
X60518075Y-72500300D01*
X60518075Y-72500300D02*
X60413313Y-72447920D01*
X60413313Y-72447920D02*
X60360932Y-72343158D01*
X60360932Y-72343158D02*
X60360932Y-71924110D01*
X60360932Y-71924110D02*
X60413313Y-71819348D01*
X60413313Y-71819348D02*
X60518075Y-71766967D01*
X60518075Y-71766967D02*
X60727599Y-71766967D01*
X60727599Y-71766967D02*
X60832361Y-71819348D01*
X60832361Y-71819348D02*
X60884742Y-71924110D01*
X60884742Y-71924110D02*
X60884742Y-72028872D01*
X60884742Y-72028872D02*
X60360932Y-72133634D01*
X61356170Y-72500300D02*
X61356170Y-71766967D01*
X61356170Y-71976491D02*
X61408551Y-71871729D01*
X61408551Y-71871729D02*
X61460932Y-71819348D01*
X61460932Y-71819348D02*
X61565694Y-71766967D01*
X61565694Y-71766967D02*
X61670456Y-71766967D01*
X62875217Y-72500300D02*
X62875217Y-71400300D01*
X62875217Y-71819348D02*
X62979979Y-71766967D01*
X62979979Y-71766967D02*
X63189503Y-71766967D01*
X63189503Y-71766967D02*
X63294265Y-71819348D01*
X63294265Y-71819348D02*
X63346646Y-71871729D01*
X63346646Y-71871729D02*
X63399027Y-71976491D01*
X63399027Y-71976491D02*
X63399027Y-72290777D01*
X63399027Y-72290777D02*
X63346646Y-72395539D01*
X63346646Y-72395539D02*
X63294265Y-72447920D01*
X63294265Y-72447920D02*
X63189503Y-72500300D01*
X63189503Y-72500300D02*
X62979979Y-72500300D01*
X62979979Y-72500300D02*
X62875217Y-72447920D01*
X64341884Y-71766967D02*
X64341884Y-72500300D01*
X63870455Y-71766967D02*
X63870455Y-72343158D01*
X63870455Y-72343158D02*
X63922836Y-72447920D01*
X63922836Y-72447920D02*
X64027598Y-72500300D01*
X64027598Y-72500300D02*
X64184741Y-72500300D01*
X64184741Y-72500300D02*
X64289503Y-72447920D01*
X64289503Y-72447920D02*
X64341884Y-72395539D01*
X64708550Y-71766967D02*
X65127598Y-71766967D01*
X64865693Y-71400300D02*
X64865693Y-72343158D01*
X64865693Y-72343158D02*
X64918074Y-72447920D01*
X64918074Y-72447920D02*
X65022836Y-72500300D01*
X65022836Y-72500300D02*
X65127598Y-72500300D01*
X65337121Y-71766967D02*
X65756169Y-71766967D01*
X65494264Y-71400300D02*
X65494264Y-72343158D01*
X65494264Y-72343158D02*
X65546645Y-72447920D01*
X65546645Y-72447920D02*
X65651407Y-72500300D01*
X65651407Y-72500300D02*
X65756169Y-72500300D01*
X66279978Y-72500300D02*
X66175216Y-72447920D01*
X66175216Y-72447920D02*
X66122835Y-72395539D01*
X66122835Y-72395539D02*
X66070454Y-72290777D01*
X66070454Y-72290777D02*
X66070454Y-71976491D01*
X66070454Y-71976491D02*
X66122835Y-71871729D01*
X66122835Y-71871729D02*
X66175216Y-71819348D01*
X66175216Y-71819348D02*
X66279978Y-71766967D01*
X66279978Y-71766967D02*
X66437121Y-71766967D01*
X66437121Y-71766967D02*
X66541883Y-71819348D01*
X66541883Y-71819348D02*
X66594264Y-71871729D01*
X66594264Y-71871729D02*
X66646645Y-71976491D01*
X66646645Y-71976491D02*
X66646645Y-72290777D01*
X66646645Y-72290777D02*
X66594264Y-72395539D01*
X66594264Y-72395539D02*
X66541883Y-72447920D01*
X66541883Y-72447920D02*
X66437121Y-72500300D01*
X66437121Y-72500300D02*
X66279978Y-72500300D01*
X67118073Y-71766967D02*
X67118073Y-72500300D01*
X67118073Y-71871729D02*
X67170454Y-71819348D01*
X67170454Y-71819348D02*
X67275216Y-71766967D01*
X67275216Y-71766967D02*
X67432359Y-71766967D01*
X67432359Y-71766967D02*
X67537121Y-71819348D01*
X67537121Y-71819348D02*
X67589502Y-71924110D01*
X67589502Y-71924110D02*
X67589502Y-72500300D01*
D11*
X43100588Y-23502438D02*
X43005350Y-23454819D01*
X43005350Y-23454819D02*
X42862493Y-23454819D01*
X42862493Y-23454819D02*
X42719636Y-23502438D01*
X42719636Y-23502438D02*
X42624398Y-23597676D01*
X42624398Y-23597676D02*
X42576779Y-23692914D01*
X42576779Y-23692914D02*
X42529160Y-23883390D01*
X42529160Y-23883390D02*
X42529160Y-24026247D01*
X42529160Y-24026247D02*
X42576779Y-24216723D01*
X42576779Y-24216723D02*
X42624398Y-24311961D01*
X42624398Y-24311961D02*
X42719636Y-24407200D01*
X42719636Y-24407200D02*
X42862493Y-24454819D01*
X42862493Y-24454819D02*
X42957731Y-24454819D01*
X42957731Y-24454819D02*
X43100588Y-24407200D01*
X43100588Y-24407200D02*
X43148207Y-24359580D01*
X43148207Y-24359580D02*
X43148207Y-24026247D01*
X43148207Y-24026247D02*
X42957731Y-24026247D01*
X43576779Y-24454819D02*
X43576779Y-23454819D01*
X43576779Y-23454819D02*
X43957731Y-23454819D01*
X43957731Y-23454819D02*
X44052969Y-23502438D01*
X44052969Y-23502438D02*
X44100588Y-23550057D01*
X44100588Y-23550057D02*
X44148207Y-23645295D01*
X44148207Y-23645295D02*
X44148207Y-23788152D01*
X44148207Y-23788152D02*
X44100588Y-23883390D01*
X44100588Y-23883390D02*
X44052969Y-23931009D01*
X44052969Y-23931009D02*
X43957731Y-23978628D01*
X43957731Y-23978628D02*
X43576779Y-23978628D01*
X44576779Y-24454819D02*
X44576779Y-23454819D01*
X45243445Y-23454819D02*
X45433921Y-23454819D01*
X45433921Y-23454819D02*
X45529159Y-23502438D01*
X45529159Y-23502438D02*
X45624397Y-23597676D01*
X45624397Y-23597676D02*
X45672016Y-23788152D01*
X45672016Y-23788152D02*
X45672016Y-24121485D01*
X45672016Y-24121485D02*
X45624397Y-24311961D01*
X45624397Y-24311961D02*
X45529159Y-24407200D01*
X45529159Y-24407200D02*
X45433921Y-24454819D01*
X45433921Y-24454819D02*
X45243445Y-24454819D01*
X45243445Y-24454819D02*
X45148207Y-24407200D01*
X45148207Y-24407200D02*
X45052969Y-24311961D01*
X45052969Y-24311961D02*
X45005350Y-24121485D01*
X45005350Y-24121485D02*
X45005350Y-23788152D01*
X45005350Y-23788152D02*
X45052969Y-23597676D01*
X45052969Y-23597676D02*
X45148207Y-23502438D01*
X45148207Y-23502438D02*
X45243445Y-23454819D01*
X46243445Y-23883390D02*
X46148207Y-23835771D01*
X46148207Y-23835771D02*
X46100588Y-23788152D01*
X46100588Y-23788152D02*
X46052969Y-23692914D01*
X46052969Y-23692914D02*
X46052969Y-23645295D01*
X46052969Y-23645295D02*
X46100588Y-23550057D01*
X46100588Y-23550057D02*
X46148207Y-23502438D01*
X46148207Y-23502438D02*
X46243445Y-23454819D01*
X46243445Y-23454819D02*
X46433921Y-23454819D01*
X46433921Y-23454819D02*
X46529159Y-23502438D01*
X46529159Y-23502438D02*
X46576778Y-23550057D01*
X46576778Y-23550057D02*
X46624397Y-23645295D01*
X46624397Y-23645295D02*
X46624397Y-23692914D01*
X46624397Y-23692914D02*
X46576778Y-23788152D01*
X46576778Y-23788152D02*
X46529159Y-23835771D01*
X46529159Y-23835771D02*
X46433921Y-23883390D01*
X46433921Y-23883390D02*
X46243445Y-23883390D01*
X46243445Y-23883390D02*
X46148207Y-23931009D01*
X46148207Y-23931009D02*
X46100588Y-23978628D01*
X46100588Y-23978628D02*
X46052969Y-24073866D01*
X46052969Y-24073866D02*
X46052969Y-24264342D01*
X46052969Y-24264342D02*
X46100588Y-24359580D01*
X46100588Y-24359580D02*
X46148207Y-24407200D01*
X46148207Y-24407200D02*
X46243445Y-24454819D01*
X46243445Y-24454819D02*
X46433921Y-24454819D01*
X46433921Y-24454819D02*
X46529159Y-24407200D01*
X46529159Y-24407200D02*
X46576778Y-24359580D01*
X46576778Y-24359580D02*
X46624397Y-24264342D01*
X46624397Y-24264342D02*
X46624397Y-24073866D01*
X46624397Y-24073866D02*
X46576778Y-23978628D01*
X46576778Y-23978628D02*
X46529159Y-23931009D01*
X46529159Y-23931009D02*
X46433921Y-23883390D01*
D10*
X68737123Y-63924110D02*
X68894266Y-63976491D01*
X68894266Y-63976491D02*
X68946647Y-64028872D01*
X68946647Y-64028872D02*
X68999028Y-64133634D01*
X68999028Y-64133634D02*
X68999028Y-64290777D01*
X68999028Y-64290777D02*
X68946647Y-64395539D01*
X68946647Y-64395539D02*
X68894266Y-64447920D01*
X68894266Y-64447920D02*
X68789504Y-64500300D01*
X68789504Y-64500300D02*
X68370456Y-64500300D01*
X68370456Y-64500300D02*
X68370456Y-63400300D01*
X68370456Y-63400300D02*
X68737123Y-63400300D01*
X68737123Y-63400300D02*
X68841885Y-63452681D01*
X68841885Y-63452681D02*
X68894266Y-63505062D01*
X68894266Y-63505062D02*
X68946647Y-63609824D01*
X68946647Y-63609824D02*
X68946647Y-63714586D01*
X68946647Y-63714586D02*
X68894266Y-63819348D01*
X68894266Y-63819348D02*
X68841885Y-63871729D01*
X68841885Y-63871729D02*
X68737123Y-63924110D01*
X68737123Y-63924110D02*
X68370456Y-63924110D01*
X69941885Y-63766967D02*
X69941885Y-64500300D01*
X69470456Y-63766967D02*
X69470456Y-64343158D01*
X69470456Y-64343158D02*
X69522837Y-64447920D01*
X69522837Y-64447920D02*
X69627599Y-64500300D01*
X69627599Y-64500300D02*
X69784742Y-64500300D01*
X69784742Y-64500300D02*
X69889504Y-64447920D01*
X69889504Y-64447920D02*
X69941885Y-64395539D01*
X70360932Y-63766967D02*
X70937123Y-63766967D01*
X70937123Y-63766967D02*
X70360932Y-64500300D01*
X70360932Y-64500300D02*
X70937123Y-64500300D01*
X71251408Y-63766967D02*
X71827599Y-63766967D01*
X71827599Y-63766967D02*
X71251408Y-64500300D01*
X71251408Y-64500300D02*
X71827599Y-64500300D01*
X72665694Y-64447920D02*
X72560932Y-64500300D01*
X72560932Y-64500300D02*
X72351408Y-64500300D01*
X72351408Y-64500300D02*
X72246646Y-64447920D01*
X72246646Y-64447920D02*
X72194265Y-64343158D01*
X72194265Y-64343158D02*
X72194265Y-63924110D01*
X72194265Y-63924110D02*
X72246646Y-63819348D01*
X72246646Y-63819348D02*
X72351408Y-63766967D01*
X72351408Y-63766967D02*
X72560932Y-63766967D01*
X72560932Y-63766967D02*
X72665694Y-63819348D01*
X72665694Y-63819348D02*
X72718075Y-63924110D01*
X72718075Y-63924110D02*
X72718075Y-64028872D01*
X72718075Y-64028872D02*
X72194265Y-64133634D01*
X73189503Y-64500300D02*
X73189503Y-63766967D01*
X73189503Y-63976491D02*
X73241884Y-63871729D01*
X73241884Y-63871729D02*
X73294265Y-63819348D01*
X73294265Y-63819348D02*
X73399027Y-63766967D01*
X73399027Y-63766967D02*
X73503789Y-63766967D01*
D11*
X12360588Y-26042438D02*
X12265350Y-25994819D01*
X12265350Y-25994819D02*
X12122493Y-25994819D01*
X12122493Y-25994819D02*
X11979636Y-26042438D01*
X11979636Y-26042438D02*
X11884398Y-26137676D01*
X11884398Y-26137676D02*
X11836779Y-26232914D01*
X11836779Y-26232914D02*
X11789160Y-26423390D01*
X11789160Y-26423390D02*
X11789160Y-26566247D01*
X11789160Y-26566247D02*
X11836779Y-26756723D01*
X11836779Y-26756723D02*
X11884398Y-26851961D01*
X11884398Y-26851961D02*
X11979636Y-26947200D01*
X11979636Y-26947200D02*
X12122493Y-26994819D01*
X12122493Y-26994819D02*
X12217731Y-26994819D01*
X12217731Y-26994819D02*
X12360588Y-26947200D01*
X12360588Y-26947200D02*
X12408207Y-26899580D01*
X12408207Y-26899580D02*
X12408207Y-26566247D01*
X12408207Y-26566247D02*
X12217731Y-26566247D01*
X12836779Y-26994819D02*
X12836779Y-25994819D01*
X12836779Y-25994819D02*
X13408207Y-26994819D01*
X13408207Y-26994819D02*
X13408207Y-25994819D01*
X13884398Y-26994819D02*
X13884398Y-25994819D01*
X13884398Y-25994819D02*
X14122493Y-25994819D01*
X14122493Y-25994819D02*
X14265350Y-26042438D01*
X14265350Y-26042438D02*
X14360588Y-26137676D01*
X14360588Y-26137676D02*
X14408207Y-26232914D01*
X14408207Y-26232914D02*
X14455826Y-26423390D01*
X14455826Y-26423390D02*
X14455826Y-26566247D01*
X14455826Y-26566247D02*
X14408207Y-26756723D01*
X14408207Y-26756723D02*
X14360588Y-26851961D01*
X14360588Y-26851961D02*
X14265350Y-26947200D01*
X14265350Y-26947200D02*
X14122493Y-26994819D01*
X14122493Y-26994819D02*
X13884398Y-26994819D01*
X12360588Y-31122438D02*
X12265350Y-31074819D01*
X12265350Y-31074819D02*
X12122493Y-31074819D01*
X12122493Y-31074819D02*
X11979636Y-31122438D01*
X11979636Y-31122438D02*
X11884398Y-31217676D01*
X11884398Y-31217676D02*
X11836779Y-31312914D01*
X11836779Y-31312914D02*
X11789160Y-31503390D01*
X11789160Y-31503390D02*
X11789160Y-31646247D01*
X11789160Y-31646247D02*
X11836779Y-31836723D01*
X11836779Y-31836723D02*
X11884398Y-31931961D01*
X11884398Y-31931961D02*
X11979636Y-32027200D01*
X11979636Y-32027200D02*
X12122493Y-32074819D01*
X12122493Y-32074819D02*
X12217731Y-32074819D01*
X12217731Y-32074819D02*
X12360588Y-32027200D01*
X12360588Y-32027200D02*
X12408207Y-31979580D01*
X12408207Y-31979580D02*
X12408207Y-31646247D01*
X12408207Y-31646247D02*
X12217731Y-31646247D01*
X12836779Y-32074819D02*
X12836779Y-31074819D01*
X12836779Y-31074819D02*
X13217731Y-31074819D01*
X13217731Y-31074819D02*
X13312969Y-31122438D01*
X13312969Y-31122438D02*
X13360588Y-31170057D01*
X13360588Y-31170057D02*
X13408207Y-31265295D01*
X13408207Y-31265295D02*
X13408207Y-31408152D01*
X13408207Y-31408152D02*
X13360588Y-31503390D01*
X13360588Y-31503390D02*
X13312969Y-31551009D01*
X13312969Y-31551009D02*
X13217731Y-31598628D01*
X13217731Y-31598628D02*
X12836779Y-31598628D01*
X13836779Y-32074819D02*
X13836779Y-31074819D01*
X14503445Y-31074819D02*
X14693921Y-31074819D01*
X14693921Y-31074819D02*
X14789159Y-31122438D01*
X14789159Y-31122438D02*
X14884397Y-31217676D01*
X14884397Y-31217676D02*
X14932016Y-31408152D01*
X14932016Y-31408152D02*
X14932016Y-31741485D01*
X14932016Y-31741485D02*
X14884397Y-31931961D01*
X14884397Y-31931961D02*
X14789159Y-32027200D01*
X14789159Y-32027200D02*
X14693921Y-32074819D01*
X14693921Y-32074819D02*
X14503445Y-32074819D01*
X14503445Y-32074819D02*
X14408207Y-32027200D01*
X14408207Y-32027200D02*
X14312969Y-31931961D01*
X14312969Y-31931961D02*
X14265350Y-31741485D01*
X14265350Y-31741485D02*
X14265350Y-31408152D01*
X14265350Y-31408152D02*
X14312969Y-31217676D01*
X14312969Y-31217676D02*
X14408207Y-31122438D01*
X14408207Y-31122438D02*
X14503445Y-31074819D01*
X15884397Y-32074819D02*
X15312969Y-32074819D01*
X15598683Y-32074819D02*
X15598683Y-31074819D01*
X15598683Y-31074819D02*
X15503445Y-31217676D01*
X15503445Y-31217676D02*
X15408207Y-31312914D01*
X15408207Y-31312914D02*
X15312969Y-31360533D01*
X16217731Y-31074819D02*
X16836778Y-31074819D01*
X16836778Y-31074819D02*
X16503445Y-31455771D01*
X16503445Y-31455771D02*
X16646302Y-31455771D01*
X16646302Y-31455771D02*
X16741540Y-31503390D01*
X16741540Y-31503390D02*
X16789159Y-31551009D01*
X16789159Y-31551009D02*
X16836778Y-31646247D01*
X16836778Y-31646247D02*
X16836778Y-31884342D01*
X16836778Y-31884342D02*
X16789159Y-31979580D01*
X16789159Y-31979580D02*
X16741540Y-32027200D01*
X16741540Y-32027200D02*
X16646302Y-32074819D01*
X16646302Y-32074819D02*
X16360588Y-32074819D01*
X16360588Y-32074819D02*
X16265350Y-32027200D01*
X16265350Y-32027200D02*
X16217731Y-31979580D01*
X12360588Y-38742438D02*
X12265350Y-38694819D01*
X12265350Y-38694819D02*
X12122493Y-38694819D01*
X12122493Y-38694819D02*
X11979636Y-38742438D01*
X11979636Y-38742438D02*
X11884398Y-38837676D01*
X11884398Y-38837676D02*
X11836779Y-38932914D01*
X11836779Y-38932914D02*
X11789160Y-39123390D01*
X11789160Y-39123390D02*
X11789160Y-39266247D01*
X11789160Y-39266247D02*
X11836779Y-39456723D01*
X11836779Y-39456723D02*
X11884398Y-39551961D01*
X11884398Y-39551961D02*
X11979636Y-39647200D01*
X11979636Y-39647200D02*
X12122493Y-39694819D01*
X12122493Y-39694819D02*
X12217731Y-39694819D01*
X12217731Y-39694819D02*
X12360588Y-39647200D01*
X12360588Y-39647200D02*
X12408207Y-39599580D01*
X12408207Y-39599580D02*
X12408207Y-39266247D01*
X12408207Y-39266247D02*
X12217731Y-39266247D01*
X12836779Y-39694819D02*
X12836779Y-38694819D01*
X12836779Y-38694819D02*
X13217731Y-38694819D01*
X13217731Y-38694819D02*
X13312969Y-38742438D01*
X13312969Y-38742438D02*
X13360588Y-38790057D01*
X13360588Y-38790057D02*
X13408207Y-38885295D01*
X13408207Y-38885295D02*
X13408207Y-39028152D01*
X13408207Y-39028152D02*
X13360588Y-39123390D01*
X13360588Y-39123390D02*
X13312969Y-39171009D01*
X13312969Y-39171009D02*
X13217731Y-39218628D01*
X13217731Y-39218628D02*
X12836779Y-39218628D01*
X13836779Y-39694819D02*
X13836779Y-38694819D01*
X14503445Y-38694819D02*
X14693921Y-38694819D01*
X14693921Y-38694819D02*
X14789159Y-38742438D01*
X14789159Y-38742438D02*
X14884397Y-38837676D01*
X14884397Y-38837676D02*
X14932016Y-39028152D01*
X14932016Y-39028152D02*
X14932016Y-39361485D01*
X14932016Y-39361485D02*
X14884397Y-39551961D01*
X14884397Y-39551961D02*
X14789159Y-39647200D01*
X14789159Y-39647200D02*
X14693921Y-39694819D01*
X14693921Y-39694819D02*
X14503445Y-39694819D01*
X14503445Y-39694819D02*
X14408207Y-39647200D01*
X14408207Y-39647200D02*
X14312969Y-39551961D01*
X14312969Y-39551961D02*
X14265350Y-39361485D01*
X14265350Y-39361485D02*
X14265350Y-39028152D01*
X14265350Y-39028152D02*
X14312969Y-38837676D01*
X14312969Y-38837676D02*
X14408207Y-38742438D01*
X14408207Y-38742438D02*
X14503445Y-38694819D01*
X15884397Y-39694819D02*
X15312969Y-39694819D01*
X15598683Y-39694819D02*
X15598683Y-38694819D01*
X15598683Y-38694819D02*
X15503445Y-38837676D01*
X15503445Y-38837676D02*
X15408207Y-38932914D01*
X15408207Y-38932914D02*
X15312969Y-38980533D01*
X16503445Y-38694819D02*
X16598683Y-38694819D01*
X16598683Y-38694819D02*
X16693921Y-38742438D01*
X16693921Y-38742438D02*
X16741540Y-38790057D01*
X16741540Y-38790057D02*
X16789159Y-38885295D01*
X16789159Y-38885295D02*
X16836778Y-39075771D01*
X16836778Y-39075771D02*
X16836778Y-39313866D01*
X16836778Y-39313866D02*
X16789159Y-39504342D01*
X16789159Y-39504342D02*
X16741540Y-39599580D01*
X16741540Y-39599580D02*
X16693921Y-39647200D01*
X16693921Y-39647200D02*
X16598683Y-39694819D01*
X16598683Y-39694819D02*
X16503445Y-39694819D01*
X16503445Y-39694819D02*
X16408207Y-39647200D01*
X16408207Y-39647200D02*
X16360588Y-39599580D01*
X16360588Y-39599580D02*
X16312969Y-39504342D01*
X16312969Y-39504342D02*
X16265350Y-39313866D01*
X16265350Y-39313866D02*
X16265350Y-39075771D01*
X16265350Y-39075771D02*
X16312969Y-38885295D01*
X16312969Y-38885295D02*
X16360588Y-38790057D01*
X16360588Y-38790057D02*
X16408207Y-38742438D01*
X16408207Y-38742438D02*
X16503445Y-38694819D01*
D12*
X6072179Y-78389615D02*
X6300751Y-78465805D01*
X6300751Y-78465805D02*
X6376941Y-78541996D01*
X6376941Y-78541996D02*
X6453132Y-78694377D01*
X6453132Y-78694377D02*
X6453132Y-78922948D01*
X6453132Y-78922948D02*
X6376941Y-79075329D01*
X6376941Y-79075329D02*
X6300751Y-79151520D01*
X6300751Y-79151520D02*
X6148370Y-79227710D01*
X6148370Y-79227710D02*
X5538846Y-79227710D01*
X5538846Y-79227710D02*
X5538846Y-77627710D01*
X5538846Y-77627710D02*
X6072179Y-77627710D01*
X6072179Y-77627710D02*
X6224560Y-77703900D01*
X6224560Y-77703900D02*
X6300751Y-77780091D01*
X6300751Y-77780091D02*
X6376941Y-77932472D01*
X6376941Y-77932472D02*
X6376941Y-78084853D01*
X6376941Y-78084853D02*
X6300751Y-78237234D01*
X6300751Y-78237234D02*
X6224560Y-78313424D01*
X6224560Y-78313424D02*
X6072179Y-78389615D01*
X6072179Y-78389615D02*
X5538846Y-78389615D01*
X7138846Y-78389615D02*
X7672179Y-78389615D01*
X7900751Y-79227710D02*
X7138846Y-79227710D01*
X7138846Y-79227710D02*
X7138846Y-77627710D01*
X7138846Y-77627710D02*
X7900751Y-77627710D01*
X8586465Y-79227710D02*
X8586465Y-77627710D01*
X8586465Y-77627710D02*
X8967417Y-77627710D01*
X8967417Y-77627710D02*
X9195989Y-77703900D01*
X9195989Y-77703900D02*
X9348370Y-77856281D01*
X9348370Y-77856281D02*
X9424560Y-78008662D01*
X9424560Y-78008662D02*
X9500751Y-78313424D01*
X9500751Y-78313424D02*
X9500751Y-78541996D01*
X9500751Y-78541996D02*
X9424560Y-78846758D01*
X9424560Y-78846758D02*
X9348370Y-78999139D01*
X9348370Y-78999139D02*
X9195989Y-79151520D01*
X9195989Y-79151520D02*
X8967417Y-79227710D01*
X8967417Y-79227710D02*
X8586465Y-79227710D01*
X11329322Y-79151520D02*
X11557894Y-79227710D01*
X11557894Y-79227710D02*
X11938846Y-79227710D01*
X11938846Y-79227710D02*
X12091227Y-79151520D01*
X12091227Y-79151520D02*
X12167418Y-79075329D01*
X12167418Y-79075329D02*
X12243608Y-78922948D01*
X12243608Y-78922948D02*
X12243608Y-78770567D01*
X12243608Y-78770567D02*
X12167418Y-78618186D01*
X12167418Y-78618186D02*
X12091227Y-78541996D01*
X12091227Y-78541996D02*
X11938846Y-78465805D01*
X11938846Y-78465805D02*
X11634084Y-78389615D01*
X11634084Y-78389615D02*
X11481703Y-78313424D01*
X11481703Y-78313424D02*
X11405513Y-78237234D01*
X11405513Y-78237234D02*
X11329322Y-78084853D01*
X11329322Y-78084853D02*
X11329322Y-77932472D01*
X11329322Y-77932472D02*
X11405513Y-77780091D01*
X11405513Y-77780091D02*
X11481703Y-77703900D01*
X11481703Y-77703900D02*
X11634084Y-77627710D01*
X11634084Y-77627710D02*
X12015037Y-77627710D01*
X12015037Y-77627710D02*
X12243608Y-77703900D01*
X12700751Y-77627710D02*
X13615037Y-77627710D01*
X13157894Y-79227710D02*
X13157894Y-77627710D01*
X14072180Y-78770567D02*
X14834085Y-78770567D01*
X13919799Y-79227710D02*
X14453133Y-77627710D01*
X14453133Y-77627710D02*
X14986466Y-79227710D01*
X15291228Y-77627710D02*
X16205514Y-77627710D01*
X15748371Y-79227710D02*
X15748371Y-77627710D01*
X16738848Y-79227710D02*
X16738848Y-77627710D01*
X17805515Y-77627710D02*
X18110277Y-77627710D01*
X18110277Y-77627710D02*
X18262658Y-77703900D01*
X18262658Y-77703900D02*
X18415039Y-77856281D01*
X18415039Y-77856281D02*
X18491229Y-78161043D01*
X18491229Y-78161043D02*
X18491229Y-78694377D01*
X18491229Y-78694377D02*
X18415039Y-78999139D01*
X18415039Y-78999139D02*
X18262658Y-79151520D01*
X18262658Y-79151520D02*
X18110277Y-79227710D01*
X18110277Y-79227710D02*
X17805515Y-79227710D01*
X17805515Y-79227710D02*
X17653134Y-79151520D01*
X17653134Y-79151520D02*
X17500753Y-78999139D01*
X17500753Y-78999139D02*
X17424562Y-78694377D01*
X17424562Y-78694377D02*
X17424562Y-78161043D01*
X17424562Y-78161043D02*
X17500753Y-77856281D01*
X17500753Y-77856281D02*
X17653134Y-77703900D01*
X17653134Y-77703900D02*
X17805515Y-77627710D01*
X19176943Y-79227710D02*
X19176943Y-77627710D01*
X19176943Y-77627710D02*
X20091229Y-79227710D01*
X20091229Y-79227710D02*
X20091229Y-77627710D01*
X22072181Y-79227710D02*
X22072181Y-77627710D01*
X22072181Y-77627710D02*
X22986467Y-79227710D01*
X22986467Y-79227710D02*
X22986467Y-77627710D01*
X24053133Y-77627710D02*
X24357895Y-77627710D01*
X24357895Y-77627710D02*
X24510276Y-77703900D01*
X24510276Y-77703900D02*
X24662657Y-77856281D01*
X24662657Y-77856281D02*
X24738847Y-78161043D01*
X24738847Y-78161043D02*
X24738847Y-78694377D01*
X24738847Y-78694377D02*
X24662657Y-78999139D01*
X24662657Y-78999139D02*
X24510276Y-79151520D01*
X24510276Y-79151520D02*
X24357895Y-79227710D01*
X24357895Y-79227710D02*
X24053133Y-79227710D01*
X24053133Y-79227710D02*
X23900752Y-79151520D01*
X23900752Y-79151520D02*
X23748371Y-78999139D01*
X23748371Y-78999139D02*
X23672180Y-78694377D01*
X23672180Y-78694377D02*
X23672180Y-78161043D01*
X23672180Y-78161043D02*
X23748371Y-77856281D01*
X23748371Y-77856281D02*
X23900752Y-77703900D01*
X23900752Y-77703900D02*
X24053133Y-77627710D01*
X25424561Y-79227710D02*
X25424561Y-77627710D01*
X25424561Y-77627710D02*
X25805513Y-77627710D01*
X25805513Y-77627710D02*
X26034085Y-77703900D01*
X26034085Y-77703900D02*
X26186466Y-77856281D01*
X26186466Y-77856281D02*
X26262656Y-78008662D01*
X26262656Y-78008662D02*
X26338847Y-78313424D01*
X26338847Y-78313424D02*
X26338847Y-78541996D01*
X26338847Y-78541996D02*
X26262656Y-78846758D01*
X26262656Y-78846758D02*
X26186466Y-78999139D01*
X26186466Y-78999139D02*
X26034085Y-79151520D01*
X26034085Y-79151520D02*
X25805513Y-79227710D01*
X25805513Y-79227710D02*
X25424561Y-79227710D01*
X27024561Y-78389615D02*
X27557894Y-78389615D01*
X27786466Y-79227710D02*
X27024561Y-79227710D01*
X27024561Y-79227710D02*
X27024561Y-77627710D01*
X27024561Y-77627710D02*
X27786466Y-77627710D01*
X29538847Y-78161043D02*
X29919799Y-79227710D01*
X29919799Y-79227710D02*
X30300752Y-78161043D01*
X30757895Y-77627710D02*
X31824562Y-77627710D01*
X31824562Y-77627710D02*
X31138847Y-79227710D01*
X32434086Y-79075329D02*
X32510276Y-79151520D01*
X32510276Y-79151520D02*
X32434086Y-79227710D01*
X32434086Y-79227710D02*
X32357895Y-79151520D01*
X32357895Y-79151520D02*
X32434086Y-79075329D01*
X32434086Y-79075329D02*
X32434086Y-79227710D01*
X33043610Y-77627710D02*
X34110277Y-77627710D01*
X34110277Y-77627710D02*
X33424562Y-79227710D01*
X34719801Y-79075329D02*
X34795991Y-79151520D01*
X34795991Y-79151520D02*
X34719801Y-79227710D01*
X34719801Y-79227710D02*
X34643610Y-79151520D01*
X34643610Y-79151520D02*
X34719801Y-79075329D01*
X34719801Y-79075329D02*
X34719801Y-79227710D01*
X35329325Y-77627710D02*
X36319801Y-77627710D01*
X36319801Y-77627710D02*
X35786468Y-78237234D01*
X35786468Y-78237234D02*
X36015039Y-78237234D01*
X36015039Y-78237234D02*
X36167420Y-78313424D01*
X36167420Y-78313424D02*
X36243611Y-78389615D01*
X36243611Y-78389615D02*
X36319801Y-78541996D01*
X36319801Y-78541996D02*
X36319801Y-78922948D01*
X36319801Y-78922948D02*
X36243611Y-79075329D01*
X36243611Y-79075329D02*
X36167420Y-79151520D01*
X36167420Y-79151520D02*
X36015039Y-79227710D01*
X36015039Y-79227710D02*
X35557896Y-79227710D01*
X35557896Y-79227710D02*
X35405515Y-79151520D01*
X35405515Y-79151520D02*
X35329325Y-79075329D01*
D11*
X11741541Y-28534819D02*
X12360588Y-28534819D01*
X12360588Y-28534819D02*
X12027255Y-28915771D01*
X12027255Y-28915771D02*
X12170112Y-28915771D01*
X12170112Y-28915771D02*
X12265350Y-28963390D01*
X12265350Y-28963390D02*
X12312969Y-29011009D01*
X12312969Y-29011009D02*
X12360588Y-29106247D01*
X12360588Y-29106247D02*
X12360588Y-29344342D01*
X12360588Y-29344342D02*
X12312969Y-29439580D01*
X12312969Y-29439580D02*
X12265350Y-29487200D01*
X12265350Y-29487200D02*
X12170112Y-29534819D01*
X12170112Y-29534819D02*
X11884398Y-29534819D01*
X11884398Y-29534819D02*
X11789160Y-29487200D01*
X11789160Y-29487200D02*
X11741541Y-29439580D01*
X12646303Y-28534819D02*
X12979636Y-29534819D01*
X12979636Y-29534819D02*
X13312969Y-28534819D01*
X13551065Y-28534819D02*
X14170112Y-28534819D01*
X14170112Y-28534819D02*
X13836779Y-28915771D01*
X13836779Y-28915771D02*
X13979636Y-28915771D01*
X13979636Y-28915771D02*
X14074874Y-28963390D01*
X14074874Y-28963390D02*
X14122493Y-29011009D01*
X14122493Y-29011009D02*
X14170112Y-29106247D01*
X14170112Y-29106247D02*
X14170112Y-29344342D01*
X14170112Y-29344342D02*
X14122493Y-29439580D01*
X14122493Y-29439580D02*
X14074874Y-29487200D01*
X14074874Y-29487200D02*
X13979636Y-29534819D01*
X13979636Y-29534819D02*
X13693922Y-29534819D01*
X13693922Y-29534819D02*
X13598684Y-29487200D01*
X13598684Y-29487200D02*
X13551065Y-29439580D01*
X43100588Y-33662438D02*
X43005350Y-33614819D01*
X43005350Y-33614819D02*
X42862493Y-33614819D01*
X42862493Y-33614819D02*
X42719636Y-33662438D01*
X42719636Y-33662438D02*
X42624398Y-33757676D01*
X42624398Y-33757676D02*
X42576779Y-33852914D01*
X42576779Y-33852914D02*
X42529160Y-34043390D01*
X42529160Y-34043390D02*
X42529160Y-34186247D01*
X42529160Y-34186247D02*
X42576779Y-34376723D01*
X42576779Y-34376723D02*
X42624398Y-34471961D01*
X42624398Y-34471961D02*
X42719636Y-34567200D01*
X42719636Y-34567200D02*
X42862493Y-34614819D01*
X42862493Y-34614819D02*
X42957731Y-34614819D01*
X42957731Y-34614819D02*
X43100588Y-34567200D01*
X43100588Y-34567200D02*
X43148207Y-34519580D01*
X43148207Y-34519580D02*
X43148207Y-34186247D01*
X43148207Y-34186247D02*
X42957731Y-34186247D01*
X43576779Y-34614819D02*
X43576779Y-33614819D01*
X43576779Y-33614819D02*
X43957731Y-33614819D01*
X43957731Y-33614819D02*
X44052969Y-33662438D01*
X44052969Y-33662438D02*
X44100588Y-33710057D01*
X44100588Y-33710057D02*
X44148207Y-33805295D01*
X44148207Y-33805295D02*
X44148207Y-33948152D01*
X44148207Y-33948152D02*
X44100588Y-34043390D01*
X44100588Y-34043390D02*
X44052969Y-34091009D01*
X44052969Y-34091009D02*
X43957731Y-34138628D01*
X43957731Y-34138628D02*
X43576779Y-34138628D01*
X44576779Y-34614819D02*
X44576779Y-33614819D01*
X45243445Y-33614819D02*
X45433921Y-33614819D01*
X45433921Y-33614819D02*
X45529159Y-33662438D01*
X45529159Y-33662438D02*
X45624397Y-33757676D01*
X45624397Y-33757676D02*
X45672016Y-33948152D01*
X45672016Y-33948152D02*
X45672016Y-34281485D01*
X45672016Y-34281485D02*
X45624397Y-34471961D01*
X45624397Y-34471961D02*
X45529159Y-34567200D01*
X45529159Y-34567200D02*
X45433921Y-34614819D01*
X45433921Y-34614819D02*
X45243445Y-34614819D01*
X45243445Y-34614819D02*
X45148207Y-34567200D01*
X45148207Y-34567200D02*
X45052969Y-34471961D01*
X45052969Y-34471961D02*
X45005350Y-34281485D01*
X45005350Y-34281485D02*
X45005350Y-33948152D01*
X45005350Y-33948152D02*
X45052969Y-33757676D01*
X45052969Y-33757676D02*
X45148207Y-33662438D01*
X45148207Y-33662438D02*
X45243445Y-33614819D01*
X46529159Y-33948152D02*
X46529159Y-34614819D01*
X46291064Y-33567200D02*
X46052969Y-34281485D01*
X46052969Y-34281485D02*
X46672016Y-34281485D01*
X12312969Y-23454819D02*
X11836779Y-23454819D01*
X11836779Y-23454819D02*
X11789160Y-23931009D01*
X11789160Y-23931009D02*
X11836779Y-23883390D01*
X11836779Y-23883390D02*
X11932017Y-23835771D01*
X11932017Y-23835771D02*
X12170112Y-23835771D01*
X12170112Y-23835771D02*
X12265350Y-23883390D01*
X12265350Y-23883390D02*
X12312969Y-23931009D01*
X12312969Y-23931009D02*
X12360588Y-24026247D01*
X12360588Y-24026247D02*
X12360588Y-24264342D01*
X12360588Y-24264342D02*
X12312969Y-24359580D01*
X12312969Y-24359580D02*
X12265350Y-24407200D01*
X12265350Y-24407200D02*
X12170112Y-24454819D01*
X12170112Y-24454819D02*
X11932017Y-24454819D01*
X11932017Y-24454819D02*
X11836779Y-24407200D01*
X11836779Y-24407200D02*
X11789160Y-24359580D01*
X12646303Y-23454819D02*
X12979636Y-24454819D01*
X12979636Y-24454819D02*
X13312969Y-23454819D01*
X5289160Y-81907200D02*
X5432017Y-81954819D01*
X5432017Y-81954819D02*
X5670112Y-81954819D01*
X5670112Y-81954819D02*
X5765350Y-81907200D01*
X5765350Y-81907200D02*
X5812969Y-81859580D01*
X5812969Y-81859580D02*
X5860588Y-81764342D01*
X5860588Y-81764342D02*
X5860588Y-81669104D01*
X5860588Y-81669104D02*
X5812969Y-81573866D01*
X5812969Y-81573866D02*
X5765350Y-81526247D01*
X5765350Y-81526247D02*
X5670112Y-81478628D01*
X5670112Y-81478628D02*
X5479636Y-81431009D01*
X5479636Y-81431009D02*
X5384398Y-81383390D01*
X5384398Y-81383390D02*
X5336779Y-81335771D01*
X5336779Y-81335771D02*
X5289160Y-81240533D01*
X5289160Y-81240533D02*
X5289160Y-81145295D01*
X5289160Y-81145295D02*
X5336779Y-81050057D01*
X5336779Y-81050057D02*
X5384398Y-81002438D01*
X5384398Y-81002438D02*
X5479636Y-80954819D01*
X5479636Y-80954819D02*
X5717731Y-80954819D01*
X5717731Y-80954819D02*
X5860588Y-81002438D01*
X6289160Y-81954819D02*
X6289160Y-81288152D01*
X6289160Y-81383390D02*
X6336779Y-81335771D01*
X6336779Y-81335771D02*
X6432017Y-81288152D01*
X6432017Y-81288152D02*
X6574874Y-81288152D01*
X6574874Y-81288152D02*
X6670112Y-81335771D01*
X6670112Y-81335771D02*
X6717731Y-81431009D01*
X6717731Y-81431009D02*
X6717731Y-81954819D01*
X6717731Y-81431009D02*
X6765350Y-81335771D01*
X6765350Y-81335771D02*
X6860588Y-81288152D01*
X6860588Y-81288152D02*
X7003445Y-81288152D01*
X7003445Y-81288152D02*
X7098684Y-81335771D01*
X7098684Y-81335771D02*
X7146303Y-81431009D01*
X7146303Y-81431009D02*
X7146303Y-81954819D01*
X8051064Y-81954819D02*
X8051064Y-81431009D01*
X8051064Y-81431009D02*
X8003445Y-81335771D01*
X8003445Y-81335771D02*
X7908207Y-81288152D01*
X7908207Y-81288152D02*
X7717731Y-81288152D01*
X7717731Y-81288152D02*
X7622493Y-81335771D01*
X8051064Y-81907200D02*
X7955826Y-81954819D01*
X7955826Y-81954819D02*
X7717731Y-81954819D01*
X7717731Y-81954819D02*
X7622493Y-81907200D01*
X7622493Y-81907200D02*
X7574874Y-81811961D01*
X7574874Y-81811961D02*
X7574874Y-81716723D01*
X7574874Y-81716723D02*
X7622493Y-81621485D01*
X7622493Y-81621485D02*
X7717731Y-81573866D01*
X7717731Y-81573866D02*
X7955826Y-81573866D01*
X7955826Y-81573866D02*
X8051064Y-81526247D01*
X8527255Y-81954819D02*
X8527255Y-81288152D01*
X8527255Y-81478628D02*
X8574874Y-81383390D01*
X8574874Y-81383390D02*
X8622493Y-81335771D01*
X8622493Y-81335771D02*
X8717731Y-81288152D01*
X8717731Y-81288152D02*
X8812969Y-81288152D01*
X9003446Y-81288152D02*
X9384398Y-81288152D01*
X9146303Y-80954819D02*
X9146303Y-81811961D01*
X9146303Y-81811961D02*
X9193922Y-81907200D01*
X9193922Y-81907200D02*
X9289160Y-81954819D01*
X9289160Y-81954819D02*
X9384398Y-81954819D01*
X10479637Y-81954819D02*
X10479637Y-80954819D01*
X10812970Y-80954819D02*
X11146303Y-81954819D01*
X11146303Y-81954819D02*
X11479636Y-80954819D01*
X12527256Y-81669104D02*
X13003446Y-81669104D01*
X12432018Y-81954819D02*
X12765351Y-80954819D01*
X12765351Y-80954819D02*
X13098684Y-81954819D01*
X13574875Y-81954819D02*
X13479637Y-81907200D01*
X13479637Y-81907200D02*
X13432018Y-81811961D01*
X13432018Y-81811961D02*
X13432018Y-80954819D01*
X14336780Y-81907200D02*
X14241542Y-81954819D01*
X14241542Y-81954819D02*
X14051066Y-81954819D01*
X14051066Y-81954819D02*
X13955828Y-81907200D01*
X13955828Y-81907200D02*
X13908209Y-81811961D01*
X13908209Y-81811961D02*
X13908209Y-81431009D01*
X13908209Y-81431009D02*
X13955828Y-81335771D01*
X13955828Y-81335771D02*
X14051066Y-81288152D01*
X14051066Y-81288152D02*
X14241542Y-81288152D01*
X14241542Y-81288152D02*
X14336780Y-81335771D01*
X14336780Y-81335771D02*
X14384399Y-81431009D01*
X14384399Y-81431009D02*
X14384399Y-81526247D01*
X14384399Y-81526247D02*
X13908209Y-81621485D01*
X14812971Y-81954819D02*
X14812971Y-81288152D01*
X14812971Y-81478628D02*
X14860590Y-81383390D01*
X14860590Y-81383390D02*
X14908209Y-81335771D01*
X14908209Y-81335771D02*
X15003447Y-81288152D01*
X15003447Y-81288152D02*
X15098685Y-81288152D01*
X15289162Y-81288152D02*
X15670114Y-81288152D01*
X15432019Y-80954819D02*
X15432019Y-81811961D01*
X15432019Y-81811961D02*
X15479638Y-81907200D01*
X15479638Y-81907200D02*
X15574876Y-81954819D01*
X15574876Y-81954819D02*
X15670114Y-81954819D01*
X17193924Y-81907200D02*
X17098686Y-81954819D01*
X17098686Y-81954819D02*
X16908210Y-81954819D01*
X16908210Y-81954819D02*
X16812972Y-81907200D01*
X16812972Y-81907200D02*
X16765353Y-81859580D01*
X16765353Y-81859580D02*
X16717734Y-81764342D01*
X16717734Y-81764342D02*
X16717734Y-81478628D01*
X16717734Y-81478628D02*
X16765353Y-81383390D01*
X16765353Y-81383390D02*
X16812972Y-81335771D01*
X16812972Y-81335771D02*
X16908210Y-81288152D01*
X16908210Y-81288152D02*
X17098686Y-81288152D01*
X17098686Y-81288152D02*
X17193924Y-81335771D01*
X18051067Y-81954819D02*
X18051067Y-81431009D01*
X18051067Y-81431009D02*
X18003448Y-81335771D01*
X18003448Y-81335771D02*
X17908210Y-81288152D01*
X17908210Y-81288152D02*
X17717734Y-81288152D01*
X17717734Y-81288152D02*
X17622496Y-81335771D01*
X18051067Y-81907200D02*
X17955829Y-81954819D01*
X17955829Y-81954819D02*
X17717734Y-81954819D01*
X17717734Y-81954819D02*
X17622496Y-81907200D01*
X17622496Y-81907200D02*
X17574877Y-81811961D01*
X17574877Y-81811961D02*
X17574877Y-81716723D01*
X17574877Y-81716723D02*
X17622496Y-81621485D01*
X17622496Y-81621485D02*
X17717734Y-81573866D01*
X17717734Y-81573866D02*
X17955829Y-81573866D01*
X17955829Y-81573866D02*
X18051067Y-81526247D01*
X18527258Y-81954819D02*
X18527258Y-81288152D01*
X18527258Y-81478628D02*
X18574877Y-81383390D01*
X18574877Y-81383390D02*
X18622496Y-81335771D01*
X18622496Y-81335771D02*
X18717734Y-81288152D01*
X18717734Y-81288152D02*
X18812972Y-81288152D01*
X19146306Y-81954819D02*
X19146306Y-81288152D01*
X19146306Y-81478628D02*
X19193925Y-81383390D01*
X19193925Y-81383390D02*
X19241544Y-81335771D01*
X19241544Y-81335771D02*
X19336782Y-81288152D01*
X19336782Y-81288152D02*
X19432020Y-81288152D01*
X19765354Y-81954819D02*
X19765354Y-81288152D01*
X19765354Y-80954819D02*
X19717735Y-81002438D01*
X19717735Y-81002438D02*
X19765354Y-81050057D01*
X19765354Y-81050057D02*
X19812973Y-81002438D01*
X19812973Y-81002438D02*
X19765354Y-80954819D01*
X19765354Y-80954819D02*
X19765354Y-81050057D01*
X20622496Y-81907200D02*
X20527258Y-81954819D01*
X20527258Y-81954819D02*
X20336782Y-81954819D01*
X20336782Y-81954819D02*
X20241544Y-81907200D01*
X20241544Y-81907200D02*
X20193925Y-81811961D01*
X20193925Y-81811961D02*
X20193925Y-81431009D01*
X20193925Y-81431009D02*
X20241544Y-81335771D01*
X20241544Y-81335771D02*
X20336782Y-81288152D01*
X20336782Y-81288152D02*
X20527258Y-81288152D01*
X20527258Y-81288152D02*
X20622496Y-81335771D01*
X20622496Y-81335771D02*
X20670115Y-81431009D01*
X20670115Y-81431009D02*
X20670115Y-81526247D01*
X20670115Y-81526247D02*
X20193925Y-81621485D01*
X21098687Y-81954819D02*
X21098687Y-81288152D01*
X21098687Y-81478628D02*
X21146306Y-81383390D01*
X21146306Y-81383390D02*
X21193925Y-81335771D01*
X21193925Y-81335771D02*
X21289163Y-81288152D01*
X21289163Y-81288152D02*
X21384401Y-81288152D01*
X22479640Y-81954819D02*
X22479640Y-80954819D01*
X22479640Y-81335771D02*
X22574878Y-81288152D01*
X22574878Y-81288152D02*
X22765354Y-81288152D01*
X22765354Y-81288152D02*
X22860592Y-81335771D01*
X22860592Y-81335771D02*
X22908211Y-81383390D01*
X22908211Y-81383390D02*
X22955830Y-81478628D01*
X22955830Y-81478628D02*
X22955830Y-81764342D01*
X22955830Y-81764342D02*
X22908211Y-81859580D01*
X22908211Y-81859580D02*
X22860592Y-81907200D01*
X22860592Y-81907200D02*
X22765354Y-81954819D01*
X22765354Y-81954819D02*
X22574878Y-81954819D01*
X22574878Y-81954819D02*
X22479640Y-81907200D01*
X23527259Y-81954819D02*
X23432021Y-81907200D01*
X23432021Y-81907200D02*
X23384402Y-81859580D01*
X23384402Y-81859580D02*
X23336783Y-81764342D01*
X23336783Y-81764342D02*
X23336783Y-81478628D01*
X23336783Y-81478628D02*
X23384402Y-81383390D01*
X23384402Y-81383390D02*
X23432021Y-81335771D01*
X23432021Y-81335771D02*
X23527259Y-81288152D01*
X23527259Y-81288152D02*
X23670116Y-81288152D01*
X23670116Y-81288152D02*
X23765354Y-81335771D01*
X23765354Y-81335771D02*
X23812973Y-81383390D01*
X23812973Y-81383390D02*
X23860592Y-81478628D01*
X23860592Y-81478628D02*
X23860592Y-81764342D01*
X23860592Y-81764342D02*
X23812973Y-81859580D01*
X23812973Y-81859580D02*
X23765354Y-81907200D01*
X23765354Y-81907200D02*
X23670116Y-81954819D01*
X23670116Y-81954819D02*
X23527259Y-81954819D01*
X24717735Y-81954819D02*
X24717735Y-81431009D01*
X24717735Y-81431009D02*
X24670116Y-81335771D01*
X24670116Y-81335771D02*
X24574878Y-81288152D01*
X24574878Y-81288152D02*
X24384402Y-81288152D01*
X24384402Y-81288152D02*
X24289164Y-81335771D01*
X24717735Y-81907200D02*
X24622497Y-81954819D01*
X24622497Y-81954819D02*
X24384402Y-81954819D01*
X24384402Y-81954819D02*
X24289164Y-81907200D01*
X24289164Y-81907200D02*
X24241545Y-81811961D01*
X24241545Y-81811961D02*
X24241545Y-81716723D01*
X24241545Y-81716723D02*
X24289164Y-81621485D01*
X24289164Y-81621485D02*
X24384402Y-81573866D01*
X24384402Y-81573866D02*
X24622497Y-81573866D01*
X24622497Y-81573866D02*
X24717735Y-81526247D01*
X25193926Y-81954819D02*
X25193926Y-81288152D01*
X25193926Y-81478628D02*
X25241545Y-81383390D01*
X25241545Y-81383390D02*
X25289164Y-81335771D01*
X25289164Y-81335771D02*
X25384402Y-81288152D01*
X25384402Y-81288152D02*
X25479640Y-81288152D01*
X26241545Y-81954819D02*
X26241545Y-80954819D01*
X26241545Y-81907200D02*
X26146307Y-81954819D01*
X26146307Y-81954819D02*
X25955831Y-81954819D01*
X25955831Y-81954819D02*
X25860593Y-81907200D01*
X25860593Y-81907200D02*
X25812974Y-81859580D01*
X25812974Y-81859580D02*
X25765355Y-81764342D01*
X25765355Y-81764342D02*
X25765355Y-81478628D01*
X25765355Y-81478628D02*
X25812974Y-81383390D01*
X25812974Y-81383390D02*
X25860593Y-81335771D01*
X25860593Y-81335771D02*
X25955831Y-81288152D01*
X25955831Y-81288152D02*
X26146307Y-81288152D01*
X26146307Y-81288152D02*
X26241545Y-81335771D01*
X27479641Y-81954819D02*
X27479641Y-81288152D01*
X27479641Y-81478628D02*
X27527260Y-81383390D01*
X27527260Y-81383390D02*
X27574879Y-81335771D01*
X27574879Y-81335771D02*
X27670117Y-81288152D01*
X27670117Y-81288152D02*
X27765355Y-81288152D01*
X28479641Y-81907200D02*
X28384403Y-81954819D01*
X28384403Y-81954819D02*
X28193927Y-81954819D01*
X28193927Y-81954819D02*
X28098689Y-81907200D01*
X28098689Y-81907200D02*
X28051070Y-81811961D01*
X28051070Y-81811961D02*
X28051070Y-81431009D01*
X28051070Y-81431009D02*
X28098689Y-81335771D01*
X28098689Y-81335771D02*
X28193927Y-81288152D01*
X28193927Y-81288152D02*
X28384403Y-81288152D01*
X28384403Y-81288152D02*
X28479641Y-81335771D01*
X28479641Y-81335771D02*
X28527260Y-81431009D01*
X28527260Y-81431009D02*
X28527260Y-81526247D01*
X28527260Y-81526247D02*
X28051070Y-81621485D01*
X28860594Y-81288152D02*
X29098689Y-81954819D01*
X29098689Y-81954819D02*
X29336784Y-81288152D01*
X31003451Y-81954819D02*
X30432023Y-81954819D01*
X30717737Y-81954819D02*
X30717737Y-80954819D01*
X30717737Y-80954819D02*
X30622499Y-81097676D01*
X30622499Y-81097676D02*
X30527261Y-81192914D01*
X30527261Y-81192914D02*
X30432023Y-81240533D01*
X31432023Y-81859580D02*
X31479642Y-81907200D01*
X31479642Y-81907200D02*
X31432023Y-81954819D01*
X31432023Y-81954819D02*
X31384404Y-81907200D01*
X31384404Y-81907200D02*
X31432023Y-81859580D01*
X31432023Y-81859580D02*
X31432023Y-81954819D01*
X32098689Y-80954819D02*
X32193927Y-80954819D01*
X32193927Y-80954819D02*
X32289165Y-81002438D01*
X32289165Y-81002438D02*
X32336784Y-81050057D01*
X32336784Y-81050057D02*
X32384403Y-81145295D01*
X32384403Y-81145295D02*
X32432022Y-81335771D01*
X32432022Y-81335771D02*
X32432022Y-81573866D01*
X32432022Y-81573866D02*
X32384403Y-81764342D01*
X32384403Y-81764342D02*
X32336784Y-81859580D01*
X32336784Y-81859580D02*
X32289165Y-81907200D01*
X32289165Y-81907200D02*
X32193927Y-81954819D01*
X32193927Y-81954819D02*
X32098689Y-81954819D01*
X32098689Y-81954819D02*
X32003451Y-81907200D01*
X32003451Y-81907200D02*
X31955832Y-81859580D01*
X31955832Y-81859580D02*
X31908213Y-81764342D01*
X31908213Y-81764342D02*
X31860594Y-81573866D01*
X31860594Y-81573866D02*
X31860594Y-81335771D01*
X31860594Y-81335771D02*
X31908213Y-81145295D01*
X31908213Y-81145295D02*
X31955832Y-81050057D01*
X31955832Y-81050057D02*
X32003451Y-81002438D01*
X32003451Y-81002438D02*
X32098689Y-80954819D01*
D10*
X16894266Y-52400300D02*
X16370456Y-52400300D01*
X16370456Y-52400300D02*
X16318075Y-52924110D01*
X16318075Y-52924110D02*
X16370456Y-52871729D01*
X16370456Y-52871729D02*
X16475218Y-52819348D01*
X16475218Y-52819348D02*
X16737123Y-52819348D01*
X16737123Y-52819348D02*
X16841885Y-52871729D01*
X16841885Y-52871729D02*
X16894266Y-52924110D01*
X16894266Y-52924110D02*
X16946647Y-53028872D01*
X16946647Y-53028872D02*
X16946647Y-53290777D01*
X16946647Y-53290777D02*
X16894266Y-53395539D01*
X16894266Y-53395539D02*
X16841885Y-53447920D01*
X16841885Y-53447920D02*
X16737123Y-53500300D01*
X16737123Y-53500300D02*
X16475218Y-53500300D01*
X16475218Y-53500300D02*
X16370456Y-53447920D01*
X16370456Y-53447920D02*
X16318075Y-53395539D01*
X17260932Y-52400300D02*
X17627599Y-53500300D01*
X17627599Y-53500300D02*
X17994266Y-52400300D01*
X19199027Y-53500300D02*
X19199027Y-52400300D01*
X19722837Y-53500300D02*
X19722837Y-52400300D01*
X19722837Y-52400300D02*
X20351409Y-53500300D01*
X20351409Y-53500300D02*
X20351409Y-52400300D01*
D11*
X12360588Y-33662438D02*
X12265350Y-33614819D01*
X12265350Y-33614819D02*
X12122493Y-33614819D01*
X12122493Y-33614819D02*
X11979636Y-33662438D01*
X11979636Y-33662438D02*
X11884398Y-33757676D01*
X11884398Y-33757676D02*
X11836779Y-33852914D01*
X11836779Y-33852914D02*
X11789160Y-34043390D01*
X11789160Y-34043390D02*
X11789160Y-34186247D01*
X11789160Y-34186247D02*
X11836779Y-34376723D01*
X11836779Y-34376723D02*
X11884398Y-34471961D01*
X11884398Y-34471961D02*
X11979636Y-34567200D01*
X11979636Y-34567200D02*
X12122493Y-34614819D01*
X12122493Y-34614819D02*
X12217731Y-34614819D01*
X12217731Y-34614819D02*
X12360588Y-34567200D01*
X12360588Y-34567200D02*
X12408207Y-34519580D01*
X12408207Y-34519580D02*
X12408207Y-34186247D01*
X12408207Y-34186247D02*
X12217731Y-34186247D01*
X12836779Y-34614819D02*
X12836779Y-33614819D01*
X12836779Y-33614819D02*
X13217731Y-33614819D01*
X13217731Y-33614819D02*
X13312969Y-33662438D01*
X13312969Y-33662438D02*
X13360588Y-33710057D01*
X13360588Y-33710057D02*
X13408207Y-33805295D01*
X13408207Y-33805295D02*
X13408207Y-33948152D01*
X13408207Y-33948152D02*
X13360588Y-34043390D01*
X13360588Y-34043390D02*
X13312969Y-34091009D01*
X13312969Y-34091009D02*
X13217731Y-34138628D01*
X13217731Y-34138628D02*
X12836779Y-34138628D01*
X13836779Y-34614819D02*
X13836779Y-33614819D01*
X14503445Y-33614819D02*
X14693921Y-33614819D01*
X14693921Y-33614819D02*
X14789159Y-33662438D01*
X14789159Y-33662438D02*
X14884397Y-33757676D01*
X14884397Y-33757676D02*
X14932016Y-33948152D01*
X14932016Y-33948152D02*
X14932016Y-34281485D01*
X14932016Y-34281485D02*
X14884397Y-34471961D01*
X14884397Y-34471961D02*
X14789159Y-34567200D01*
X14789159Y-34567200D02*
X14693921Y-34614819D01*
X14693921Y-34614819D02*
X14503445Y-34614819D01*
X14503445Y-34614819D02*
X14408207Y-34567200D01*
X14408207Y-34567200D02*
X14312969Y-34471961D01*
X14312969Y-34471961D02*
X14265350Y-34281485D01*
X14265350Y-34281485D02*
X14265350Y-33948152D01*
X14265350Y-33948152D02*
X14312969Y-33757676D01*
X14312969Y-33757676D02*
X14408207Y-33662438D01*
X14408207Y-33662438D02*
X14503445Y-33614819D01*
X15884397Y-34614819D02*
X15312969Y-34614819D01*
X15598683Y-34614819D02*
X15598683Y-33614819D01*
X15598683Y-33614819D02*
X15503445Y-33757676D01*
X15503445Y-33757676D02*
X15408207Y-33852914D01*
X15408207Y-33852914D02*
X15312969Y-33900533D01*
X16265350Y-33710057D02*
X16312969Y-33662438D01*
X16312969Y-33662438D02*
X16408207Y-33614819D01*
X16408207Y-33614819D02*
X16646302Y-33614819D01*
X16646302Y-33614819D02*
X16741540Y-33662438D01*
X16741540Y-33662438D02*
X16789159Y-33710057D01*
X16789159Y-33710057D02*
X16836778Y-33805295D01*
X16836778Y-33805295D02*
X16836778Y-33900533D01*
X16836778Y-33900533D02*
X16789159Y-34043390D01*
X16789159Y-34043390D02*
X16217731Y-34614819D01*
X16217731Y-34614819D02*
X16836778Y-34614819D01*
X5765350Y-72407200D02*
X5670112Y-72454819D01*
X5670112Y-72454819D02*
X5479636Y-72454819D01*
X5479636Y-72454819D02*
X5384398Y-72407200D01*
X5384398Y-72407200D02*
X5336779Y-72359580D01*
X5336779Y-72359580D02*
X5289160Y-72264342D01*
X5289160Y-72264342D02*
X5289160Y-71978628D01*
X5289160Y-71978628D02*
X5336779Y-71883390D01*
X5336779Y-71883390D02*
X5384398Y-71835771D01*
X5384398Y-71835771D02*
X5479636Y-71788152D01*
X5479636Y-71788152D02*
X5670112Y-71788152D01*
X5670112Y-71788152D02*
X5765350Y-71835771D01*
X6193922Y-72454819D02*
X6193922Y-71454819D01*
X6622493Y-72454819D02*
X6622493Y-71931009D01*
X6622493Y-71931009D02*
X6574874Y-71835771D01*
X6574874Y-71835771D02*
X6479636Y-71788152D01*
X6479636Y-71788152D02*
X6336779Y-71788152D01*
X6336779Y-71788152D02*
X6241541Y-71835771D01*
X6241541Y-71835771D02*
X6193922Y-71883390D01*
X7479636Y-72407200D02*
X7384398Y-72454819D01*
X7384398Y-72454819D02*
X7193922Y-72454819D01*
X7193922Y-72454819D02*
X7098684Y-72407200D01*
X7098684Y-72407200D02*
X7051065Y-72311961D01*
X7051065Y-72311961D02*
X7051065Y-71931009D01*
X7051065Y-71931009D02*
X7098684Y-71835771D01*
X7098684Y-71835771D02*
X7193922Y-71788152D01*
X7193922Y-71788152D02*
X7384398Y-71788152D01*
X7384398Y-71788152D02*
X7479636Y-71835771D01*
X7479636Y-71835771D02*
X7527255Y-71931009D01*
X7527255Y-71931009D02*
X7527255Y-72026247D01*
X7527255Y-72026247D02*
X7051065Y-72121485D01*
X8384398Y-72407200D02*
X8289160Y-72454819D01*
X8289160Y-72454819D02*
X8098684Y-72454819D01*
X8098684Y-72454819D02*
X8003446Y-72407200D01*
X8003446Y-72407200D02*
X7955827Y-72359580D01*
X7955827Y-72359580D02*
X7908208Y-72264342D01*
X7908208Y-72264342D02*
X7908208Y-71978628D01*
X7908208Y-71978628D02*
X7955827Y-71883390D01*
X7955827Y-71883390D02*
X8003446Y-71835771D01*
X8003446Y-71835771D02*
X8098684Y-71788152D01*
X8098684Y-71788152D02*
X8289160Y-71788152D01*
X8289160Y-71788152D02*
X8384398Y-71835771D01*
X8812970Y-72454819D02*
X8812970Y-71454819D01*
X8908208Y-72073866D02*
X9193922Y-72454819D01*
X9193922Y-71788152D02*
X8812970Y-72169104D01*
X10717732Y-71931009D02*
X10384399Y-71931009D01*
X10384399Y-72454819D02*
X10384399Y-71454819D01*
X10384399Y-71454819D02*
X10860589Y-71454819D01*
X11241542Y-72454819D02*
X11241542Y-71788152D01*
X11241542Y-71454819D02*
X11193923Y-71502438D01*
X11193923Y-71502438D02*
X11241542Y-71550057D01*
X11241542Y-71550057D02*
X11289161Y-71502438D01*
X11289161Y-71502438D02*
X11241542Y-71454819D01*
X11241542Y-71454819D02*
X11241542Y-71550057D01*
X11574875Y-71788152D02*
X11955827Y-71788152D01*
X11717732Y-71454819D02*
X11717732Y-72311961D01*
X11717732Y-72311961D02*
X11765351Y-72407200D01*
X11765351Y-72407200D02*
X11860589Y-72454819D01*
X11860589Y-72454819D02*
X11955827Y-72454819D01*
X12860589Y-72359580D02*
X12812970Y-72407200D01*
X12812970Y-72407200D02*
X12670113Y-72454819D01*
X12670113Y-72454819D02*
X12574875Y-72454819D01*
X12574875Y-72454819D02*
X12432018Y-72407200D01*
X12432018Y-72407200D02*
X12336780Y-72311961D01*
X12336780Y-72311961D02*
X12289161Y-72216723D01*
X12289161Y-72216723D02*
X12241542Y-72026247D01*
X12241542Y-72026247D02*
X12241542Y-71883390D01*
X12241542Y-71883390D02*
X12289161Y-71692914D01*
X12289161Y-71692914D02*
X12336780Y-71597676D01*
X12336780Y-71597676D02*
X12432018Y-71502438D01*
X12432018Y-71502438D02*
X12574875Y-71454819D01*
X12574875Y-71454819D02*
X12670113Y-71454819D01*
X12670113Y-71454819D02*
X12812970Y-71502438D01*
X12812970Y-71502438D02*
X12860589Y-71550057D01*
X13289161Y-72454819D02*
X13289161Y-71454819D01*
X13717732Y-72454819D02*
X13717732Y-71931009D01*
X13717732Y-71931009D02*
X13670113Y-71835771D01*
X13670113Y-71835771D02*
X13574875Y-71788152D01*
X13574875Y-71788152D02*
X13432018Y-71788152D01*
X13432018Y-71788152D02*
X13336780Y-71835771D01*
X13336780Y-71835771D02*
X13289161Y-71883390D01*
X14574875Y-72407200D02*
X14479637Y-72454819D01*
X14479637Y-72454819D02*
X14289161Y-72454819D01*
X14289161Y-72454819D02*
X14193923Y-72407200D01*
X14193923Y-72407200D02*
X14146304Y-72311961D01*
X14146304Y-72311961D02*
X14146304Y-71931009D01*
X14146304Y-71931009D02*
X14193923Y-71835771D01*
X14193923Y-71835771D02*
X14289161Y-71788152D01*
X14289161Y-71788152D02*
X14479637Y-71788152D01*
X14479637Y-71788152D02*
X14574875Y-71835771D01*
X14574875Y-71835771D02*
X14622494Y-71931009D01*
X14622494Y-71931009D02*
X14622494Y-72026247D01*
X14622494Y-72026247D02*
X14146304Y-72121485D01*
X15479637Y-72407200D02*
X15384399Y-72454819D01*
X15384399Y-72454819D02*
X15193923Y-72454819D01*
X15193923Y-72454819D02*
X15098685Y-72407200D01*
X15098685Y-72407200D02*
X15051066Y-72359580D01*
X15051066Y-72359580D02*
X15003447Y-72264342D01*
X15003447Y-72264342D02*
X15003447Y-71978628D01*
X15003447Y-71978628D02*
X15051066Y-71883390D01*
X15051066Y-71883390D02*
X15098685Y-71835771D01*
X15098685Y-71835771D02*
X15193923Y-71788152D01*
X15193923Y-71788152D02*
X15384399Y-71788152D01*
X15384399Y-71788152D02*
X15479637Y-71835771D01*
X15908209Y-72454819D02*
X15908209Y-71454819D01*
X16003447Y-72073866D02*
X16289161Y-72454819D01*
X16289161Y-71788152D02*
X15908209Y-72169104D01*
X16717733Y-72359580D02*
X16765352Y-72407200D01*
X16765352Y-72407200D02*
X16717733Y-72454819D01*
X16717733Y-72454819D02*
X16670114Y-72407200D01*
X16670114Y-72407200D02*
X16717733Y-72359580D01*
X16717733Y-72359580D02*
X16717733Y-72454819D01*
X17193923Y-71788152D02*
X17193923Y-72788152D01*
X17193923Y-71835771D02*
X17289161Y-71788152D01*
X17289161Y-71788152D02*
X17479637Y-71788152D01*
X17479637Y-71788152D02*
X17574875Y-71835771D01*
X17574875Y-71835771D02*
X17622494Y-71883390D01*
X17622494Y-71883390D02*
X17670113Y-71978628D01*
X17670113Y-71978628D02*
X17670113Y-72264342D01*
X17670113Y-72264342D02*
X17622494Y-72359580D01*
X17622494Y-72359580D02*
X17574875Y-72407200D01*
X17574875Y-72407200D02*
X17479637Y-72454819D01*
X17479637Y-72454819D02*
X17289161Y-72454819D01*
X17289161Y-72454819D02*
X17193923Y-72407200D01*
X18527256Y-72454819D02*
X18527256Y-71454819D01*
X18527256Y-72407200D02*
X18432018Y-72454819D01*
X18432018Y-72454819D02*
X18241542Y-72454819D01*
X18241542Y-72454819D02*
X18146304Y-72407200D01*
X18146304Y-72407200D02*
X18098685Y-72359580D01*
X18098685Y-72359580D02*
X18051066Y-72264342D01*
X18051066Y-72264342D02*
X18051066Y-71978628D01*
X18051066Y-71978628D02*
X18098685Y-71883390D01*
X18098685Y-71883390D02*
X18146304Y-71835771D01*
X18146304Y-71835771D02*
X18241542Y-71788152D01*
X18241542Y-71788152D02*
X18432018Y-71788152D01*
X18432018Y-71788152D02*
X18527256Y-71835771D01*
X18860590Y-71788152D02*
X19241542Y-71788152D01*
X19003447Y-72454819D02*
X19003447Y-71597676D01*
X19003447Y-71597676D02*
X19051066Y-71502438D01*
X19051066Y-71502438D02*
X19146304Y-71454819D01*
X19146304Y-71454819D02*
X19241542Y-71454819D01*
X20765352Y-72454819D02*
X20765352Y-71931009D01*
X20765352Y-71931009D02*
X20717733Y-71835771D01*
X20717733Y-71835771D02*
X20622495Y-71788152D01*
X20622495Y-71788152D02*
X20432019Y-71788152D01*
X20432019Y-71788152D02*
X20336781Y-71835771D01*
X20765352Y-72407200D02*
X20670114Y-72454819D01*
X20670114Y-72454819D02*
X20432019Y-72454819D01*
X20432019Y-72454819D02*
X20336781Y-72407200D01*
X20336781Y-72407200D02*
X20289162Y-72311961D01*
X20289162Y-72311961D02*
X20289162Y-72216723D01*
X20289162Y-72216723D02*
X20336781Y-72121485D01*
X20336781Y-72121485D02*
X20432019Y-72073866D01*
X20432019Y-72073866D02*
X20670114Y-72073866D01*
X20670114Y-72073866D02*
X20765352Y-72026247D01*
X21098686Y-71788152D02*
X21479638Y-71788152D01*
X21241543Y-71454819D02*
X21241543Y-72311961D01*
X21241543Y-72311961D02*
X21289162Y-72407200D01*
X21289162Y-72407200D02*
X21384400Y-72454819D01*
X21384400Y-72454819D02*
X21479638Y-72454819D01*
X23098686Y-72454819D02*
X22527258Y-72454819D01*
X22812972Y-72454819D02*
X22812972Y-71454819D01*
X22812972Y-71454819D02*
X22717734Y-71597676D01*
X22717734Y-71597676D02*
X22622496Y-71692914D01*
X22622496Y-71692914D02*
X22527258Y-71740533D01*
X23717734Y-71454819D02*
X23812972Y-71454819D01*
X23812972Y-71454819D02*
X23908210Y-71502438D01*
X23908210Y-71502438D02*
X23955829Y-71550057D01*
X23955829Y-71550057D02*
X24003448Y-71645295D01*
X24003448Y-71645295D02*
X24051067Y-71835771D01*
X24051067Y-71835771D02*
X24051067Y-72073866D01*
X24051067Y-72073866D02*
X24003448Y-72264342D01*
X24003448Y-72264342D02*
X23955829Y-72359580D01*
X23955829Y-72359580D02*
X23908210Y-72407200D01*
X23908210Y-72407200D02*
X23812972Y-72454819D01*
X23812972Y-72454819D02*
X23717734Y-72454819D01*
X23717734Y-72454819D02*
X23622496Y-72407200D01*
X23622496Y-72407200D02*
X23574877Y-72359580D01*
X23574877Y-72359580D02*
X23527258Y-72264342D01*
X23527258Y-72264342D02*
X23479639Y-72073866D01*
X23479639Y-72073866D02*
X23479639Y-71835771D01*
X23479639Y-71835771D02*
X23527258Y-71645295D01*
X23527258Y-71645295D02*
X23574877Y-71550057D01*
X23574877Y-71550057D02*
X23622496Y-71502438D01*
X23622496Y-71502438D02*
X23717734Y-71454819D01*
X24670115Y-71454819D02*
X24765353Y-71454819D01*
X24765353Y-71454819D02*
X24860591Y-71502438D01*
X24860591Y-71502438D02*
X24908210Y-71550057D01*
X24908210Y-71550057D02*
X24955829Y-71645295D01*
X24955829Y-71645295D02*
X25003448Y-71835771D01*
X25003448Y-71835771D02*
X25003448Y-72073866D01*
X25003448Y-72073866D02*
X24955829Y-72264342D01*
X24955829Y-72264342D02*
X24908210Y-72359580D01*
X24908210Y-72359580D02*
X24860591Y-72407200D01*
X24860591Y-72407200D02*
X24765353Y-72454819D01*
X24765353Y-72454819D02*
X24670115Y-72454819D01*
X24670115Y-72454819D02*
X24574877Y-72407200D01*
X24574877Y-72407200D02*
X24527258Y-72359580D01*
X24527258Y-72359580D02*
X24479639Y-72264342D01*
X24479639Y-72264342D02*
X24432020Y-72073866D01*
X24432020Y-72073866D02*
X24432020Y-71835771D01*
X24432020Y-71835771D02*
X24479639Y-71645295D01*
X24479639Y-71645295D02*
X24527258Y-71550057D01*
X24527258Y-71550057D02*
X24574877Y-71502438D01*
X24574877Y-71502438D02*
X24670115Y-71454819D01*
X25384401Y-72454819D02*
X26146305Y-71454819D01*
X25527258Y-71454819D02*
X25622496Y-71502438D01*
X25622496Y-71502438D02*
X25670115Y-71597676D01*
X25670115Y-71597676D02*
X25622496Y-71692914D01*
X25622496Y-71692914D02*
X25527258Y-71740533D01*
X25527258Y-71740533D02*
X25432020Y-71692914D01*
X25432020Y-71692914D02*
X25384401Y-71597676D01*
X25384401Y-71597676D02*
X25432020Y-71502438D01*
X25432020Y-71502438D02*
X25527258Y-71454819D01*
X26098686Y-72407200D02*
X26146305Y-72311961D01*
X26146305Y-72311961D02*
X26098686Y-72216723D01*
X26098686Y-72216723D02*
X26003448Y-72169104D01*
X26003448Y-72169104D02*
X25908210Y-72216723D01*
X25908210Y-72216723D02*
X25860591Y-72311961D01*
X25860591Y-72311961D02*
X25908210Y-72407200D01*
X25908210Y-72407200D02*
X26003448Y-72454819D01*
X26003448Y-72454819D02*
X26098686Y-72407200D01*
X27289163Y-72407200D02*
X27384401Y-72454819D01*
X27384401Y-72454819D02*
X27574877Y-72454819D01*
X27574877Y-72454819D02*
X27670115Y-72407200D01*
X27670115Y-72407200D02*
X27717734Y-72311961D01*
X27717734Y-72311961D02*
X27717734Y-72264342D01*
X27717734Y-72264342D02*
X27670115Y-72169104D01*
X27670115Y-72169104D02*
X27574877Y-72121485D01*
X27574877Y-72121485D02*
X27432020Y-72121485D01*
X27432020Y-72121485D02*
X27336782Y-72073866D01*
X27336782Y-72073866D02*
X27289163Y-71978628D01*
X27289163Y-71978628D02*
X27289163Y-71931009D01*
X27289163Y-71931009D02*
X27336782Y-71835771D01*
X27336782Y-71835771D02*
X27432020Y-71788152D01*
X27432020Y-71788152D02*
X27574877Y-71788152D01*
X27574877Y-71788152D02*
X27670115Y-71835771D01*
X28574877Y-72407200D02*
X28479639Y-72454819D01*
X28479639Y-72454819D02*
X28289163Y-72454819D01*
X28289163Y-72454819D02*
X28193925Y-72407200D01*
X28193925Y-72407200D02*
X28146306Y-72359580D01*
X28146306Y-72359580D02*
X28098687Y-72264342D01*
X28098687Y-72264342D02*
X28098687Y-71978628D01*
X28098687Y-71978628D02*
X28146306Y-71883390D01*
X28146306Y-71883390D02*
X28193925Y-71835771D01*
X28193925Y-71835771D02*
X28289163Y-71788152D01*
X28289163Y-71788152D02*
X28479639Y-71788152D01*
X28479639Y-71788152D02*
X28574877Y-71835771D01*
X29432020Y-72454819D02*
X29432020Y-71931009D01*
X29432020Y-71931009D02*
X29384401Y-71835771D01*
X29384401Y-71835771D02*
X29289163Y-71788152D01*
X29289163Y-71788152D02*
X29098687Y-71788152D01*
X29098687Y-71788152D02*
X29003449Y-71835771D01*
X29432020Y-72407200D02*
X29336782Y-72454819D01*
X29336782Y-72454819D02*
X29098687Y-72454819D01*
X29098687Y-72454819D02*
X29003449Y-72407200D01*
X29003449Y-72407200D02*
X28955830Y-72311961D01*
X28955830Y-72311961D02*
X28955830Y-72216723D01*
X28955830Y-72216723D02*
X29003449Y-72121485D01*
X29003449Y-72121485D02*
X29098687Y-72073866D01*
X29098687Y-72073866D02*
X29336782Y-72073866D01*
X29336782Y-72073866D02*
X29432020Y-72026247D01*
X30051068Y-72454819D02*
X29955830Y-72407200D01*
X29955830Y-72407200D02*
X29908211Y-72311961D01*
X29908211Y-72311961D02*
X29908211Y-71454819D01*
X30812973Y-72407200D02*
X30717735Y-72454819D01*
X30717735Y-72454819D02*
X30527259Y-72454819D01*
X30527259Y-72454819D02*
X30432021Y-72407200D01*
X30432021Y-72407200D02*
X30384402Y-72311961D01*
X30384402Y-72311961D02*
X30384402Y-71931009D01*
X30384402Y-71931009D02*
X30432021Y-71835771D01*
X30432021Y-71835771D02*
X30527259Y-71788152D01*
X30527259Y-71788152D02*
X30717735Y-71788152D01*
X30717735Y-71788152D02*
X30812973Y-71835771D01*
X30812973Y-71835771D02*
X30860592Y-71931009D01*
X30860592Y-71931009D02*
X30860592Y-72026247D01*
X30860592Y-72026247D02*
X30384402Y-72121485D01*
X32051069Y-72454819D02*
X32051069Y-71454819D01*
X32051069Y-71835771D02*
X32146307Y-71788152D01*
X32146307Y-71788152D02*
X32336783Y-71788152D01*
X32336783Y-71788152D02*
X32432021Y-71835771D01*
X32432021Y-71835771D02*
X32479640Y-71883390D01*
X32479640Y-71883390D02*
X32527259Y-71978628D01*
X32527259Y-71978628D02*
X32527259Y-72264342D01*
X32527259Y-72264342D02*
X32479640Y-72359580D01*
X32479640Y-72359580D02*
X32432021Y-72407200D01*
X32432021Y-72407200D02*
X32336783Y-72454819D01*
X32336783Y-72454819D02*
X32146307Y-72454819D01*
X32146307Y-72454819D02*
X32051069Y-72407200D01*
X33336783Y-72407200D02*
X33241545Y-72454819D01*
X33241545Y-72454819D02*
X33051069Y-72454819D01*
X33051069Y-72454819D02*
X32955831Y-72407200D01*
X32955831Y-72407200D02*
X32908212Y-72311961D01*
X32908212Y-72311961D02*
X32908212Y-71931009D01*
X32908212Y-71931009D02*
X32955831Y-71835771D01*
X32955831Y-71835771D02*
X33051069Y-71788152D01*
X33051069Y-71788152D02*
X33241545Y-71788152D01*
X33241545Y-71788152D02*
X33336783Y-71835771D01*
X33336783Y-71835771D02*
X33384402Y-71931009D01*
X33384402Y-71931009D02*
X33384402Y-72026247D01*
X33384402Y-72026247D02*
X32908212Y-72121485D01*
X33670117Y-71788152D02*
X34051069Y-71788152D01*
X33812974Y-72454819D02*
X33812974Y-71597676D01*
X33812974Y-71597676D02*
X33860593Y-71502438D01*
X33860593Y-71502438D02*
X33955831Y-71454819D01*
X33955831Y-71454819D02*
X34051069Y-71454819D01*
X34527260Y-72454819D02*
X34432022Y-72407200D01*
X34432022Y-72407200D02*
X34384403Y-72359580D01*
X34384403Y-72359580D02*
X34336784Y-72264342D01*
X34336784Y-72264342D02*
X34336784Y-71978628D01*
X34336784Y-71978628D02*
X34384403Y-71883390D01*
X34384403Y-71883390D02*
X34432022Y-71835771D01*
X34432022Y-71835771D02*
X34527260Y-71788152D01*
X34527260Y-71788152D02*
X34670117Y-71788152D01*
X34670117Y-71788152D02*
X34765355Y-71835771D01*
X34765355Y-71835771D02*
X34812974Y-71883390D01*
X34812974Y-71883390D02*
X34860593Y-71978628D01*
X34860593Y-71978628D02*
X34860593Y-72264342D01*
X34860593Y-72264342D02*
X34812974Y-72359580D01*
X34812974Y-72359580D02*
X34765355Y-72407200D01*
X34765355Y-72407200D02*
X34670117Y-72454819D01*
X34670117Y-72454819D02*
X34527260Y-72454819D01*
X35289165Y-72454819D02*
X35289165Y-71788152D01*
X35289165Y-71978628D02*
X35336784Y-71883390D01*
X35336784Y-71883390D02*
X35384403Y-71835771D01*
X35384403Y-71835771D02*
X35479641Y-71788152D01*
X35479641Y-71788152D02*
X35574879Y-71788152D01*
X36289165Y-72407200D02*
X36193927Y-72454819D01*
X36193927Y-72454819D02*
X36003451Y-72454819D01*
X36003451Y-72454819D02*
X35908213Y-72407200D01*
X35908213Y-72407200D02*
X35860594Y-72311961D01*
X35860594Y-72311961D02*
X35860594Y-71931009D01*
X35860594Y-71931009D02*
X35908213Y-71835771D01*
X35908213Y-71835771D02*
X36003451Y-71788152D01*
X36003451Y-71788152D02*
X36193927Y-71788152D01*
X36193927Y-71788152D02*
X36289165Y-71835771D01*
X36289165Y-71835771D02*
X36336784Y-71931009D01*
X36336784Y-71931009D02*
X36336784Y-72026247D01*
X36336784Y-72026247D02*
X35860594Y-72121485D01*
X37670118Y-72454819D02*
X37574880Y-72407200D01*
X37574880Y-72407200D02*
X37527261Y-72359580D01*
X37527261Y-72359580D02*
X37479642Y-72264342D01*
X37479642Y-72264342D02*
X37479642Y-71978628D01*
X37479642Y-71978628D02*
X37527261Y-71883390D01*
X37527261Y-71883390D02*
X37574880Y-71835771D01*
X37574880Y-71835771D02*
X37670118Y-71788152D01*
X37670118Y-71788152D02*
X37812975Y-71788152D01*
X37812975Y-71788152D02*
X37908213Y-71835771D01*
X37908213Y-71835771D02*
X37955832Y-71883390D01*
X37955832Y-71883390D02*
X38003451Y-71978628D01*
X38003451Y-71978628D02*
X38003451Y-72264342D01*
X38003451Y-72264342D02*
X37955832Y-72359580D01*
X37955832Y-72359580D02*
X37908213Y-72407200D01*
X37908213Y-72407200D02*
X37812975Y-72454819D01*
X37812975Y-72454819D02*
X37670118Y-72454819D01*
X38432023Y-72454819D02*
X38432023Y-71788152D01*
X38432023Y-71978628D02*
X38479642Y-71883390D01*
X38479642Y-71883390D02*
X38527261Y-71835771D01*
X38527261Y-71835771D02*
X38622499Y-71788152D01*
X38622499Y-71788152D02*
X38717737Y-71788152D01*
X39479642Y-72454819D02*
X39479642Y-71454819D01*
X39479642Y-72407200D02*
X39384404Y-72454819D01*
X39384404Y-72454819D02*
X39193928Y-72454819D01*
X39193928Y-72454819D02*
X39098690Y-72407200D01*
X39098690Y-72407200D02*
X39051071Y-72359580D01*
X39051071Y-72359580D02*
X39003452Y-72264342D01*
X39003452Y-72264342D02*
X39003452Y-71978628D01*
X39003452Y-71978628D02*
X39051071Y-71883390D01*
X39051071Y-71883390D02*
X39098690Y-71835771D01*
X39098690Y-71835771D02*
X39193928Y-71788152D01*
X39193928Y-71788152D02*
X39384404Y-71788152D01*
X39384404Y-71788152D02*
X39479642Y-71835771D01*
X40336785Y-72407200D02*
X40241547Y-72454819D01*
X40241547Y-72454819D02*
X40051071Y-72454819D01*
X40051071Y-72454819D02*
X39955833Y-72407200D01*
X39955833Y-72407200D02*
X39908214Y-72311961D01*
X39908214Y-72311961D02*
X39908214Y-71931009D01*
X39908214Y-71931009D02*
X39955833Y-71835771D01*
X39955833Y-71835771D02*
X40051071Y-71788152D01*
X40051071Y-71788152D02*
X40241547Y-71788152D01*
X40241547Y-71788152D02*
X40336785Y-71835771D01*
X40336785Y-71835771D02*
X40384404Y-71931009D01*
X40384404Y-71931009D02*
X40384404Y-72026247D01*
X40384404Y-72026247D02*
X39908214Y-72121485D01*
X40812976Y-72454819D02*
X40812976Y-71788152D01*
X40812976Y-71978628D02*
X40860595Y-71883390D01*
X40860595Y-71883390D02*
X40908214Y-71835771D01*
X40908214Y-71835771D02*
X41003452Y-71788152D01*
X41003452Y-71788152D02*
X41098690Y-71788152D01*
X41432024Y-72454819D02*
X41432024Y-71788152D01*
X41432024Y-71454819D02*
X41384405Y-71502438D01*
X41384405Y-71502438D02*
X41432024Y-71550057D01*
X41432024Y-71550057D02*
X41479643Y-71502438D01*
X41479643Y-71502438D02*
X41432024Y-71454819D01*
X41432024Y-71454819D02*
X41432024Y-71550057D01*
X41908214Y-71788152D02*
X41908214Y-72454819D01*
X41908214Y-71883390D02*
X41955833Y-71835771D01*
X41955833Y-71835771D02*
X42051071Y-71788152D01*
X42051071Y-71788152D02*
X42193928Y-71788152D01*
X42193928Y-71788152D02*
X42289166Y-71835771D01*
X42289166Y-71835771D02*
X42336785Y-71931009D01*
X42336785Y-71931009D02*
X42336785Y-72454819D01*
X43241547Y-71788152D02*
X43241547Y-72597676D01*
X43241547Y-72597676D02*
X43193928Y-72692914D01*
X43193928Y-72692914D02*
X43146309Y-72740533D01*
X43146309Y-72740533D02*
X43051071Y-72788152D01*
X43051071Y-72788152D02*
X42908214Y-72788152D01*
X42908214Y-72788152D02*
X42812976Y-72740533D01*
X43241547Y-72407200D02*
X43146309Y-72454819D01*
X43146309Y-72454819D02*
X42955833Y-72454819D01*
X42955833Y-72454819D02*
X42860595Y-72407200D01*
X42860595Y-72407200D02*
X42812976Y-72359580D01*
X42812976Y-72359580D02*
X42765357Y-72264342D01*
X42765357Y-72264342D02*
X42765357Y-71978628D01*
X42765357Y-71978628D02*
X42812976Y-71883390D01*
X42812976Y-71883390D02*
X42860595Y-71835771D01*
X42860595Y-71835771D02*
X42955833Y-71788152D01*
X42955833Y-71788152D02*
X43146309Y-71788152D01*
X43146309Y-71788152D02*
X43241547Y-71835771D01*
X43100588Y-36202438D02*
X43005350Y-36154819D01*
X43005350Y-36154819D02*
X42862493Y-36154819D01*
X42862493Y-36154819D02*
X42719636Y-36202438D01*
X42719636Y-36202438D02*
X42624398Y-36297676D01*
X42624398Y-36297676D02*
X42576779Y-36392914D01*
X42576779Y-36392914D02*
X42529160Y-36583390D01*
X42529160Y-36583390D02*
X42529160Y-36726247D01*
X42529160Y-36726247D02*
X42576779Y-36916723D01*
X42576779Y-36916723D02*
X42624398Y-37011961D01*
X42624398Y-37011961D02*
X42719636Y-37107200D01*
X42719636Y-37107200D02*
X42862493Y-37154819D01*
X42862493Y-37154819D02*
X42957731Y-37154819D01*
X42957731Y-37154819D02*
X43100588Y-37107200D01*
X43100588Y-37107200D02*
X43148207Y-37059580D01*
X43148207Y-37059580D02*
X43148207Y-36726247D01*
X43148207Y-36726247D02*
X42957731Y-36726247D01*
X43576779Y-37154819D02*
X43576779Y-36154819D01*
X43576779Y-36154819D02*
X43957731Y-36154819D01*
X43957731Y-36154819D02*
X44052969Y-36202438D01*
X44052969Y-36202438D02*
X44100588Y-36250057D01*
X44100588Y-36250057D02*
X44148207Y-36345295D01*
X44148207Y-36345295D02*
X44148207Y-36488152D01*
X44148207Y-36488152D02*
X44100588Y-36583390D01*
X44100588Y-36583390D02*
X44052969Y-36631009D01*
X44052969Y-36631009D02*
X43957731Y-36678628D01*
X43957731Y-36678628D02*
X43576779Y-36678628D01*
X44576779Y-37154819D02*
X44576779Y-36154819D01*
X45243445Y-36154819D02*
X45433921Y-36154819D01*
X45433921Y-36154819D02*
X45529159Y-36202438D01*
X45529159Y-36202438D02*
X45624397Y-36297676D01*
X45624397Y-36297676D02*
X45672016Y-36488152D01*
X45672016Y-36488152D02*
X45672016Y-36821485D01*
X45672016Y-36821485D02*
X45624397Y-37011961D01*
X45624397Y-37011961D02*
X45529159Y-37107200D01*
X45529159Y-37107200D02*
X45433921Y-37154819D01*
X45433921Y-37154819D02*
X45243445Y-37154819D01*
X45243445Y-37154819D02*
X45148207Y-37107200D01*
X45148207Y-37107200D02*
X45052969Y-37011961D01*
X45052969Y-37011961D02*
X45005350Y-36821485D01*
X45005350Y-36821485D02*
X45005350Y-36488152D01*
X45005350Y-36488152D02*
X45052969Y-36297676D01*
X45052969Y-36297676D02*
X45148207Y-36202438D01*
X45148207Y-36202438D02*
X45243445Y-36154819D01*
X46005350Y-36154819D02*
X46624397Y-36154819D01*
X46624397Y-36154819D02*
X46291064Y-36535771D01*
X46291064Y-36535771D02*
X46433921Y-36535771D01*
X46433921Y-36535771D02*
X46529159Y-36583390D01*
X46529159Y-36583390D02*
X46576778Y-36631009D01*
X46576778Y-36631009D02*
X46624397Y-36726247D01*
X46624397Y-36726247D02*
X46624397Y-36964342D01*
X46624397Y-36964342D02*
X46576778Y-37059580D01*
X46576778Y-37059580D02*
X46529159Y-37107200D01*
X46529159Y-37107200D02*
X46433921Y-37154819D01*
X46433921Y-37154819D02*
X46148207Y-37154819D01*
X46148207Y-37154819D02*
X46052969Y-37107200D01*
X46052969Y-37107200D02*
X46005350Y-37059580D01*
D13*
X5437812Y-75591264D02*
X5437812Y-74291264D01*
X5437812Y-74291264D02*
X5871146Y-75219836D01*
X5871146Y-75219836D02*
X6304479Y-74291264D01*
X6304479Y-74291264D02*
X6304479Y-75591264D01*
X7171145Y-74291264D02*
X7418764Y-74291264D01*
X7418764Y-74291264D02*
X7542574Y-74353169D01*
X7542574Y-74353169D02*
X7666383Y-74476979D01*
X7666383Y-74476979D02*
X7728288Y-74724598D01*
X7728288Y-74724598D02*
X7728288Y-75157931D01*
X7728288Y-75157931D02*
X7666383Y-75405550D01*
X7666383Y-75405550D02*
X7542574Y-75529360D01*
X7542574Y-75529360D02*
X7418764Y-75591264D01*
X7418764Y-75591264D02*
X7171145Y-75591264D01*
X7171145Y-75591264D02*
X7047336Y-75529360D01*
X7047336Y-75529360D02*
X6923526Y-75405550D01*
X6923526Y-75405550D02*
X6861622Y-75157931D01*
X6861622Y-75157931D02*
X6861622Y-74724598D01*
X6861622Y-74724598D02*
X6923526Y-74476979D01*
X6923526Y-74476979D02*
X7047336Y-74353169D01*
X7047336Y-74353169D02*
X7171145Y-74291264D01*
X8285431Y-75591264D02*
X8285431Y-74291264D01*
X8285431Y-74291264D02*
X8594955Y-74291264D01*
X8594955Y-74291264D02*
X8780669Y-74353169D01*
X8780669Y-74353169D02*
X8904479Y-74476979D01*
X8904479Y-74476979D02*
X8966384Y-74600788D01*
X8966384Y-74600788D02*
X9028288Y-74848407D01*
X9028288Y-74848407D02*
X9028288Y-75034121D01*
X9028288Y-75034121D02*
X8966384Y-75281740D01*
X8966384Y-75281740D02*
X8904479Y-75405550D01*
X8904479Y-75405550D02*
X8780669Y-75529360D01*
X8780669Y-75529360D02*
X8594955Y-75591264D01*
X8594955Y-75591264D02*
X8285431Y-75591264D01*
X9585431Y-74291264D02*
X9585431Y-75343645D01*
X9585431Y-75343645D02*
X9647336Y-75467455D01*
X9647336Y-75467455D02*
X9709241Y-75529360D01*
X9709241Y-75529360D02*
X9833050Y-75591264D01*
X9833050Y-75591264D02*
X10080669Y-75591264D01*
X10080669Y-75591264D02*
X10204479Y-75529360D01*
X10204479Y-75529360D02*
X10266384Y-75467455D01*
X10266384Y-75467455D02*
X10328288Y-75343645D01*
X10328288Y-75343645D02*
X10328288Y-74291264D01*
X11566384Y-75591264D02*
X10947336Y-75591264D01*
X10947336Y-75591264D02*
X10947336Y-74291264D01*
X11999717Y-74910312D02*
X12433051Y-74910312D01*
X12618765Y-75591264D02*
X11999717Y-75591264D01*
X11999717Y-75591264D02*
X11999717Y-74291264D01*
X11999717Y-74291264D02*
X12618765Y-74291264D01*
X14599717Y-74910312D02*
X14166383Y-74910312D01*
X14166383Y-75591264D02*
X14166383Y-74291264D01*
X14166383Y-74291264D02*
X14785431Y-74291264D01*
X15528288Y-74291264D02*
X15775907Y-74291264D01*
X15775907Y-74291264D02*
X15899717Y-74353169D01*
X15899717Y-74353169D02*
X16023526Y-74476979D01*
X16023526Y-74476979D02*
X16085431Y-74724598D01*
X16085431Y-74724598D02*
X16085431Y-75157931D01*
X16085431Y-75157931D02*
X16023526Y-75405550D01*
X16023526Y-75405550D02*
X15899717Y-75529360D01*
X15899717Y-75529360D02*
X15775907Y-75591264D01*
X15775907Y-75591264D02*
X15528288Y-75591264D01*
X15528288Y-75591264D02*
X15404479Y-75529360D01*
X15404479Y-75529360D02*
X15280669Y-75405550D01*
X15280669Y-75405550D02*
X15218765Y-75157931D01*
X15218765Y-75157931D02*
X15218765Y-74724598D01*
X15218765Y-74724598D02*
X15280669Y-74476979D01*
X15280669Y-74476979D02*
X15404479Y-74353169D01*
X15404479Y-74353169D02*
X15528288Y-74291264D01*
X16890193Y-74291264D02*
X17137812Y-74291264D01*
X17137812Y-74291264D02*
X17261622Y-74353169D01*
X17261622Y-74353169D02*
X17385431Y-74476979D01*
X17385431Y-74476979D02*
X17447336Y-74724598D01*
X17447336Y-74724598D02*
X17447336Y-75157931D01*
X17447336Y-75157931D02*
X17385431Y-75405550D01*
X17385431Y-75405550D02*
X17261622Y-75529360D01*
X17261622Y-75529360D02*
X17137812Y-75591264D01*
X17137812Y-75591264D02*
X16890193Y-75591264D01*
X16890193Y-75591264D02*
X16766384Y-75529360D01*
X16766384Y-75529360D02*
X16642574Y-75405550D01*
X16642574Y-75405550D02*
X16580670Y-75157931D01*
X16580670Y-75157931D02*
X16580670Y-74724598D01*
X16580670Y-74724598D02*
X16642574Y-74476979D01*
X16642574Y-74476979D02*
X16766384Y-74353169D01*
X16766384Y-74353169D02*
X16890193Y-74291264D01*
X17818765Y-74291264D02*
X18561622Y-74291264D01*
X18190194Y-75591264D02*
X18190194Y-74291264D01*
X18994955Y-75591264D02*
X18994955Y-74291264D01*
X18994955Y-74291264D02*
X19490193Y-74291264D01*
X19490193Y-74291264D02*
X19614003Y-74353169D01*
X19614003Y-74353169D02*
X19675908Y-74415074D01*
X19675908Y-74415074D02*
X19737812Y-74538883D01*
X19737812Y-74538883D02*
X19737812Y-74724598D01*
X19737812Y-74724598D02*
X19675908Y-74848407D01*
X19675908Y-74848407D02*
X19614003Y-74910312D01*
X19614003Y-74910312D02*
X19490193Y-74972217D01*
X19490193Y-74972217D02*
X18994955Y-74972217D01*
X21037812Y-75591264D02*
X20604479Y-74972217D01*
X20294955Y-75591264D02*
X20294955Y-74291264D01*
X20294955Y-74291264D02*
X20790193Y-74291264D01*
X20790193Y-74291264D02*
X20914003Y-74353169D01*
X20914003Y-74353169D02*
X20975908Y-74415074D01*
X20975908Y-74415074D02*
X21037812Y-74538883D01*
X21037812Y-74538883D02*
X21037812Y-74724598D01*
X21037812Y-74724598D02*
X20975908Y-74848407D01*
X20975908Y-74848407D02*
X20914003Y-74910312D01*
X20914003Y-74910312D02*
X20790193Y-74972217D01*
X20790193Y-74972217D02*
X20294955Y-74972217D01*
X21594955Y-75591264D02*
X21594955Y-74291264D01*
X22214003Y-75591264D02*
X22214003Y-74291264D01*
X22214003Y-74291264D02*
X22956860Y-75591264D01*
X22956860Y-75591264D02*
X22956860Y-74291264D01*
X23390194Y-74291264D02*
X24133051Y-74291264D01*
X23761623Y-75591264D02*
X23761623Y-74291264D01*
X25556860Y-74291264D02*
X25556860Y-75343645D01*
X25556860Y-75343645D02*
X25618765Y-75467455D01*
X25618765Y-75467455D02*
X25680670Y-75529360D01*
X25680670Y-75529360D02*
X25804479Y-75591264D01*
X25804479Y-75591264D02*
X26052098Y-75591264D01*
X26052098Y-75591264D02*
X26175908Y-75529360D01*
X26175908Y-75529360D02*
X26237813Y-75467455D01*
X26237813Y-75467455D02*
X26299717Y-75343645D01*
X26299717Y-75343645D02*
X26299717Y-74291264D01*
X26918765Y-75591264D02*
X26918765Y-74291264D01*
X26918765Y-74291264D02*
X27661622Y-75591264D01*
X27661622Y-75591264D02*
X27661622Y-74291264D01*
X28094956Y-74291264D02*
X28528289Y-75591264D01*
X28528289Y-75591264D02*
X28961623Y-74291264D01*
X29394956Y-74910312D02*
X29828290Y-74910312D01*
X30014004Y-75591264D02*
X29394956Y-75591264D01*
X29394956Y-75591264D02*
X29394956Y-74291264D01*
X29394956Y-74291264D02*
X30014004Y-74291264D01*
X31314003Y-75591264D02*
X30880670Y-74972217D01*
X30571146Y-75591264D02*
X30571146Y-74291264D01*
X30571146Y-74291264D02*
X31066384Y-74291264D01*
X31066384Y-74291264D02*
X31190194Y-74353169D01*
X31190194Y-74353169D02*
X31252099Y-74415074D01*
X31252099Y-74415074D02*
X31314003Y-74538883D01*
X31314003Y-74538883D02*
X31314003Y-74724598D01*
X31314003Y-74724598D02*
X31252099Y-74848407D01*
X31252099Y-74848407D02*
X31190194Y-74910312D01*
X31190194Y-74910312D02*
X31066384Y-74972217D01*
X31066384Y-74972217D02*
X30571146Y-74972217D01*
X31871146Y-75591264D02*
X31871146Y-74291264D01*
X32923528Y-74910312D02*
X32490194Y-74910312D01*
X32490194Y-75591264D02*
X32490194Y-74291264D01*
X32490194Y-74291264D02*
X33109242Y-74291264D01*
X33604480Y-75591264D02*
X33604480Y-74291264D01*
X34223528Y-74910312D02*
X34656862Y-74910312D01*
X34842576Y-75591264D02*
X34223528Y-75591264D01*
X34223528Y-75591264D02*
X34223528Y-74291264D01*
X34223528Y-74291264D02*
X34842576Y-74291264D01*
X35399718Y-75591264D02*
X35399718Y-74291264D01*
X35399718Y-74291264D02*
X35709242Y-74291264D01*
X35709242Y-74291264D02*
X35894956Y-74353169D01*
X35894956Y-74353169D02*
X36018766Y-74476979D01*
X36018766Y-74476979D02*
X36080671Y-74600788D01*
X36080671Y-74600788D02*
X36142575Y-74848407D01*
X36142575Y-74848407D02*
X36142575Y-75034121D01*
X36142575Y-75034121D02*
X36080671Y-75281740D01*
X36080671Y-75281740D02*
X36018766Y-75405550D01*
X36018766Y-75405550D02*
X35894956Y-75529360D01*
X35894956Y-75529360D02*
X35709242Y-75591264D01*
X35709242Y-75591264D02*
X35399718Y-75591264D01*
D11*
X43100588Y-26042438D02*
X43005350Y-25994819D01*
X43005350Y-25994819D02*
X42862493Y-25994819D01*
X42862493Y-25994819D02*
X42719636Y-26042438D01*
X42719636Y-26042438D02*
X42624398Y-26137676D01*
X42624398Y-26137676D02*
X42576779Y-26232914D01*
X42576779Y-26232914D02*
X42529160Y-26423390D01*
X42529160Y-26423390D02*
X42529160Y-26566247D01*
X42529160Y-26566247D02*
X42576779Y-26756723D01*
X42576779Y-26756723D02*
X42624398Y-26851961D01*
X42624398Y-26851961D02*
X42719636Y-26947200D01*
X42719636Y-26947200D02*
X42862493Y-26994819D01*
X42862493Y-26994819D02*
X42957731Y-26994819D01*
X42957731Y-26994819D02*
X43100588Y-26947200D01*
X43100588Y-26947200D02*
X43148207Y-26899580D01*
X43148207Y-26899580D02*
X43148207Y-26566247D01*
X43148207Y-26566247D02*
X42957731Y-26566247D01*
X43576779Y-26994819D02*
X43576779Y-25994819D01*
X43576779Y-25994819D02*
X43957731Y-25994819D01*
X43957731Y-25994819D02*
X44052969Y-26042438D01*
X44052969Y-26042438D02*
X44100588Y-26090057D01*
X44100588Y-26090057D02*
X44148207Y-26185295D01*
X44148207Y-26185295D02*
X44148207Y-26328152D01*
X44148207Y-26328152D02*
X44100588Y-26423390D01*
X44100588Y-26423390D02*
X44052969Y-26471009D01*
X44052969Y-26471009D02*
X43957731Y-26518628D01*
X43957731Y-26518628D02*
X43576779Y-26518628D01*
X44576779Y-26994819D02*
X44576779Y-25994819D01*
X45243445Y-25994819D02*
X45433921Y-25994819D01*
X45433921Y-25994819D02*
X45529159Y-26042438D01*
X45529159Y-26042438D02*
X45624397Y-26137676D01*
X45624397Y-26137676D02*
X45672016Y-26328152D01*
X45672016Y-26328152D02*
X45672016Y-26661485D01*
X45672016Y-26661485D02*
X45624397Y-26851961D01*
X45624397Y-26851961D02*
X45529159Y-26947200D01*
X45529159Y-26947200D02*
X45433921Y-26994819D01*
X45433921Y-26994819D02*
X45243445Y-26994819D01*
X45243445Y-26994819D02*
X45148207Y-26947200D01*
X45148207Y-26947200D02*
X45052969Y-26851961D01*
X45052969Y-26851961D02*
X45005350Y-26661485D01*
X45005350Y-26661485D02*
X45005350Y-26328152D01*
X45005350Y-26328152D02*
X45052969Y-26137676D01*
X45052969Y-26137676D02*
X45148207Y-26042438D01*
X45148207Y-26042438D02*
X45243445Y-25994819D01*
X46005350Y-25994819D02*
X46672016Y-25994819D01*
X46672016Y-25994819D02*
X46243445Y-26994819D01*
X12360588Y-41282438D02*
X12265350Y-41234819D01*
X12265350Y-41234819D02*
X12122493Y-41234819D01*
X12122493Y-41234819D02*
X11979636Y-41282438D01*
X11979636Y-41282438D02*
X11884398Y-41377676D01*
X11884398Y-41377676D02*
X11836779Y-41472914D01*
X11836779Y-41472914D02*
X11789160Y-41663390D01*
X11789160Y-41663390D02*
X11789160Y-41806247D01*
X11789160Y-41806247D02*
X11836779Y-41996723D01*
X11836779Y-41996723D02*
X11884398Y-42091961D01*
X11884398Y-42091961D02*
X11979636Y-42187200D01*
X11979636Y-42187200D02*
X12122493Y-42234819D01*
X12122493Y-42234819D02*
X12217731Y-42234819D01*
X12217731Y-42234819D02*
X12360588Y-42187200D01*
X12360588Y-42187200D02*
X12408207Y-42139580D01*
X12408207Y-42139580D02*
X12408207Y-41806247D01*
X12408207Y-41806247D02*
X12217731Y-41806247D01*
X12836779Y-42234819D02*
X12836779Y-41234819D01*
X12836779Y-41234819D02*
X13217731Y-41234819D01*
X13217731Y-41234819D02*
X13312969Y-41282438D01*
X13312969Y-41282438D02*
X13360588Y-41330057D01*
X13360588Y-41330057D02*
X13408207Y-41425295D01*
X13408207Y-41425295D02*
X13408207Y-41568152D01*
X13408207Y-41568152D02*
X13360588Y-41663390D01*
X13360588Y-41663390D02*
X13312969Y-41711009D01*
X13312969Y-41711009D02*
X13217731Y-41758628D01*
X13217731Y-41758628D02*
X12836779Y-41758628D01*
X13836779Y-42234819D02*
X13836779Y-41234819D01*
X14503445Y-41234819D02*
X14693921Y-41234819D01*
X14693921Y-41234819D02*
X14789159Y-41282438D01*
X14789159Y-41282438D02*
X14884397Y-41377676D01*
X14884397Y-41377676D02*
X14932016Y-41568152D01*
X14932016Y-41568152D02*
X14932016Y-41901485D01*
X14932016Y-41901485D02*
X14884397Y-42091961D01*
X14884397Y-42091961D02*
X14789159Y-42187200D01*
X14789159Y-42187200D02*
X14693921Y-42234819D01*
X14693921Y-42234819D02*
X14503445Y-42234819D01*
X14503445Y-42234819D02*
X14408207Y-42187200D01*
X14408207Y-42187200D02*
X14312969Y-42091961D01*
X14312969Y-42091961D02*
X14265350Y-41901485D01*
X14265350Y-41901485D02*
X14265350Y-41568152D01*
X14265350Y-41568152D02*
X14312969Y-41377676D01*
X14312969Y-41377676D02*
X14408207Y-41282438D01*
X14408207Y-41282438D02*
X14503445Y-41234819D01*
X15408207Y-42234819D02*
X15598683Y-42234819D01*
X15598683Y-42234819D02*
X15693921Y-42187200D01*
X15693921Y-42187200D02*
X15741540Y-42139580D01*
X15741540Y-42139580D02*
X15836778Y-41996723D01*
X15836778Y-41996723D02*
X15884397Y-41806247D01*
X15884397Y-41806247D02*
X15884397Y-41425295D01*
X15884397Y-41425295D02*
X15836778Y-41330057D01*
X15836778Y-41330057D02*
X15789159Y-41282438D01*
X15789159Y-41282438D02*
X15693921Y-41234819D01*
X15693921Y-41234819D02*
X15503445Y-41234819D01*
X15503445Y-41234819D02*
X15408207Y-41282438D01*
X15408207Y-41282438D02*
X15360588Y-41330057D01*
X15360588Y-41330057D02*
X15312969Y-41425295D01*
X15312969Y-41425295D02*
X15312969Y-41663390D01*
X15312969Y-41663390D02*
X15360588Y-41758628D01*
X15360588Y-41758628D02*
X15408207Y-41806247D01*
X15408207Y-41806247D02*
X15503445Y-41853866D01*
X15503445Y-41853866D02*
X15693921Y-41853866D01*
X15693921Y-41853866D02*
X15789159Y-41806247D01*
X15789159Y-41806247D02*
X15836778Y-41758628D01*
X15836778Y-41758628D02*
X15884397Y-41663390D01*
X12360588Y-36202438D02*
X12265350Y-36154819D01*
X12265350Y-36154819D02*
X12122493Y-36154819D01*
X12122493Y-36154819D02*
X11979636Y-36202438D01*
X11979636Y-36202438D02*
X11884398Y-36297676D01*
X11884398Y-36297676D02*
X11836779Y-36392914D01*
X11836779Y-36392914D02*
X11789160Y-36583390D01*
X11789160Y-36583390D02*
X11789160Y-36726247D01*
X11789160Y-36726247D02*
X11836779Y-36916723D01*
X11836779Y-36916723D02*
X11884398Y-37011961D01*
X11884398Y-37011961D02*
X11979636Y-37107200D01*
X11979636Y-37107200D02*
X12122493Y-37154819D01*
X12122493Y-37154819D02*
X12217731Y-37154819D01*
X12217731Y-37154819D02*
X12360588Y-37107200D01*
X12360588Y-37107200D02*
X12408207Y-37059580D01*
X12408207Y-37059580D02*
X12408207Y-36726247D01*
X12408207Y-36726247D02*
X12217731Y-36726247D01*
X12836779Y-37154819D02*
X12836779Y-36154819D01*
X12836779Y-36154819D02*
X13217731Y-36154819D01*
X13217731Y-36154819D02*
X13312969Y-36202438D01*
X13312969Y-36202438D02*
X13360588Y-36250057D01*
X13360588Y-36250057D02*
X13408207Y-36345295D01*
X13408207Y-36345295D02*
X13408207Y-36488152D01*
X13408207Y-36488152D02*
X13360588Y-36583390D01*
X13360588Y-36583390D02*
X13312969Y-36631009D01*
X13312969Y-36631009D02*
X13217731Y-36678628D01*
X13217731Y-36678628D02*
X12836779Y-36678628D01*
X13836779Y-37154819D02*
X13836779Y-36154819D01*
X14503445Y-36154819D02*
X14693921Y-36154819D01*
X14693921Y-36154819D02*
X14789159Y-36202438D01*
X14789159Y-36202438D02*
X14884397Y-36297676D01*
X14884397Y-36297676D02*
X14932016Y-36488152D01*
X14932016Y-36488152D02*
X14932016Y-36821485D01*
X14932016Y-36821485D02*
X14884397Y-37011961D01*
X14884397Y-37011961D02*
X14789159Y-37107200D01*
X14789159Y-37107200D02*
X14693921Y-37154819D01*
X14693921Y-37154819D02*
X14503445Y-37154819D01*
X14503445Y-37154819D02*
X14408207Y-37107200D01*
X14408207Y-37107200D02*
X14312969Y-37011961D01*
X14312969Y-37011961D02*
X14265350Y-36821485D01*
X14265350Y-36821485D02*
X14265350Y-36488152D01*
X14265350Y-36488152D02*
X14312969Y-36297676D01*
X14312969Y-36297676D02*
X14408207Y-36202438D01*
X14408207Y-36202438D02*
X14503445Y-36154819D01*
X15884397Y-37154819D02*
X15312969Y-37154819D01*
X15598683Y-37154819D02*
X15598683Y-36154819D01*
X15598683Y-36154819D02*
X15503445Y-36297676D01*
X15503445Y-36297676D02*
X15408207Y-36392914D01*
X15408207Y-36392914D02*
X15312969Y-36440533D01*
X16836778Y-37154819D02*
X16265350Y-37154819D01*
X16551064Y-37154819D02*
X16551064Y-36154819D01*
X16551064Y-36154819D02*
X16455826Y-36297676D01*
X16455826Y-36297676D02*
X16360588Y-36392914D01*
X16360588Y-36392914D02*
X16265350Y-36440533D01*
D10*
X78213313Y-20670300D02*
X78841885Y-20670300D01*
X78527599Y-21770300D02*
X78527599Y-20670300D01*
X79575218Y-21194110D02*
X79208551Y-21194110D01*
X79208551Y-21770300D02*
X79208551Y-20670300D01*
X79208551Y-20670300D02*
X79732361Y-20670300D01*
X79994265Y-20670300D02*
X80622837Y-20670300D01*
X80308551Y-21770300D02*
X80308551Y-20670300D01*
X81775217Y-21717920D02*
X81932360Y-21770300D01*
X81932360Y-21770300D02*
X82194265Y-21770300D01*
X82194265Y-21770300D02*
X82299027Y-21717920D01*
X82299027Y-21717920D02*
X82351408Y-21665539D01*
X82351408Y-21665539D02*
X82403789Y-21560777D01*
X82403789Y-21560777D02*
X82403789Y-21456015D01*
X82403789Y-21456015D02*
X82351408Y-21351253D01*
X82351408Y-21351253D02*
X82299027Y-21298872D01*
X82299027Y-21298872D02*
X82194265Y-21246491D01*
X82194265Y-21246491D02*
X81984741Y-21194110D01*
X81984741Y-21194110D02*
X81879979Y-21141729D01*
X81879979Y-21141729D02*
X81827598Y-21089348D01*
X81827598Y-21089348D02*
X81775217Y-20984586D01*
X81775217Y-20984586D02*
X81775217Y-20879824D01*
X81775217Y-20879824D02*
X81827598Y-20775062D01*
X81827598Y-20775062D02*
X81879979Y-20722681D01*
X81879979Y-20722681D02*
X81984741Y-20670300D01*
X81984741Y-20670300D02*
X82246646Y-20670300D01*
X82246646Y-20670300D02*
X82403789Y-20722681D01*
X82718074Y-20670300D02*
X83346646Y-20670300D01*
X83032360Y-21770300D02*
X83032360Y-20670300D01*
X83608550Y-20670300D02*
X84341884Y-20670300D01*
X84341884Y-20670300D02*
X83870455Y-21770300D01*
X84656169Y-20670300D02*
X85389503Y-20670300D01*
X85389503Y-20670300D02*
X84918074Y-21770300D01*
X85965693Y-21141729D02*
X85860931Y-21089348D01*
X85860931Y-21089348D02*
X85808550Y-21036967D01*
X85808550Y-21036967D02*
X85756169Y-20932205D01*
X85756169Y-20932205D02*
X85756169Y-20879824D01*
X85756169Y-20879824D02*
X85808550Y-20775062D01*
X85808550Y-20775062D02*
X85860931Y-20722681D01*
X85860931Y-20722681D02*
X85965693Y-20670300D01*
X85965693Y-20670300D02*
X86175217Y-20670300D01*
X86175217Y-20670300D02*
X86279979Y-20722681D01*
X86279979Y-20722681D02*
X86332360Y-20775062D01*
X86332360Y-20775062D02*
X86384741Y-20879824D01*
X86384741Y-20879824D02*
X86384741Y-20932205D01*
X86384741Y-20932205D02*
X86332360Y-21036967D01*
X86332360Y-21036967D02*
X86279979Y-21089348D01*
X86279979Y-21089348D02*
X86175217Y-21141729D01*
X86175217Y-21141729D02*
X85965693Y-21141729D01*
X85965693Y-21141729D02*
X85860931Y-21194110D01*
X85860931Y-21194110D02*
X85808550Y-21246491D01*
X85808550Y-21246491D02*
X85756169Y-21351253D01*
X85756169Y-21351253D02*
X85756169Y-21560777D01*
X85756169Y-21560777D02*
X85808550Y-21665539D01*
X85808550Y-21665539D02*
X85860931Y-21717920D01*
X85860931Y-21717920D02*
X85965693Y-21770300D01*
X85965693Y-21770300D02*
X86175217Y-21770300D01*
X86175217Y-21770300D02*
X86279979Y-21717920D01*
X86279979Y-21717920D02*
X86332360Y-21665539D01*
X86332360Y-21665539D02*
X86384741Y-21560777D01*
X86384741Y-21560777D02*
X86384741Y-21351253D01*
X86384741Y-21351253D02*
X86332360Y-21246491D01*
X86332360Y-21246491D02*
X86279979Y-21194110D01*
X86279979Y-21194110D02*
X86175217Y-21141729D01*
X86908550Y-21770300D02*
X87118074Y-21770300D01*
X87118074Y-21770300D02*
X87222836Y-21717920D01*
X87222836Y-21717920D02*
X87275217Y-21665539D01*
X87275217Y-21665539D02*
X87379979Y-21508396D01*
X87379979Y-21508396D02*
X87432360Y-21298872D01*
X87432360Y-21298872D02*
X87432360Y-20879824D01*
X87432360Y-20879824D02*
X87379979Y-20775062D01*
X87379979Y-20775062D02*
X87327598Y-20722681D01*
X87327598Y-20722681D02*
X87222836Y-20670300D01*
X87222836Y-20670300D02*
X87013312Y-20670300D01*
X87013312Y-20670300D02*
X86908550Y-20722681D01*
X86908550Y-20722681D02*
X86856169Y-20775062D01*
X86856169Y-20775062D02*
X86803788Y-20879824D01*
X86803788Y-20879824D02*
X86803788Y-21141729D01*
X86803788Y-21141729D02*
X86856169Y-21246491D01*
X86856169Y-21246491D02*
X86908550Y-21298872D01*
X86908550Y-21298872D02*
X87013312Y-21351253D01*
X87013312Y-21351253D02*
X87222836Y-21351253D01*
X87222836Y-21351253D02*
X87327598Y-21298872D01*
X87327598Y-21298872D02*
X87379979Y-21246491D01*
X87379979Y-21246491D02*
X87432360Y-21141729D01*
X89318074Y-21770300D02*
X88689502Y-21770300D01*
X89003788Y-21770300D02*
X89003788Y-20670300D01*
X89003788Y-20670300D02*
X88899026Y-20827443D01*
X88899026Y-20827443D02*
X88794264Y-20932205D01*
X88794264Y-20932205D02*
X88689502Y-20984586D01*
X89789502Y-21665539D02*
X89841883Y-21717920D01*
X89841883Y-21717920D02*
X89789502Y-21770300D01*
X89789502Y-21770300D02*
X89737121Y-21717920D01*
X89737121Y-21717920D02*
X89789502Y-21665539D01*
X89789502Y-21665539D02*
X89789502Y-21770300D01*
X90784741Y-21036967D02*
X90784741Y-21770300D01*
X90522836Y-20617920D02*
X90260931Y-21403634D01*
X90260931Y-21403634D02*
X90941884Y-21403634D01*
X91256169Y-20670300D02*
X91989503Y-20670300D01*
X91989503Y-20670300D02*
X91518074Y-21770300D01*
X92408550Y-21770300D02*
X92408550Y-21036967D01*
X92408550Y-20670300D02*
X92356169Y-20722681D01*
X92356169Y-20722681D02*
X92408550Y-20775062D01*
X92408550Y-20775062D02*
X92460931Y-20722681D01*
X92460931Y-20722681D02*
X92408550Y-20670300D01*
X92408550Y-20670300D02*
X92408550Y-20775062D01*
X92932360Y-21036967D02*
X92932360Y-21770300D01*
X92932360Y-21141729D02*
X92984741Y-21089348D01*
X92984741Y-21089348D02*
X93089503Y-21036967D01*
X93089503Y-21036967D02*
X93246646Y-21036967D01*
X93246646Y-21036967D02*
X93351408Y-21089348D01*
X93351408Y-21089348D02*
X93403789Y-21194110D01*
X93403789Y-21194110D02*
X93403789Y-21770300D01*
D11*
X43100588Y-41282438D02*
X43005350Y-41234819D01*
X43005350Y-41234819D02*
X42862493Y-41234819D01*
X42862493Y-41234819D02*
X42719636Y-41282438D01*
X42719636Y-41282438D02*
X42624398Y-41377676D01*
X42624398Y-41377676D02*
X42576779Y-41472914D01*
X42576779Y-41472914D02*
X42529160Y-41663390D01*
X42529160Y-41663390D02*
X42529160Y-41806247D01*
X42529160Y-41806247D02*
X42576779Y-41996723D01*
X42576779Y-41996723D02*
X42624398Y-42091961D01*
X42624398Y-42091961D02*
X42719636Y-42187200D01*
X42719636Y-42187200D02*
X42862493Y-42234819D01*
X42862493Y-42234819D02*
X42957731Y-42234819D01*
X42957731Y-42234819D02*
X43100588Y-42187200D01*
X43100588Y-42187200D02*
X43148207Y-42139580D01*
X43148207Y-42139580D02*
X43148207Y-41806247D01*
X43148207Y-41806247D02*
X42957731Y-41806247D01*
X43576779Y-42234819D02*
X43576779Y-41234819D01*
X43576779Y-41234819D02*
X43957731Y-41234819D01*
X43957731Y-41234819D02*
X44052969Y-41282438D01*
X44052969Y-41282438D02*
X44100588Y-41330057D01*
X44100588Y-41330057D02*
X44148207Y-41425295D01*
X44148207Y-41425295D02*
X44148207Y-41568152D01*
X44148207Y-41568152D02*
X44100588Y-41663390D01*
X44100588Y-41663390D02*
X44052969Y-41711009D01*
X44052969Y-41711009D02*
X43957731Y-41758628D01*
X43957731Y-41758628D02*
X43576779Y-41758628D01*
X44576779Y-42234819D02*
X44576779Y-41234819D01*
X45243445Y-41234819D02*
X45433921Y-41234819D01*
X45433921Y-41234819D02*
X45529159Y-41282438D01*
X45529159Y-41282438D02*
X45624397Y-41377676D01*
X45624397Y-41377676D02*
X45672016Y-41568152D01*
X45672016Y-41568152D02*
X45672016Y-41901485D01*
X45672016Y-41901485D02*
X45624397Y-42091961D01*
X45624397Y-42091961D02*
X45529159Y-42187200D01*
X45529159Y-42187200D02*
X45433921Y-42234819D01*
X45433921Y-42234819D02*
X45243445Y-42234819D01*
X45243445Y-42234819D02*
X45148207Y-42187200D01*
X45148207Y-42187200D02*
X45052969Y-42091961D01*
X45052969Y-42091961D02*
X45005350Y-41901485D01*
X45005350Y-41901485D02*
X45005350Y-41568152D01*
X45005350Y-41568152D02*
X45052969Y-41377676D01*
X45052969Y-41377676D02*
X45148207Y-41282438D01*
X45148207Y-41282438D02*
X45243445Y-41234819D01*
X46624397Y-42234819D02*
X46052969Y-42234819D01*
X46338683Y-42234819D02*
X46338683Y-41234819D01*
X46338683Y-41234819D02*
X46243445Y-41377676D01*
X46243445Y-41377676D02*
X46148207Y-41472914D01*
X46148207Y-41472914D02*
X46052969Y-41520533D01*
X72731009Y-64680952D02*
X72778628Y-64538095D01*
X72778628Y-64538095D02*
X72826247Y-64490476D01*
X72826247Y-64490476D02*
X72921485Y-64442857D01*
X72921485Y-64442857D02*
X73064342Y-64442857D01*
X73064342Y-64442857D02*
X73159580Y-64490476D01*
X73159580Y-64490476D02*
X73207200Y-64538095D01*
X73207200Y-64538095D02*
X73254819Y-64633333D01*
X73254819Y-64633333D02*
X73254819Y-65014285D01*
X73254819Y-65014285D02*
X72254819Y-65014285D01*
X72254819Y-65014285D02*
X72254819Y-64680952D01*
X72254819Y-64680952D02*
X72302438Y-64585714D01*
X72302438Y-64585714D02*
X72350057Y-64538095D01*
X72350057Y-64538095D02*
X72445295Y-64490476D01*
X72445295Y-64490476D02*
X72540533Y-64490476D01*
X72540533Y-64490476D02*
X72635771Y-64538095D01*
X72635771Y-64538095D02*
X72683390Y-64585714D01*
X72683390Y-64585714D02*
X72731009Y-64680952D01*
X72731009Y-64680952D02*
X72731009Y-65014285D01*
X72254819Y-64109523D02*
X72254819Y-63442857D01*
X72254819Y-63442857D02*
X73254819Y-64109523D01*
X73254819Y-64109523D02*
X73254819Y-63442857D01*
X73254819Y-62538095D02*
X73254819Y-63109523D01*
X73254819Y-62823809D02*
X72254819Y-62823809D01*
X72254819Y-62823809D02*
X72397676Y-62919047D01*
X72397676Y-62919047D02*
X72492914Y-63014285D01*
X72492914Y-63014285D02*
X72540533Y-63109523D01*
X77533866Y-67990951D02*
X77533866Y-67229047D01*
X77914819Y-67609999D02*
X77152914Y-67609999D01*
X78571428Y-22394819D02*
X78571428Y-23109104D01*
X78571428Y-23109104D02*
X78523809Y-23251961D01*
X78523809Y-23251961D02*
X78428571Y-23347200D01*
X78428571Y-23347200D02*
X78285714Y-23394819D01*
X78285714Y-23394819D02*
X78190476Y-23394819D01*
X78809524Y-23490057D02*
X79571428Y-23490057D01*
X79666667Y-22394819D02*
X80238095Y-22394819D01*
X79952381Y-23394819D02*
X79952381Y-22394819D01*
X80904762Y-22871009D02*
X80571429Y-22871009D01*
X80571429Y-23394819D02*
X80571429Y-22394819D01*
X80571429Y-22394819D02*
X81047619Y-22394819D01*
X81285715Y-22394819D02*
X81857143Y-22394819D01*
X81571429Y-23394819D02*
X81571429Y-22394819D01*
X75916667Y-72407200D02*
X76059524Y-72454819D01*
X76059524Y-72454819D02*
X76297619Y-72454819D01*
X76297619Y-72454819D02*
X76392857Y-72407200D01*
X76392857Y-72407200D02*
X76440476Y-72359580D01*
X76440476Y-72359580D02*
X76488095Y-72264342D01*
X76488095Y-72264342D02*
X76488095Y-72169104D01*
X76488095Y-72169104D02*
X76440476Y-72073866D01*
X76440476Y-72073866D02*
X76392857Y-72026247D01*
X76392857Y-72026247D02*
X76297619Y-71978628D01*
X76297619Y-71978628D02*
X76107143Y-71931009D01*
X76107143Y-71931009D02*
X76011905Y-71883390D01*
X76011905Y-71883390D02*
X75964286Y-71835771D01*
X75964286Y-71835771D02*
X75916667Y-71740533D01*
X75916667Y-71740533D02*
X75916667Y-71645295D01*
X75916667Y-71645295D02*
X75964286Y-71550057D01*
X75964286Y-71550057D02*
X76011905Y-71502438D01*
X76011905Y-71502438D02*
X76107143Y-71454819D01*
X76107143Y-71454819D02*
X76345238Y-71454819D01*
X76345238Y-71454819D02*
X76488095Y-71502438D01*
X76821429Y-71454819D02*
X77059524Y-72454819D01*
X77059524Y-72454819D02*
X77250000Y-71740533D01*
X77250000Y-71740533D02*
X77440476Y-72454819D01*
X77440476Y-72454819D02*
X77678572Y-71454819D01*
X78583333Y-72454819D02*
X78011905Y-72454819D01*
X78297619Y-72454819D02*
X78297619Y-71454819D01*
X78297619Y-71454819D02*
X78202381Y-71597676D01*
X78202381Y-71597676D02*
X78107143Y-71692914D01*
X78107143Y-71692914D02*
X78011905Y-71740533D01*
X77833333Y-45254819D02*
X77833333Y-45969104D01*
X77833333Y-45969104D02*
X77785714Y-46111961D01*
X77785714Y-46111961D02*
X77690476Y-46207200D01*
X77690476Y-46207200D02*
X77547619Y-46254819D01*
X77547619Y-46254819D02*
X77452381Y-46254819D01*
X78071429Y-46350057D02*
X78833333Y-46350057D01*
X79023810Y-46207200D02*
X79166667Y-46254819D01*
X79166667Y-46254819D02*
X79404762Y-46254819D01*
X79404762Y-46254819D02*
X79500000Y-46207200D01*
X79500000Y-46207200D02*
X79547619Y-46159580D01*
X79547619Y-46159580D02*
X79595238Y-46064342D01*
X79595238Y-46064342D02*
X79595238Y-45969104D01*
X79595238Y-45969104D02*
X79547619Y-45873866D01*
X79547619Y-45873866D02*
X79500000Y-45826247D01*
X79500000Y-45826247D02*
X79404762Y-45778628D01*
X79404762Y-45778628D02*
X79214286Y-45731009D01*
X79214286Y-45731009D02*
X79119048Y-45683390D01*
X79119048Y-45683390D02*
X79071429Y-45635771D01*
X79071429Y-45635771D02*
X79023810Y-45540533D01*
X79023810Y-45540533D02*
X79023810Y-45445295D01*
X79023810Y-45445295D02*
X79071429Y-45350057D01*
X79071429Y-45350057D02*
X79119048Y-45302438D01*
X79119048Y-45302438D02*
X79214286Y-45254819D01*
X79214286Y-45254819D02*
X79452381Y-45254819D01*
X79452381Y-45254819D02*
X79595238Y-45302438D01*
X80023810Y-45731009D02*
X80357143Y-45731009D01*
X80500000Y-46254819D02*
X80023810Y-46254819D01*
X80023810Y-46254819D02*
X80023810Y-45254819D01*
X80023810Y-45254819D02*
X80500000Y-45254819D01*
X80928572Y-46254819D02*
X80928572Y-45254819D01*
X80928572Y-45254819D02*
X81500000Y-46254819D01*
X81500000Y-46254819D02*
X81500000Y-45254819D01*
X81928572Y-46207200D02*
X82071429Y-46254819D01*
X82071429Y-46254819D02*
X82309524Y-46254819D01*
X82309524Y-46254819D02*
X82404762Y-46207200D01*
X82404762Y-46207200D02*
X82452381Y-46159580D01*
X82452381Y-46159580D02*
X82500000Y-46064342D01*
X82500000Y-46064342D02*
X82500000Y-45969104D01*
X82500000Y-45969104D02*
X82452381Y-45873866D01*
X82452381Y-45873866D02*
X82404762Y-45826247D01*
X82404762Y-45826247D02*
X82309524Y-45778628D01*
X82309524Y-45778628D02*
X82119048Y-45731009D01*
X82119048Y-45731009D02*
X82023810Y-45683390D01*
X82023810Y-45683390D02*
X81976191Y-45635771D01*
X81976191Y-45635771D02*
X81928572Y-45540533D01*
X81928572Y-45540533D02*
X81928572Y-45445295D01*
X81928572Y-45445295D02*
X81976191Y-45350057D01*
X81976191Y-45350057D02*
X82023810Y-45302438D01*
X82023810Y-45302438D02*
X82119048Y-45254819D01*
X82119048Y-45254819D02*
X82357143Y-45254819D01*
X82357143Y-45254819D02*
X82500000Y-45302438D01*
X16190476Y-54124819D02*
X16190476Y-54839104D01*
X16190476Y-54839104D02*
X16142857Y-54981961D01*
X16142857Y-54981961D02*
X16047619Y-55077200D01*
X16047619Y-55077200D02*
X15904762Y-55124819D01*
X15904762Y-55124819D02*
X15809524Y-55124819D01*
X16428572Y-55220057D02*
X17190476Y-55220057D01*
X17428572Y-55124819D02*
X17428572Y-54124819D01*
X17428572Y-54124819D02*
X17809524Y-54124819D01*
X17809524Y-54124819D02*
X17904762Y-54172438D01*
X17904762Y-54172438D02*
X17952381Y-54220057D01*
X17952381Y-54220057D02*
X18000000Y-54315295D01*
X18000000Y-54315295D02*
X18000000Y-54458152D01*
X18000000Y-54458152D02*
X17952381Y-54553390D01*
X17952381Y-54553390D02*
X17904762Y-54601009D01*
X17904762Y-54601009D02*
X17809524Y-54648628D01*
X17809524Y-54648628D02*
X17428572Y-54648628D01*
X18333334Y-54124819D02*
X18571429Y-55124819D01*
X18571429Y-55124819D02*
X18761905Y-54410533D01*
X18761905Y-54410533D02*
X18952381Y-55124819D01*
X18952381Y-55124819D02*
X19190477Y-54124819D01*
X20142857Y-55124819D02*
X19809524Y-54648628D01*
X19571429Y-55124819D02*
X19571429Y-54124819D01*
X19571429Y-54124819D02*
X19952381Y-54124819D01*
X19952381Y-54124819D02*
X20047619Y-54172438D01*
X20047619Y-54172438D02*
X20095238Y-54220057D01*
X20095238Y-54220057D02*
X20142857Y-54315295D01*
X20142857Y-54315295D02*
X20142857Y-54458152D01*
X20142857Y-54458152D02*
X20095238Y-54553390D01*
X20095238Y-54553390D02*
X20047619Y-54601009D01*
X20047619Y-54601009D02*
X19952381Y-54648628D01*
X19952381Y-54648628D02*
X19571429Y-54648628D01*
X36525714Y-21124819D02*
X36525714Y-21839104D01*
X36525714Y-21839104D02*
X36478095Y-21981961D01*
X36478095Y-21981961D02*
X36382857Y-22077200D01*
X36382857Y-22077200D02*
X36240000Y-22124819D01*
X36240000Y-22124819D02*
X36144762Y-22124819D01*
X36763810Y-22220057D02*
X37525714Y-22220057D01*
X37763810Y-22124819D02*
X37763810Y-21124819D01*
X37763810Y-21124819D02*
X38097143Y-21839104D01*
X38097143Y-21839104D02*
X38430476Y-21124819D01*
X38430476Y-21124819D02*
X38430476Y-22124819D01*
X39478095Y-22029580D02*
X39430476Y-22077200D01*
X39430476Y-22077200D02*
X39287619Y-22124819D01*
X39287619Y-22124819D02*
X39192381Y-22124819D01*
X39192381Y-22124819D02*
X39049524Y-22077200D01*
X39049524Y-22077200D02*
X38954286Y-21981961D01*
X38954286Y-21981961D02*
X38906667Y-21886723D01*
X38906667Y-21886723D02*
X38859048Y-21696247D01*
X38859048Y-21696247D02*
X38859048Y-21553390D01*
X38859048Y-21553390D02*
X38906667Y-21362914D01*
X38906667Y-21362914D02*
X38954286Y-21267676D01*
X38954286Y-21267676D02*
X39049524Y-21172438D01*
X39049524Y-21172438D02*
X39192381Y-21124819D01*
X39192381Y-21124819D02*
X39287619Y-21124819D01*
X39287619Y-21124819D02*
X39430476Y-21172438D01*
X39430476Y-21172438D02*
X39478095Y-21220057D01*
X39906667Y-21124819D02*
X39906667Y-21934342D01*
X39906667Y-21934342D02*
X39954286Y-22029580D01*
X39954286Y-22029580D02*
X40001905Y-22077200D01*
X40001905Y-22077200D02*
X40097143Y-22124819D01*
X40097143Y-22124819D02*
X40287619Y-22124819D01*
X40287619Y-22124819D02*
X40382857Y-22077200D01*
X40382857Y-22077200D02*
X40430476Y-22029580D01*
X40430476Y-22029580D02*
X40478095Y-21934342D01*
X40478095Y-21934342D02*
X40478095Y-21124819D01*
X40716191Y-22220057D02*
X41478095Y-22220057D01*
X42049524Y-21601009D02*
X42192381Y-21648628D01*
X42192381Y-21648628D02*
X42240000Y-21696247D01*
X42240000Y-21696247D02*
X42287619Y-21791485D01*
X42287619Y-21791485D02*
X42287619Y-21934342D01*
X42287619Y-21934342D02*
X42240000Y-22029580D01*
X42240000Y-22029580D02*
X42192381Y-22077200D01*
X42192381Y-22077200D02*
X42097143Y-22124819D01*
X42097143Y-22124819D02*
X41716191Y-22124819D01*
X41716191Y-22124819D02*
X41716191Y-21124819D01*
X41716191Y-21124819D02*
X42049524Y-21124819D01*
X42049524Y-21124819D02*
X42144762Y-21172438D01*
X42144762Y-21172438D02*
X42192381Y-21220057D01*
X42192381Y-21220057D02*
X42240000Y-21315295D01*
X42240000Y-21315295D02*
X42240000Y-21410533D01*
X42240000Y-21410533D02*
X42192381Y-21505771D01*
X42192381Y-21505771D02*
X42144762Y-21553390D01*
X42144762Y-21553390D02*
X42049524Y-21601009D01*
X42049524Y-21601009D02*
X41716191Y-21601009D01*
X21357142Y-21124819D02*
X21357142Y-21839104D01*
X21357142Y-21839104D02*
X21309523Y-21981961D01*
X21309523Y-21981961D02*
X21214285Y-22077200D01*
X21214285Y-22077200D02*
X21071428Y-22124819D01*
X21071428Y-22124819D02*
X20976190Y-22124819D01*
X21595238Y-22220057D02*
X22357142Y-22220057D01*
X22595238Y-22124819D02*
X22595238Y-21124819D01*
X22595238Y-21124819D02*
X22928571Y-21839104D01*
X22928571Y-21839104D02*
X23261904Y-21124819D01*
X23261904Y-21124819D02*
X23261904Y-22124819D01*
X24309523Y-22029580D02*
X24261904Y-22077200D01*
X24261904Y-22077200D02*
X24119047Y-22124819D01*
X24119047Y-22124819D02*
X24023809Y-22124819D01*
X24023809Y-22124819D02*
X23880952Y-22077200D01*
X23880952Y-22077200D02*
X23785714Y-21981961D01*
X23785714Y-21981961D02*
X23738095Y-21886723D01*
X23738095Y-21886723D02*
X23690476Y-21696247D01*
X23690476Y-21696247D02*
X23690476Y-21553390D01*
X23690476Y-21553390D02*
X23738095Y-21362914D01*
X23738095Y-21362914D02*
X23785714Y-21267676D01*
X23785714Y-21267676D02*
X23880952Y-21172438D01*
X23880952Y-21172438D02*
X24023809Y-21124819D01*
X24023809Y-21124819D02*
X24119047Y-21124819D01*
X24119047Y-21124819D02*
X24261904Y-21172438D01*
X24261904Y-21172438D02*
X24309523Y-21220057D01*
X24738095Y-21124819D02*
X24738095Y-21934342D01*
X24738095Y-21934342D02*
X24785714Y-22029580D01*
X24785714Y-22029580D02*
X24833333Y-22077200D01*
X24833333Y-22077200D02*
X24928571Y-22124819D01*
X24928571Y-22124819D02*
X25119047Y-22124819D01*
X25119047Y-22124819D02*
X25214285Y-22077200D01*
X25214285Y-22077200D02*
X25261904Y-22029580D01*
X25261904Y-22029580D02*
X25309523Y-21934342D01*
X25309523Y-21934342D02*
X25309523Y-21124819D01*
X25547619Y-22220057D02*
X26309523Y-22220057D01*
X26500000Y-21839104D02*
X26976190Y-21839104D01*
X26404762Y-22124819D02*
X26738095Y-21124819D01*
X26738095Y-21124819D02*
X27071428Y-22124819D01*
D14*
%TO.C,BZ1*%
X86100000Y-63800000D02*
G75*
G03*
X73900000Y-63800000I-6100000J0D01*
G01*
X73900000Y-63800000D02*
G75*
G03*
X86100000Y-63800000I6100000J0D01*
G01*
%TO.C,J_TFT*%
X78670000Y-23940000D02*
X80000000Y-23940000D01*
X78670000Y-25270000D02*
X78670000Y-23940000D01*
X78670000Y-26540000D02*
X78670000Y-44380000D01*
X78670000Y-26540000D02*
X81330000Y-26540000D01*
X78670000Y-44380000D02*
X81330000Y-44380000D01*
X81330000Y-26540000D02*
X81330000Y-44380000D01*
%TO.C,SW1*%
X73750000Y-75500000D02*
X73750000Y-77000000D01*
X75000000Y-79500000D02*
X79500000Y-79500000D01*
X79500000Y-73000000D02*
X75000000Y-73000000D01*
X80750000Y-77000000D02*
X80750000Y-75500000D01*
%TO.C,J_SENS*%
X78670000Y-46800000D02*
X80000000Y-46800000D01*
X78670000Y-48130000D02*
X78670000Y-46800000D01*
X78670000Y-49400000D02*
X78670000Y-57080000D01*
X78670000Y-49400000D02*
X81330000Y-49400000D01*
X78670000Y-57080000D02*
X81330000Y-57080000D01*
X81330000Y-49400000D02*
X81330000Y-57080000D01*
%TO.C,J_PWR*%
X16670000Y-55670000D02*
X18000000Y-55670000D01*
X16670000Y-57000000D02*
X16670000Y-55670000D01*
X16670000Y-58270000D02*
X16670000Y-60870000D01*
X16670000Y-58270000D02*
X19330000Y-58270000D01*
X16670000Y-60870000D02*
X19330000Y-60870000D01*
X19330000Y-58270000D02*
X19330000Y-60870000D01*
%TO.C,J_MCU_B*%
X37910000Y-22670000D02*
X39240000Y-22670000D01*
X37910000Y-24000000D02*
X37910000Y-22670000D01*
X37910000Y-25270000D02*
X37910000Y-43110000D01*
X37910000Y-25270000D02*
X40570000Y-25270000D01*
X37910000Y-43110000D02*
X40570000Y-43110000D01*
X40570000Y-25270000D02*
X40570000Y-43110000D01*
%TO.C,J_MCU_A*%
X22670000Y-22670000D02*
X24000000Y-22670000D01*
X22670000Y-24000000D02*
X22670000Y-22670000D01*
X22670000Y-25270000D02*
X22670000Y-43110000D01*
X22670000Y-25270000D02*
X25330000Y-25270000D01*
X22670000Y-43110000D02*
X25330000Y-43110000D01*
X25330000Y-25270000D02*
X25330000Y-43110000D01*
%TD*%
M02*
