%TF.GenerationSoftware,KiCad,Pcbnew,7.0.11+dfsg-1build4*%
%TF.CreationDate,2026-09-21T08:58:11+00:00*%
%TF.ProjectId,Station-BedNode,53746174-696f-46e2-9d42-65644e6f6465,rev?*%
%TF.SameCoordinates,Original*%
%TF.FileFunction,Soldermask,Bot*%
%TF.FilePolarity,Negative*%
%FSLAX46Y46*%
G04 Gerber Fmt 4.6, Leading zero omitted, Abs format (unit mm)*
G04 Created by KiCad (PCBNEW 7.0.11+dfsg-1build4) date 2026-09-21 08:58:11*
%MOMM*%
%LPD*%
G01*
G04 APERTURE LIST*
%ADD10R,2.000000X2.000000*%
%ADD11C,2.000000*%
%ADD12R,1.700000X1.700000*%
%ADD13O,1.700000X1.700000*%
%ADD14C,3.200000*%
G04 APERTURE END LIST*
D10*
%TO.C,BZ1*%
X80000000Y-67600000D03*
D11*
X80000000Y-60000000D03*
%TD*%
D12*
%TO.C,J_TFT*%
X80000000Y-25270000D03*
D13*
X80000000Y-27810000D03*
X80000000Y-30350000D03*
X80000000Y-32890000D03*
X80000000Y-35430000D03*
X80000000Y-37970000D03*
X80000000Y-40510000D03*
X80000000Y-43050000D03*
%TD*%
D14*
%TO.C,H1*%
X4000000Y-4000000D03*
%TD*%
D11*
%TO.C,SW1*%
X74000000Y-74000000D03*
X80500000Y-74000000D03*
X74000000Y-78500000D03*
X80500000Y-78500000D03*
%TD*%
D14*
%TO.C,H4*%
X96000000Y-82000000D03*
%TD*%
D12*
%TO.C,J_SENS*%
X80000000Y-48130000D03*
D13*
X80000000Y-50670000D03*
X80000000Y-53210000D03*
X80000000Y-55750000D03*
%TD*%
D12*
%TO.C,J_PWR*%
X18000000Y-57000000D03*
D13*
X18000000Y-59540000D03*
%TD*%
D12*
%TO.C,J_MCU_B*%
X39240000Y-24000000D03*
D13*
X39240000Y-26540000D03*
X39240000Y-29080000D03*
X39240000Y-31620000D03*
X39240000Y-34160000D03*
X39240000Y-36700000D03*
X39240000Y-39240000D03*
X39240000Y-41780000D03*
%TD*%
D12*
%TO.C,J_MCU_A*%
X24000000Y-24000000D03*
D13*
X24000000Y-26540000D03*
X24000000Y-29080000D03*
X24000000Y-31620000D03*
X24000000Y-34160000D03*
X24000000Y-36700000D03*
X24000000Y-39240000D03*
X24000000Y-41780000D03*
%TD*%
D14*
%TO.C,H3*%
X4000000Y-82000000D03*
%TD*%
%TO.C,H2*%
X96000000Y-4000000D03*
%TD*%
M02*
