%TF.GenerationSoftware,KiCad,Pcbnew,7.0.11+dfsg-1build4*%
%TF.CreationDate,2026-09-21T08:58:11+00:00*%
%TF.ProjectId,Station-BedNode,53746174-696f-46e2-9d42-65644e6f6465,rev?*%
%TF.SameCoordinates,Original*%
%TF.FileFunction,Profile,NP*%
%FSLAX46Y46*%
G04 Gerber Fmt 4.6, Leading zero omitted, Abs format (unit mm)*
G04 Created by KiCad (PCBNEW 7.0.11+dfsg-1build4) date 2026-09-21 08:58:11*
%MOMM*%
%LPD*%
G01*
G04 APERTURE LIST*
%TA.AperFunction,Profile*%
%ADD10C,0.100000*%
%TD*%
G04 APERTURE END LIST*
D10*
X99121320Y-878679D02*
X99380060Y-1173715D01*
X1851949Y-85771638D02*
X1500000Y-85598076D01*
X97391578Y-85974334D02*
X97000000Y-86000000D01*
X2999999Y0D02*
X97000000Y0D01*
X3000000Y-86000000D02*
X2608421Y-85974334D01*
X2223542Y-102222D02*
X2608421Y-25665D01*
X97000000Y-86000000D02*
X3000000Y-86000000D01*
X878679Y-85121320D02*
X619939Y-84826284D01*
X2608421Y-85974334D02*
X2223542Y-85897777D01*
X2608421Y-25665D02*
X2999999Y0D01*
X619939Y-84826284D02*
X401923Y-84500000D01*
X98826284Y-619939D02*
X99121320Y-878679D01*
X97391578Y-25665D02*
X97776457Y-102222D01*
X98500000Y-85598076D02*
X98148050Y-85771638D01*
X99771638Y-1851949D02*
X99897777Y-2223542D01*
X98148050Y-228361D02*
X98500000Y-401923D01*
X1851949Y-228361D02*
X2223542Y-102222D01*
X1173715Y-619939D02*
X1499999Y-401923D01*
X228361Y-84148050D02*
X102222Y-83776457D01*
X1499999Y-401923D02*
X1851949Y-228361D01*
X1500000Y-85598076D02*
X1173715Y-85380060D01*
X102222Y-2223542D02*
X228361Y-1851949D01*
X99974334Y-2608421D02*
X100000000Y-3000000D01*
X99380060Y-1173715D02*
X99598076Y-1500000D01*
X99380060Y-84826284D02*
X99121320Y-85121320D01*
X97776457Y-102222D02*
X98148050Y-228361D01*
X401923Y-84500000D02*
X228361Y-84148050D01*
X99121320Y-85121320D02*
X98826284Y-85380060D01*
X619939Y-1173715D02*
X878679Y-878679D01*
X98826284Y-85380060D02*
X98500000Y-85598076D01*
X878679Y-878679D02*
X1173715Y-619939D01*
X99897777Y-2223542D02*
X99974334Y-2608421D01*
X100000000Y-83000000D02*
X99974334Y-83391578D01*
X100000000Y-3000000D02*
X100000000Y-83000000D01*
X25665Y-2608421D02*
X102222Y-2223542D01*
X99598076Y-1500000D02*
X99771638Y-1851949D01*
X99598076Y-84500000D02*
X99380060Y-84826284D01*
X97776457Y-85897777D02*
X97391578Y-85974334D01*
X98500000Y-401923D02*
X98826284Y-619939D01*
X98148050Y-85771638D02*
X97776457Y-85897777D01*
X25665Y-83391578D02*
X0Y-83000000D01*
X0Y-83000000D02*
X0Y-3000000D01*
X102222Y-83776457D02*
X25665Y-83391578D01*
X401923Y-1499999D02*
X619939Y-1173715D01*
X99974334Y-83391578D02*
X99897777Y-83776457D01*
X99897777Y-83776457D02*
X99771638Y-84148050D01*
X0Y-3000000D02*
X25665Y-2608421D01*
X97000000Y0D02*
X97391578Y-25665D01*
X99771638Y-84148050D02*
X99598076Y-84500000D01*
X2223542Y-85897777D02*
X1851949Y-85771638D01*
X228361Y-1851949D02*
X401923Y-1499999D01*
X1173715Y-85380060D02*
X878679Y-85121320D01*
M02*
