%TF.GenerationSoftware,KiCad,Pcbnew,7.0.11+dfsg-1build4*%
%TF.CreationDate,2026-09-21T08:58:12+00:00*%
%TF.ProjectId,Host-OLED,486f7374-2d4f-44c4-9544-2e6b69636164,rev?*%
%TF.SameCoordinates,Original*%
%TF.FileFunction,Legend,Top*%
%TF.FilePolarity,Positive*%
%FSLAX46Y46*%
G04 Gerber Fmt 4.6, Leading zero omitted, Abs format (unit mm)*
G04 Created by KiCad (PCBNEW 7.0.11+dfsg-1build4) date 2026-09-21 08:58:12*
%MOMM*%
%LPD*%
G01*
G04 APERTURE LIST*
%ADD10C,0.150000*%
%ADD11C,0.165000*%
%ADD12C,0.195000*%
%ADD13C,0.180000*%
%ADD14C,0.240000*%
%ADD15C,0.120000*%
G04 APERTURE END LIST*
D10*
X43100588Y-41282438D02*
X43005350Y-41234819D01*
X43005350Y-41234819D02*
X42862493Y-41234819D01*
X42862493Y-41234819D02*
X42719636Y-41282438D01*
X42719636Y-41282438D02*
X42624398Y-41377676D01*
X42624398Y-41377676D02*
X42576779Y-41472914D01*
X42576779Y-41472914D02*
X42529160Y-41663390D01*
X42529160Y-41663390D02*
X42529160Y-41806247D01*
X42529160Y-41806247D02*
X42576779Y-41996723D01*
X42576779Y-41996723D02*
X42624398Y-42091961D01*
X42624398Y-42091961D02*
X42719636Y-42187200D01*
X42719636Y-42187200D02*
X42862493Y-42234819D01*
X42862493Y-42234819D02*
X42957731Y-42234819D01*
X42957731Y-42234819D02*
X43100588Y-42187200D01*
X43100588Y-42187200D02*
X43148207Y-42139580D01*
X43148207Y-42139580D02*
X43148207Y-41806247D01*
X43148207Y-41806247D02*
X42957731Y-41806247D01*
X43576779Y-42234819D02*
X43576779Y-41234819D01*
X43576779Y-41234819D02*
X43957731Y-41234819D01*
X43957731Y-41234819D02*
X44052969Y-41282438D01*
X44052969Y-41282438D02*
X44100588Y-41330057D01*
X44100588Y-41330057D02*
X44148207Y-41425295D01*
X44148207Y-41425295D02*
X44148207Y-41568152D01*
X44148207Y-41568152D02*
X44100588Y-41663390D01*
X44100588Y-41663390D02*
X44052969Y-41711009D01*
X44052969Y-41711009D02*
X43957731Y-41758628D01*
X43957731Y-41758628D02*
X43576779Y-41758628D01*
X44576779Y-42234819D02*
X44576779Y-41234819D01*
X45243445Y-41234819D02*
X45433921Y-41234819D01*
X45433921Y-41234819D02*
X45529159Y-41282438D01*
X45529159Y-41282438D02*
X45624397Y-41377676D01*
X45624397Y-41377676D02*
X45672016Y-41568152D01*
X45672016Y-41568152D02*
X45672016Y-41901485D01*
X45672016Y-41901485D02*
X45624397Y-42091961D01*
X45624397Y-42091961D02*
X45529159Y-42187200D01*
X45529159Y-42187200D02*
X45433921Y-42234819D01*
X45433921Y-42234819D02*
X45243445Y-42234819D01*
X45243445Y-42234819D02*
X45148207Y-42187200D01*
X45148207Y-42187200D02*
X45052969Y-42091961D01*
X45052969Y-42091961D02*
X45005350Y-41901485D01*
X45005350Y-41901485D02*
X45005350Y-41568152D01*
X45005350Y-41568152D02*
X45052969Y-41377676D01*
X45052969Y-41377676D02*
X45148207Y-41282438D01*
X45148207Y-41282438D02*
X45243445Y-41234819D01*
X46624397Y-42234819D02*
X46052969Y-42234819D01*
X46338683Y-42234819D02*
X46338683Y-41234819D01*
X46338683Y-41234819D02*
X46243445Y-41377676D01*
X46243445Y-41377676D02*
X46148207Y-41472914D01*
X46148207Y-41472914D02*
X46052969Y-41520533D01*
X11741541Y-28534819D02*
X12360588Y-28534819D01*
X12360588Y-28534819D02*
X12027255Y-28915771D01*
X12027255Y-28915771D02*
X12170112Y-28915771D01*
X12170112Y-28915771D02*
X12265350Y-28963390D01*
X12265350Y-28963390D02*
X12312969Y-29011009D01*
X12312969Y-29011009D02*
X12360588Y-29106247D01*
X12360588Y-29106247D02*
X12360588Y-29344342D01*
X12360588Y-29344342D02*
X12312969Y-29439580D01*
X12312969Y-29439580D02*
X12265350Y-29487200D01*
X12265350Y-29487200D02*
X12170112Y-29534819D01*
X12170112Y-29534819D02*
X11884398Y-29534819D01*
X11884398Y-29534819D02*
X11789160Y-29487200D01*
X11789160Y-29487200D02*
X11741541Y-29439580D01*
X12646303Y-28534819D02*
X12979636Y-29534819D01*
X12979636Y-29534819D02*
X13312969Y-28534819D01*
X13551065Y-28534819D02*
X14170112Y-28534819D01*
X14170112Y-28534819D02*
X13836779Y-28915771D01*
X13836779Y-28915771D02*
X13979636Y-28915771D01*
X13979636Y-28915771D02*
X14074874Y-28963390D01*
X14074874Y-28963390D02*
X14122493Y-29011009D01*
X14122493Y-29011009D02*
X14170112Y-29106247D01*
X14170112Y-29106247D02*
X14170112Y-29344342D01*
X14170112Y-29344342D02*
X14122493Y-29439580D01*
X14122493Y-29439580D02*
X14074874Y-29487200D01*
X14074874Y-29487200D02*
X13979636Y-29534819D01*
X13979636Y-29534819D02*
X13693922Y-29534819D01*
X13693922Y-29534819D02*
X13598684Y-29487200D01*
X13598684Y-29487200D02*
X13551065Y-29439580D01*
D11*
X14894266Y-40500300D02*
X14370456Y-40500300D01*
X14370456Y-40500300D02*
X14370456Y-39400300D01*
X15260932Y-40500300D02*
X15260932Y-39766967D01*
X15260932Y-39400300D02*
X15208551Y-39452681D01*
X15208551Y-39452681D02*
X15260932Y-39505062D01*
X15260932Y-39505062D02*
X15313313Y-39452681D01*
X15313313Y-39452681D02*
X15260932Y-39400300D01*
X15260932Y-39400300D02*
X15260932Y-39505062D01*
X15784742Y-40081253D02*
X16622838Y-40081253D01*
X17146647Y-40500300D02*
X17146647Y-39766967D01*
X17146647Y-39400300D02*
X17094266Y-39452681D01*
X17094266Y-39452681D02*
X17146647Y-39505062D01*
X17146647Y-39505062D02*
X17199028Y-39452681D01*
X17199028Y-39452681D02*
X17146647Y-39400300D01*
X17146647Y-39400300D02*
X17146647Y-39505062D01*
X17827600Y-40500300D02*
X17722838Y-40447920D01*
X17722838Y-40447920D02*
X17670457Y-40395539D01*
X17670457Y-40395539D02*
X17618076Y-40290777D01*
X17618076Y-40290777D02*
X17618076Y-39976491D01*
X17618076Y-39976491D02*
X17670457Y-39871729D01*
X17670457Y-39871729D02*
X17722838Y-39819348D01*
X17722838Y-39819348D02*
X17827600Y-39766967D01*
X17827600Y-39766967D02*
X17984743Y-39766967D01*
X17984743Y-39766967D02*
X18089505Y-39819348D01*
X18089505Y-39819348D02*
X18141886Y-39871729D01*
X18141886Y-39871729D02*
X18194267Y-39976491D01*
X18194267Y-39976491D02*
X18194267Y-40290777D01*
X18194267Y-40290777D02*
X18141886Y-40395539D01*
X18141886Y-40395539D02*
X18089505Y-40447920D01*
X18089505Y-40447920D02*
X17984743Y-40500300D01*
X17984743Y-40500300D02*
X17827600Y-40500300D01*
X18665695Y-39766967D02*
X18665695Y-40500300D01*
X18665695Y-39871729D02*
X18718076Y-39819348D01*
X18718076Y-39819348D02*
X18822838Y-39766967D01*
X18822838Y-39766967D02*
X18979981Y-39766967D01*
X18979981Y-39766967D02*
X19084743Y-39819348D01*
X19084743Y-39819348D02*
X19137124Y-39924110D01*
X19137124Y-39924110D02*
X19137124Y-40500300D01*
X21075219Y-40500300D02*
X20446647Y-40500300D01*
X20760933Y-40500300D02*
X20760933Y-39400300D01*
X20760933Y-39400300D02*
X20656171Y-39557443D01*
X20656171Y-39557443D02*
X20551409Y-39662205D01*
X20551409Y-39662205D02*
X20446647Y-39714586D01*
X21494266Y-40447920D02*
X21651409Y-40500300D01*
X21651409Y-40500300D02*
X21913314Y-40500300D01*
X21913314Y-40500300D02*
X22018076Y-40447920D01*
X22018076Y-40447920D02*
X22070457Y-40395539D01*
X22070457Y-40395539D02*
X22122838Y-40290777D01*
X22122838Y-40290777D02*
X22122838Y-40186015D01*
X22122838Y-40186015D02*
X22070457Y-40081253D01*
X22070457Y-40081253D02*
X22018076Y-40028872D01*
X22018076Y-40028872D02*
X21913314Y-39976491D01*
X21913314Y-39976491D02*
X21703790Y-39924110D01*
X21703790Y-39924110D02*
X21599028Y-39871729D01*
X21599028Y-39871729D02*
X21546647Y-39819348D01*
X21546647Y-39819348D02*
X21494266Y-39714586D01*
X21494266Y-39714586D02*
X21494266Y-39609824D01*
X21494266Y-39609824D02*
X21546647Y-39505062D01*
X21546647Y-39505062D02*
X21599028Y-39452681D01*
X21599028Y-39452681D02*
X21703790Y-39400300D01*
X21703790Y-39400300D02*
X21965695Y-39400300D01*
X21965695Y-39400300D02*
X22122838Y-39452681D01*
D10*
X5765350Y-72407200D02*
X5670112Y-72454819D01*
X5670112Y-72454819D02*
X5479636Y-72454819D01*
X5479636Y-72454819D02*
X5384398Y-72407200D01*
X5384398Y-72407200D02*
X5336779Y-72359580D01*
X5336779Y-72359580D02*
X5289160Y-72264342D01*
X5289160Y-72264342D02*
X5289160Y-71978628D01*
X5289160Y-71978628D02*
X5336779Y-71883390D01*
X5336779Y-71883390D02*
X5384398Y-71835771D01*
X5384398Y-71835771D02*
X5479636Y-71788152D01*
X5479636Y-71788152D02*
X5670112Y-71788152D01*
X5670112Y-71788152D02*
X5765350Y-71835771D01*
X6193922Y-72454819D02*
X6193922Y-71454819D01*
X6622493Y-72454819D02*
X6622493Y-71931009D01*
X6622493Y-71931009D02*
X6574874Y-71835771D01*
X6574874Y-71835771D02*
X6479636Y-71788152D01*
X6479636Y-71788152D02*
X6336779Y-71788152D01*
X6336779Y-71788152D02*
X6241541Y-71835771D01*
X6241541Y-71835771D02*
X6193922Y-71883390D01*
X7479636Y-72407200D02*
X7384398Y-72454819D01*
X7384398Y-72454819D02*
X7193922Y-72454819D01*
X7193922Y-72454819D02*
X7098684Y-72407200D01*
X7098684Y-72407200D02*
X7051065Y-72311961D01*
X7051065Y-72311961D02*
X7051065Y-71931009D01*
X7051065Y-71931009D02*
X7098684Y-71835771D01*
X7098684Y-71835771D02*
X7193922Y-71788152D01*
X7193922Y-71788152D02*
X7384398Y-71788152D01*
X7384398Y-71788152D02*
X7479636Y-71835771D01*
X7479636Y-71835771D02*
X7527255Y-71931009D01*
X7527255Y-71931009D02*
X7527255Y-72026247D01*
X7527255Y-72026247D02*
X7051065Y-72121485D01*
X8384398Y-72407200D02*
X8289160Y-72454819D01*
X8289160Y-72454819D02*
X8098684Y-72454819D01*
X8098684Y-72454819D02*
X8003446Y-72407200D01*
X8003446Y-72407200D02*
X7955827Y-72359580D01*
X7955827Y-72359580D02*
X7908208Y-72264342D01*
X7908208Y-72264342D02*
X7908208Y-71978628D01*
X7908208Y-71978628D02*
X7955827Y-71883390D01*
X7955827Y-71883390D02*
X8003446Y-71835771D01*
X8003446Y-71835771D02*
X8098684Y-71788152D01*
X8098684Y-71788152D02*
X8289160Y-71788152D01*
X8289160Y-71788152D02*
X8384398Y-71835771D01*
X8812970Y-72454819D02*
X8812970Y-71454819D01*
X8908208Y-72073866D02*
X9193922Y-72454819D01*
X9193922Y-71788152D02*
X8812970Y-72169104D01*
X10717732Y-71931009D02*
X10384399Y-71931009D01*
X10384399Y-72454819D02*
X10384399Y-71454819D01*
X10384399Y-71454819D02*
X10860589Y-71454819D01*
X11241542Y-72454819D02*
X11241542Y-71788152D01*
X11241542Y-71454819D02*
X11193923Y-71502438D01*
X11193923Y-71502438D02*
X11241542Y-71550057D01*
X11241542Y-71550057D02*
X11289161Y-71502438D01*
X11289161Y-71502438D02*
X11241542Y-71454819D01*
X11241542Y-71454819D02*
X11241542Y-71550057D01*
X11574875Y-71788152D02*
X11955827Y-71788152D01*
X11717732Y-71454819D02*
X11717732Y-72311961D01*
X11717732Y-72311961D02*
X11765351Y-72407200D01*
X11765351Y-72407200D02*
X11860589Y-72454819D01*
X11860589Y-72454819D02*
X11955827Y-72454819D01*
X12860589Y-72359580D02*
X12812970Y-72407200D01*
X12812970Y-72407200D02*
X12670113Y-72454819D01*
X12670113Y-72454819D02*
X12574875Y-72454819D01*
X12574875Y-72454819D02*
X12432018Y-72407200D01*
X12432018Y-72407200D02*
X12336780Y-72311961D01*
X12336780Y-72311961D02*
X12289161Y-72216723D01*
X12289161Y-72216723D02*
X12241542Y-72026247D01*
X12241542Y-72026247D02*
X12241542Y-71883390D01*
X12241542Y-71883390D02*
X12289161Y-71692914D01*
X12289161Y-71692914D02*
X12336780Y-71597676D01*
X12336780Y-71597676D02*
X12432018Y-71502438D01*
X12432018Y-71502438D02*
X12574875Y-71454819D01*
X12574875Y-71454819D02*
X12670113Y-71454819D01*
X12670113Y-71454819D02*
X12812970Y-71502438D01*
X12812970Y-71502438D02*
X12860589Y-71550057D01*
X13289161Y-72454819D02*
X13289161Y-71454819D01*
X13717732Y-72454819D02*
X13717732Y-71931009D01*
X13717732Y-71931009D02*
X13670113Y-71835771D01*
X13670113Y-71835771D02*
X13574875Y-71788152D01*
X13574875Y-71788152D02*
X13432018Y-71788152D01*
X13432018Y-71788152D02*
X13336780Y-71835771D01*
X13336780Y-71835771D02*
X13289161Y-71883390D01*
X14574875Y-72407200D02*
X14479637Y-72454819D01*
X14479637Y-72454819D02*
X14289161Y-72454819D01*
X14289161Y-72454819D02*
X14193923Y-72407200D01*
X14193923Y-72407200D02*
X14146304Y-72311961D01*
X14146304Y-72311961D02*
X14146304Y-71931009D01*
X14146304Y-71931009D02*
X14193923Y-71835771D01*
X14193923Y-71835771D02*
X14289161Y-71788152D01*
X14289161Y-71788152D02*
X14479637Y-71788152D01*
X14479637Y-71788152D02*
X14574875Y-71835771D01*
X14574875Y-71835771D02*
X14622494Y-71931009D01*
X14622494Y-71931009D02*
X14622494Y-72026247D01*
X14622494Y-72026247D02*
X14146304Y-72121485D01*
X15479637Y-72407200D02*
X15384399Y-72454819D01*
X15384399Y-72454819D02*
X15193923Y-72454819D01*
X15193923Y-72454819D02*
X15098685Y-72407200D01*
X15098685Y-72407200D02*
X15051066Y-72359580D01*
X15051066Y-72359580D02*
X15003447Y-72264342D01*
X15003447Y-72264342D02*
X15003447Y-71978628D01*
X15003447Y-71978628D02*
X15051066Y-71883390D01*
X15051066Y-71883390D02*
X15098685Y-71835771D01*
X15098685Y-71835771D02*
X15193923Y-71788152D01*
X15193923Y-71788152D02*
X15384399Y-71788152D01*
X15384399Y-71788152D02*
X15479637Y-71835771D01*
X15908209Y-72454819D02*
X15908209Y-71454819D01*
X16003447Y-72073866D02*
X16289161Y-72454819D01*
X16289161Y-71788152D02*
X15908209Y-72169104D01*
X16717733Y-72359580D02*
X16765352Y-72407200D01*
X16765352Y-72407200D02*
X16717733Y-72454819D01*
X16717733Y-72454819D02*
X16670114Y-72407200D01*
X16670114Y-72407200D02*
X16717733Y-72359580D01*
X16717733Y-72359580D02*
X16717733Y-72454819D01*
X17193923Y-71788152D02*
X17193923Y-72788152D01*
X17193923Y-71835771D02*
X17289161Y-71788152D01*
X17289161Y-71788152D02*
X17479637Y-71788152D01*
X17479637Y-71788152D02*
X17574875Y-71835771D01*
X17574875Y-71835771D02*
X17622494Y-71883390D01*
X17622494Y-71883390D02*
X17670113Y-71978628D01*
X17670113Y-71978628D02*
X17670113Y-72264342D01*
X17670113Y-72264342D02*
X17622494Y-72359580D01*
X17622494Y-72359580D02*
X17574875Y-72407200D01*
X17574875Y-72407200D02*
X17479637Y-72454819D01*
X17479637Y-72454819D02*
X17289161Y-72454819D01*
X17289161Y-72454819D02*
X17193923Y-72407200D01*
X18527256Y-72454819D02*
X18527256Y-71454819D01*
X18527256Y-72407200D02*
X18432018Y-72454819D01*
X18432018Y-72454819D02*
X18241542Y-72454819D01*
X18241542Y-72454819D02*
X18146304Y-72407200D01*
X18146304Y-72407200D02*
X18098685Y-72359580D01*
X18098685Y-72359580D02*
X18051066Y-72264342D01*
X18051066Y-72264342D02*
X18051066Y-71978628D01*
X18051066Y-71978628D02*
X18098685Y-71883390D01*
X18098685Y-71883390D02*
X18146304Y-71835771D01*
X18146304Y-71835771D02*
X18241542Y-71788152D01*
X18241542Y-71788152D02*
X18432018Y-71788152D01*
X18432018Y-71788152D02*
X18527256Y-71835771D01*
X18860590Y-71788152D02*
X19241542Y-71788152D01*
X19003447Y-72454819D02*
X19003447Y-71597676D01*
X19003447Y-71597676D02*
X19051066Y-71502438D01*
X19051066Y-71502438D02*
X19146304Y-71454819D01*
X19146304Y-71454819D02*
X19241542Y-71454819D01*
X20765352Y-72454819D02*
X20765352Y-71931009D01*
X20765352Y-71931009D02*
X20717733Y-71835771D01*
X20717733Y-71835771D02*
X20622495Y-71788152D01*
X20622495Y-71788152D02*
X20432019Y-71788152D01*
X20432019Y-71788152D02*
X20336781Y-71835771D01*
X20765352Y-72407200D02*
X20670114Y-72454819D01*
X20670114Y-72454819D02*
X20432019Y-72454819D01*
X20432019Y-72454819D02*
X20336781Y-72407200D01*
X20336781Y-72407200D02*
X20289162Y-72311961D01*
X20289162Y-72311961D02*
X20289162Y-72216723D01*
X20289162Y-72216723D02*
X20336781Y-72121485D01*
X20336781Y-72121485D02*
X20432019Y-72073866D01*
X20432019Y-72073866D02*
X20670114Y-72073866D01*
X20670114Y-72073866D02*
X20765352Y-72026247D01*
X21098686Y-71788152D02*
X21479638Y-71788152D01*
X21241543Y-71454819D02*
X21241543Y-72311961D01*
X21241543Y-72311961D02*
X21289162Y-72407200D01*
X21289162Y-72407200D02*
X21384400Y-72454819D01*
X21384400Y-72454819D02*
X21479638Y-72454819D01*
X23098686Y-72454819D02*
X22527258Y-72454819D01*
X22812972Y-72454819D02*
X22812972Y-71454819D01*
X22812972Y-71454819D02*
X22717734Y-71597676D01*
X22717734Y-71597676D02*
X22622496Y-71692914D01*
X22622496Y-71692914D02*
X22527258Y-71740533D01*
X23717734Y-71454819D02*
X23812972Y-71454819D01*
X23812972Y-71454819D02*
X23908210Y-71502438D01*
X23908210Y-71502438D02*
X23955829Y-71550057D01*
X23955829Y-71550057D02*
X24003448Y-71645295D01*
X24003448Y-71645295D02*
X24051067Y-71835771D01*
X24051067Y-71835771D02*
X24051067Y-72073866D01*
X24051067Y-72073866D02*
X24003448Y-72264342D01*
X24003448Y-72264342D02*
X23955829Y-72359580D01*
X23955829Y-72359580D02*
X23908210Y-72407200D01*
X23908210Y-72407200D02*
X23812972Y-72454819D01*
X23812972Y-72454819D02*
X23717734Y-72454819D01*
X23717734Y-72454819D02*
X23622496Y-72407200D01*
X23622496Y-72407200D02*
X23574877Y-72359580D01*
X23574877Y-72359580D02*
X23527258Y-72264342D01*
X23527258Y-72264342D02*
X23479639Y-72073866D01*
X23479639Y-72073866D02*
X23479639Y-71835771D01*
X23479639Y-71835771D02*
X23527258Y-71645295D01*
X23527258Y-71645295D02*
X23574877Y-71550057D01*
X23574877Y-71550057D02*
X23622496Y-71502438D01*
X23622496Y-71502438D02*
X23717734Y-71454819D01*
X24670115Y-71454819D02*
X24765353Y-71454819D01*
X24765353Y-71454819D02*
X24860591Y-71502438D01*
X24860591Y-71502438D02*
X24908210Y-71550057D01*
X24908210Y-71550057D02*
X24955829Y-71645295D01*
X24955829Y-71645295D02*
X25003448Y-71835771D01*
X25003448Y-71835771D02*
X25003448Y-72073866D01*
X25003448Y-72073866D02*
X24955829Y-72264342D01*
X24955829Y-72264342D02*
X24908210Y-72359580D01*
X24908210Y-72359580D02*
X24860591Y-72407200D01*
X24860591Y-72407200D02*
X24765353Y-72454819D01*
X24765353Y-72454819D02*
X24670115Y-72454819D01*
X24670115Y-72454819D02*
X24574877Y-72407200D01*
X24574877Y-72407200D02*
X24527258Y-72359580D01*
X24527258Y-72359580D02*
X24479639Y-72264342D01*
X24479639Y-72264342D02*
X24432020Y-72073866D01*
X24432020Y-72073866D02*
X24432020Y-71835771D01*
X24432020Y-71835771D02*
X24479639Y-71645295D01*
X24479639Y-71645295D02*
X24527258Y-71550057D01*
X24527258Y-71550057D02*
X24574877Y-71502438D01*
X24574877Y-71502438D02*
X24670115Y-71454819D01*
X25384401Y-72454819D02*
X26146305Y-71454819D01*
X25527258Y-71454819D02*
X25622496Y-71502438D01*
X25622496Y-71502438D02*
X25670115Y-71597676D01*
X25670115Y-71597676D02*
X25622496Y-71692914D01*
X25622496Y-71692914D02*
X25527258Y-71740533D01*
X25527258Y-71740533D02*
X25432020Y-71692914D01*
X25432020Y-71692914D02*
X25384401Y-71597676D01*
X25384401Y-71597676D02*
X25432020Y-71502438D01*
X25432020Y-71502438D02*
X25527258Y-71454819D01*
X26098686Y-72407200D02*
X26146305Y-72311961D01*
X26146305Y-72311961D02*
X26098686Y-72216723D01*
X26098686Y-72216723D02*
X26003448Y-72169104D01*
X26003448Y-72169104D02*
X25908210Y-72216723D01*
X25908210Y-72216723D02*
X25860591Y-72311961D01*
X25860591Y-72311961D02*
X25908210Y-72407200D01*
X25908210Y-72407200D02*
X26003448Y-72454819D01*
X26003448Y-72454819D02*
X26098686Y-72407200D01*
X27289163Y-72407200D02*
X27384401Y-72454819D01*
X27384401Y-72454819D02*
X27574877Y-72454819D01*
X27574877Y-72454819D02*
X27670115Y-72407200D01*
X27670115Y-72407200D02*
X27717734Y-72311961D01*
X27717734Y-72311961D02*
X27717734Y-72264342D01*
X27717734Y-72264342D02*
X27670115Y-72169104D01*
X27670115Y-72169104D02*
X27574877Y-72121485D01*
X27574877Y-72121485D02*
X27432020Y-72121485D01*
X27432020Y-72121485D02*
X27336782Y-72073866D01*
X27336782Y-72073866D02*
X27289163Y-71978628D01*
X27289163Y-71978628D02*
X27289163Y-71931009D01*
X27289163Y-71931009D02*
X27336782Y-71835771D01*
X27336782Y-71835771D02*
X27432020Y-71788152D01*
X27432020Y-71788152D02*
X27574877Y-71788152D01*
X27574877Y-71788152D02*
X27670115Y-71835771D01*
X28574877Y-72407200D02*
X28479639Y-72454819D01*
X28479639Y-72454819D02*
X28289163Y-72454819D01*
X28289163Y-72454819D02*
X28193925Y-72407200D01*
X28193925Y-72407200D02*
X28146306Y-72359580D01*
X28146306Y-72359580D02*
X28098687Y-72264342D01*
X28098687Y-72264342D02*
X28098687Y-71978628D01*
X28098687Y-71978628D02*
X28146306Y-71883390D01*
X28146306Y-71883390D02*
X28193925Y-71835771D01*
X28193925Y-71835771D02*
X28289163Y-71788152D01*
X28289163Y-71788152D02*
X28479639Y-71788152D01*
X28479639Y-71788152D02*
X28574877Y-71835771D01*
X29432020Y-72454819D02*
X29432020Y-71931009D01*
X29432020Y-71931009D02*
X29384401Y-71835771D01*
X29384401Y-71835771D02*
X29289163Y-71788152D01*
X29289163Y-71788152D02*
X29098687Y-71788152D01*
X29098687Y-71788152D02*
X29003449Y-71835771D01*
X29432020Y-72407200D02*
X29336782Y-72454819D01*
X29336782Y-72454819D02*
X29098687Y-72454819D01*
X29098687Y-72454819D02*
X29003449Y-72407200D01*
X29003449Y-72407200D02*
X28955830Y-72311961D01*
X28955830Y-72311961D02*
X28955830Y-72216723D01*
X28955830Y-72216723D02*
X29003449Y-72121485D01*
X29003449Y-72121485D02*
X29098687Y-72073866D01*
X29098687Y-72073866D02*
X29336782Y-72073866D01*
X29336782Y-72073866D02*
X29432020Y-72026247D01*
X30051068Y-72454819D02*
X29955830Y-72407200D01*
X29955830Y-72407200D02*
X29908211Y-72311961D01*
X29908211Y-72311961D02*
X29908211Y-71454819D01*
X30812973Y-72407200D02*
X30717735Y-72454819D01*
X30717735Y-72454819D02*
X30527259Y-72454819D01*
X30527259Y-72454819D02*
X30432021Y-72407200D01*
X30432021Y-72407200D02*
X30384402Y-72311961D01*
X30384402Y-72311961D02*
X30384402Y-71931009D01*
X30384402Y-71931009D02*
X30432021Y-71835771D01*
X30432021Y-71835771D02*
X30527259Y-71788152D01*
X30527259Y-71788152D02*
X30717735Y-71788152D01*
X30717735Y-71788152D02*
X30812973Y-71835771D01*
X30812973Y-71835771D02*
X30860592Y-71931009D01*
X30860592Y-71931009D02*
X30860592Y-72026247D01*
X30860592Y-72026247D02*
X30384402Y-72121485D01*
X32051069Y-72454819D02*
X32051069Y-71454819D01*
X32051069Y-71835771D02*
X32146307Y-71788152D01*
X32146307Y-71788152D02*
X32336783Y-71788152D01*
X32336783Y-71788152D02*
X32432021Y-71835771D01*
X32432021Y-71835771D02*
X32479640Y-71883390D01*
X32479640Y-71883390D02*
X32527259Y-71978628D01*
X32527259Y-71978628D02*
X32527259Y-72264342D01*
X32527259Y-72264342D02*
X32479640Y-72359580D01*
X32479640Y-72359580D02*
X32432021Y-72407200D01*
X32432021Y-72407200D02*
X32336783Y-72454819D01*
X32336783Y-72454819D02*
X32146307Y-72454819D01*
X32146307Y-72454819D02*
X32051069Y-72407200D01*
X33336783Y-72407200D02*
X33241545Y-72454819D01*
X33241545Y-72454819D02*
X33051069Y-72454819D01*
X33051069Y-72454819D02*
X32955831Y-72407200D01*
X32955831Y-72407200D02*
X32908212Y-72311961D01*
X32908212Y-72311961D02*
X32908212Y-71931009D01*
X32908212Y-71931009D02*
X32955831Y-71835771D01*
X32955831Y-71835771D02*
X33051069Y-71788152D01*
X33051069Y-71788152D02*
X33241545Y-71788152D01*
X33241545Y-71788152D02*
X33336783Y-71835771D01*
X33336783Y-71835771D02*
X33384402Y-71931009D01*
X33384402Y-71931009D02*
X33384402Y-72026247D01*
X33384402Y-72026247D02*
X32908212Y-72121485D01*
X33670117Y-71788152D02*
X34051069Y-71788152D01*
X33812974Y-72454819D02*
X33812974Y-71597676D01*
X33812974Y-71597676D02*
X33860593Y-71502438D01*
X33860593Y-71502438D02*
X33955831Y-71454819D01*
X33955831Y-71454819D02*
X34051069Y-71454819D01*
X34527260Y-72454819D02*
X34432022Y-72407200D01*
X34432022Y-72407200D02*
X34384403Y-72359580D01*
X34384403Y-72359580D02*
X34336784Y-72264342D01*
X34336784Y-72264342D02*
X34336784Y-71978628D01*
X34336784Y-71978628D02*
X34384403Y-71883390D01*
X34384403Y-71883390D02*
X34432022Y-71835771D01*
X34432022Y-71835771D02*
X34527260Y-71788152D01*
X34527260Y-71788152D02*
X34670117Y-71788152D01*
X34670117Y-71788152D02*
X34765355Y-71835771D01*
X34765355Y-71835771D02*
X34812974Y-71883390D01*
X34812974Y-71883390D02*
X34860593Y-71978628D01*
X34860593Y-71978628D02*
X34860593Y-72264342D01*
X34860593Y-72264342D02*
X34812974Y-72359580D01*
X34812974Y-72359580D02*
X34765355Y-72407200D01*
X34765355Y-72407200D02*
X34670117Y-72454819D01*
X34670117Y-72454819D02*
X34527260Y-72454819D01*
X35289165Y-72454819D02*
X35289165Y-71788152D01*
X35289165Y-71978628D02*
X35336784Y-71883390D01*
X35336784Y-71883390D02*
X35384403Y-71835771D01*
X35384403Y-71835771D02*
X35479641Y-71788152D01*
X35479641Y-71788152D02*
X35574879Y-71788152D01*
X36289165Y-72407200D02*
X36193927Y-72454819D01*
X36193927Y-72454819D02*
X36003451Y-72454819D01*
X36003451Y-72454819D02*
X35908213Y-72407200D01*
X35908213Y-72407200D02*
X35860594Y-72311961D01*
X35860594Y-72311961D02*
X35860594Y-71931009D01*
X35860594Y-71931009D02*
X35908213Y-71835771D01*
X35908213Y-71835771D02*
X36003451Y-71788152D01*
X36003451Y-71788152D02*
X36193927Y-71788152D01*
X36193927Y-71788152D02*
X36289165Y-71835771D01*
X36289165Y-71835771D02*
X36336784Y-71931009D01*
X36336784Y-71931009D02*
X36336784Y-72026247D01*
X36336784Y-72026247D02*
X35860594Y-72121485D01*
X37670118Y-72454819D02*
X37574880Y-72407200D01*
X37574880Y-72407200D02*
X37527261Y-72359580D01*
X37527261Y-72359580D02*
X37479642Y-72264342D01*
X37479642Y-72264342D02*
X37479642Y-71978628D01*
X37479642Y-71978628D02*
X37527261Y-71883390D01*
X37527261Y-71883390D02*
X37574880Y-71835771D01*
X37574880Y-71835771D02*
X37670118Y-71788152D01*
X37670118Y-71788152D02*
X37812975Y-71788152D01*
X37812975Y-71788152D02*
X37908213Y-71835771D01*
X37908213Y-71835771D02*
X37955832Y-71883390D01*
X37955832Y-71883390D02*
X38003451Y-71978628D01*
X38003451Y-71978628D02*
X38003451Y-72264342D01*
X38003451Y-72264342D02*
X37955832Y-72359580D01*
X37955832Y-72359580D02*
X37908213Y-72407200D01*
X37908213Y-72407200D02*
X37812975Y-72454819D01*
X37812975Y-72454819D02*
X37670118Y-72454819D01*
X38432023Y-72454819D02*
X38432023Y-71788152D01*
X38432023Y-71978628D02*
X38479642Y-71883390D01*
X38479642Y-71883390D02*
X38527261Y-71835771D01*
X38527261Y-71835771D02*
X38622499Y-71788152D01*
X38622499Y-71788152D02*
X38717737Y-71788152D01*
X39479642Y-72454819D02*
X39479642Y-71454819D01*
X39479642Y-72407200D02*
X39384404Y-72454819D01*
X39384404Y-72454819D02*
X39193928Y-72454819D01*
X39193928Y-72454819D02*
X39098690Y-72407200D01*
X39098690Y-72407200D02*
X39051071Y-72359580D01*
X39051071Y-72359580D02*
X39003452Y-72264342D01*
X39003452Y-72264342D02*
X39003452Y-71978628D01*
X39003452Y-71978628D02*
X39051071Y-71883390D01*
X39051071Y-71883390D02*
X39098690Y-71835771D01*
X39098690Y-71835771D02*
X39193928Y-71788152D01*
X39193928Y-71788152D02*
X39384404Y-71788152D01*
X39384404Y-71788152D02*
X39479642Y-71835771D01*
X40336785Y-72407200D02*
X40241547Y-72454819D01*
X40241547Y-72454819D02*
X40051071Y-72454819D01*
X40051071Y-72454819D02*
X39955833Y-72407200D01*
X39955833Y-72407200D02*
X39908214Y-72311961D01*
X39908214Y-72311961D02*
X39908214Y-71931009D01*
X39908214Y-71931009D02*
X39955833Y-71835771D01*
X39955833Y-71835771D02*
X40051071Y-71788152D01*
X40051071Y-71788152D02*
X40241547Y-71788152D01*
X40241547Y-71788152D02*
X40336785Y-71835771D01*
X40336785Y-71835771D02*
X40384404Y-71931009D01*
X40384404Y-71931009D02*
X40384404Y-72026247D01*
X40384404Y-72026247D02*
X39908214Y-72121485D01*
X40812976Y-72454819D02*
X40812976Y-71788152D01*
X40812976Y-71978628D02*
X40860595Y-71883390D01*
X40860595Y-71883390D02*
X40908214Y-71835771D01*
X40908214Y-71835771D02*
X41003452Y-71788152D01*
X41003452Y-71788152D02*
X41098690Y-71788152D01*
X41432024Y-72454819D02*
X41432024Y-71788152D01*
X41432024Y-71454819D02*
X41384405Y-71502438D01*
X41384405Y-71502438D02*
X41432024Y-71550057D01*
X41432024Y-71550057D02*
X41479643Y-71502438D01*
X41479643Y-71502438D02*
X41432024Y-71454819D01*
X41432024Y-71454819D02*
X41432024Y-71550057D01*
X41908214Y-71788152D02*
X41908214Y-72454819D01*
X41908214Y-71883390D02*
X41955833Y-71835771D01*
X41955833Y-71835771D02*
X42051071Y-71788152D01*
X42051071Y-71788152D02*
X42193928Y-71788152D01*
X42193928Y-71788152D02*
X42289166Y-71835771D01*
X42289166Y-71835771D02*
X42336785Y-71931009D01*
X42336785Y-71931009D02*
X42336785Y-72454819D01*
X43241547Y-71788152D02*
X43241547Y-72597676D01*
X43241547Y-72597676D02*
X43193928Y-72692914D01*
X43193928Y-72692914D02*
X43146309Y-72740533D01*
X43146309Y-72740533D02*
X43051071Y-72788152D01*
X43051071Y-72788152D02*
X42908214Y-72788152D01*
X42908214Y-72788152D02*
X42812976Y-72740533D01*
X43241547Y-72407200D02*
X43146309Y-72454819D01*
X43146309Y-72454819D02*
X42955833Y-72454819D01*
X42955833Y-72454819D02*
X42860595Y-72407200D01*
X42860595Y-72407200D02*
X42812976Y-72359580D01*
X42812976Y-72359580D02*
X42765357Y-72264342D01*
X42765357Y-72264342D02*
X42765357Y-71978628D01*
X42765357Y-71978628D02*
X42812976Y-71883390D01*
X42812976Y-71883390D02*
X42860595Y-71835771D01*
X42860595Y-71835771D02*
X42955833Y-71788152D01*
X42955833Y-71788152D02*
X43146309Y-71788152D01*
X43146309Y-71788152D02*
X43241547Y-71835771D01*
D11*
X52370456Y-52500300D02*
X52370456Y-51400300D01*
X52370456Y-51400300D02*
X52789504Y-51400300D01*
X52789504Y-51400300D02*
X52894266Y-51452681D01*
X52894266Y-51452681D02*
X52946647Y-51505062D01*
X52946647Y-51505062D02*
X52999028Y-51609824D01*
X52999028Y-51609824D02*
X52999028Y-51766967D01*
X52999028Y-51766967D02*
X52946647Y-51871729D01*
X52946647Y-51871729D02*
X52894266Y-51924110D01*
X52894266Y-51924110D02*
X52789504Y-51976491D01*
X52789504Y-51976491D02*
X52370456Y-51976491D01*
X53627599Y-52500300D02*
X53522837Y-52447920D01*
X53522837Y-52447920D02*
X53470456Y-52395539D01*
X53470456Y-52395539D02*
X53418075Y-52290777D01*
X53418075Y-52290777D02*
X53418075Y-51976491D01*
X53418075Y-51976491D02*
X53470456Y-51871729D01*
X53470456Y-51871729D02*
X53522837Y-51819348D01*
X53522837Y-51819348D02*
X53627599Y-51766967D01*
X53627599Y-51766967D02*
X53784742Y-51766967D01*
X53784742Y-51766967D02*
X53889504Y-51819348D01*
X53889504Y-51819348D02*
X53941885Y-51871729D01*
X53941885Y-51871729D02*
X53994266Y-51976491D01*
X53994266Y-51976491D02*
X53994266Y-52290777D01*
X53994266Y-52290777D02*
X53941885Y-52395539D01*
X53941885Y-52395539D02*
X53889504Y-52447920D01*
X53889504Y-52447920D02*
X53784742Y-52500300D01*
X53784742Y-52500300D02*
X53627599Y-52500300D01*
X54360932Y-51766967D02*
X54570456Y-52500300D01*
X54570456Y-52500300D02*
X54779980Y-51976491D01*
X54779980Y-51976491D02*
X54989504Y-52500300D01*
X54989504Y-52500300D02*
X55199028Y-51766967D01*
X56037123Y-52447920D02*
X55932361Y-52500300D01*
X55932361Y-52500300D02*
X55722837Y-52500300D01*
X55722837Y-52500300D02*
X55618075Y-52447920D01*
X55618075Y-52447920D02*
X55565694Y-52343158D01*
X55565694Y-52343158D02*
X55565694Y-51924110D01*
X55565694Y-51924110D02*
X55618075Y-51819348D01*
X55618075Y-51819348D02*
X55722837Y-51766967D01*
X55722837Y-51766967D02*
X55932361Y-51766967D01*
X55932361Y-51766967D02*
X56037123Y-51819348D01*
X56037123Y-51819348D02*
X56089504Y-51924110D01*
X56089504Y-51924110D02*
X56089504Y-52028872D01*
X56089504Y-52028872D02*
X55565694Y-52133634D01*
X56560932Y-52500300D02*
X56560932Y-51766967D01*
X56560932Y-51976491D02*
X56613313Y-51871729D01*
X56613313Y-51871729D02*
X56665694Y-51819348D01*
X56665694Y-51819348D02*
X56770456Y-51766967D01*
X56770456Y-51766967D02*
X56875218Y-51766967D01*
X58865694Y-51347920D02*
X57922836Y-52762205D01*
X60018074Y-52447920D02*
X60122836Y-52500300D01*
X60122836Y-52500300D02*
X60332360Y-52500300D01*
X60332360Y-52500300D02*
X60437122Y-52447920D01*
X60437122Y-52447920D02*
X60489503Y-52343158D01*
X60489503Y-52343158D02*
X60489503Y-52290777D01*
X60489503Y-52290777D02*
X60437122Y-52186015D01*
X60437122Y-52186015D02*
X60332360Y-52133634D01*
X60332360Y-52133634D02*
X60175217Y-52133634D01*
X60175217Y-52133634D02*
X60070455Y-52081253D01*
X60070455Y-52081253D02*
X60018074Y-51976491D01*
X60018074Y-51976491D02*
X60018074Y-51924110D01*
X60018074Y-51924110D02*
X60070455Y-51819348D01*
X60070455Y-51819348D02*
X60175217Y-51766967D01*
X60175217Y-51766967D02*
X60332360Y-51766967D01*
X60332360Y-51766967D02*
X60437122Y-51819348D01*
X60960931Y-51766967D02*
X60960931Y-52500300D01*
X60960931Y-51871729D02*
X61013312Y-51819348D01*
X61013312Y-51819348D02*
X61118074Y-51766967D01*
X61118074Y-51766967D02*
X61275217Y-51766967D01*
X61275217Y-51766967D02*
X61379979Y-51819348D01*
X61379979Y-51819348D02*
X61432360Y-51924110D01*
X61432360Y-51924110D02*
X61432360Y-52500300D01*
X62113312Y-52500300D02*
X62008550Y-52447920D01*
X62008550Y-52447920D02*
X61956169Y-52395539D01*
X61956169Y-52395539D02*
X61903788Y-52290777D01*
X61903788Y-52290777D02*
X61903788Y-51976491D01*
X61903788Y-51976491D02*
X61956169Y-51871729D01*
X61956169Y-51871729D02*
X62008550Y-51819348D01*
X62008550Y-51819348D02*
X62113312Y-51766967D01*
X62113312Y-51766967D02*
X62270455Y-51766967D01*
X62270455Y-51766967D02*
X62375217Y-51819348D01*
X62375217Y-51819348D02*
X62427598Y-51871729D01*
X62427598Y-51871729D02*
X62479979Y-51976491D01*
X62479979Y-51976491D02*
X62479979Y-52290777D01*
X62479979Y-52290777D02*
X62427598Y-52395539D01*
X62427598Y-52395539D02*
X62375217Y-52447920D01*
X62375217Y-52447920D02*
X62270455Y-52500300D01*
X62270455Y-52500300D02*
X62113312Y-52500300D01*
X63108550Y-52500300D02*
X63003788Y-52447920D01*
X63003788Y-52447920D02*
X62951407Y-52395539D01*
X62951407Y-52395539D02*
X62899026Y-52290777D01*
X62899026Y-52290777D02*
X62899026Y-51976491D01*
X62899026Y-51976491D02*
X62951407Y-51871729D01*
X62951407Y-51871729D02*
X63003788Y-51819348D01*
X63003788Y-51819348D02*
X63108550Y-51766967D01*
X63108550Y-51766967D02*
X63265693Y-51766967D01*
X63265693Y-51766967D02*
X63370455Y-51819348D01*
X63370455Y-51819348D02*
X63422836Y-51871729D01*
X63422836Y-51871729D02*
X63475217Y-51976491D01*
X63475217Y-51976491D02*
X63475217Y-52290777D01*
X63475217Y-52290777D02*
X63422836Y-52395539D01*
X63422836Y-52395539D02*
X63370455Y-52447920D01*
X63370455Y-52447920D02*
X63265693Y-52500300D01*
X63265693Y-52500300D02*
X63108550Y-52500300D01*
X63841883Y-51766967D02*
X64418074Y-51766967D01*
X64418074Y-51766967D02*
X63841883Y-52500300D01*
X63841883Y-52500300D02*
X64418074Y-52500300D01*
X65256169Y-52447920D02*
X65151407Y-52500300D01*
X65151407Y-52500300D02*
X64941883Y-52500300D01*
X64941883Y-52500300D02*
X64837121Y-52447920D01*
X64837121Y-52447920D02*
X64784740Y-52343158D01*
X64784740Y-52343158D02*
X64784740Y-51924110D01*
X64784740Y-51924110D02*
X64837121Y-51819348D01*
X64837121Y-51819348D02*
X64941883Y-51766967D01*
X64941883Y-51766967D02*
X65151407Y-51766967D01*
X65151407Y-51766967D02*
X65256169Y-51819348D01*
X65256169Y-51819348D02*
X65308550Y-51924110D01*
X65308550Y-51924110D02*
X65308550Y-52028872D01*
X65308550Y-52028872D02*
X64784740Y-52133634D01*
D12*
X5437812Y-75591264D02*
X5437812Y-74291264D01*
X5437812Y-74291264D02*
X5871146Y-75219836D01*
X5871146Y-75219836D02*
X6304479Y-74291264D01*
X6304479Y-74291264D02*
X6304479Y-75591264D01*
X7171145Y-74291264D02*
X7418764Y-74291264D01*
X7418764Y-74291264D02*
X7542574Y-74353169D01*
X7542574Y-74353169D02*
X7666383Y-74476979D01*
X7666383Y-74476979D02*
X7728288Y-74724598D01*
X7728288Y-74724598D02*
X7728288Y-75157931D01*
X7728288Y-75157931D02*
X7666383Y-75405550D01*
X7666383Y-75405550D02*
X7542574Y-75529360D01*
X7542574Y-75529360D02*
X7418764Y-75591264D01*
X7418764Y-75591264D02*
X7171145Y-75591264D01*
X7171145Y-75591264D02*
X7047336Y-75529360D01*
X7047336Y-75529360D02*
X6923526Y-75405550D01*
X6923526Y-75405550D02*
X6861622Y-75157931D01*
X6861622Y-75157931D02*
X6861622Y-74724598D01*
X6861622Y-74724598D02*
X6923526Y-74476979D01*
X6923526Y-74476979D02*
X7047336Y-74353169D01*
X7047336Y-74353169D02*
X7171145Y-74291264D01*
X8285431Y-75591264D02*
X8285431Y-74291264D01*
X8285431Y-74291264D02*
X8594955Y-74291264D01*
X8594955Y-74291264D02*
X8780669Y-74353169D01*
X8780669Y-74353169D02*
X8904479Y-74476979D01*
X8904479Y-74476979D02*
X8966384Y-74600788D01*
X8966384Y-74600788D02*
X9028288Y-74848407D01*
X9028288Y-74848407D02*
X9028288Y-75034121D01*
X9028288Y-75034121D02*
X8966384Y-75281740D01*
X8966384Y-75281740D02*
X8904479Y-75405550D01*
X8904479Y-75405550D02*
X8780669Y-75529360D01*
X8780669Y-75529360D02*
X8594955Y-75591264D01*
X8594955Y-75591264D02*
X8285431Y-75591264D01*
X9585431Y-74291264D02*
X9585431Y-75343645D01*
X9585431Y-75343645D02*
X9647336Y-75467455D01*
X9647336Y-75467455D02*
X9709241Y-75529360D01*
X9709241Y-75529360D02*
X9833050Y-75591264D01*
X9833050Y-75591264D02*
X10080669Y-75591264D01*
X10080669Y-75591264D02*
X10204479Y-75529360D01*
X10204479Y-75529360D02*
X10266384Y-75467455D01*
X10266384Y-75467455D02*
X10328288Y-75343645D01*
X10328288Y-75343645D02*
X10328288Y-74291264D01*
X11566384Y-75591264D02*
X10947336Y-75591264D01*
X10947336Y-75591264D02*
X10947336Y-74291264D01*
X11999717Y-74910312D02*
X12433051Y-74910312D01*
X12618765Y-75591264D02*
X11999717Y-75591264D01*
X11999717Y-75591264D02*
X11999717Y-74291264D01*
X11999717Y-74291264D02*
X12618765Y-74291264D01*
X14599717Y-74910312D02*
X14166383Y-74910312D01*
X14166383Y-75591264D02*
X14166383Y-74291264D01*
X14166383Y-74291264D02*
X14785431Y-74291264D01*
X15528288Y-74291264D02*
X15775907Y-74291264D01*
X15775907Y-74291264D02*
X15899717Y-74353169D01*
X15899717Y-74353169D02*
X16023526Y-74476979D01*
X16023526Y-74476979D02*
X16085431Y-74724598D01*
X16085431Y-74724598D02*
X16085431Y-75157931D01*
X16085431Y-75157931D02*
X16023526Y-75405550D01*
X16023526Y-75405550D02*
X15899717Y-75529360D01*
X15899717Y-75529360D02*
X15775907Y-75591264D01*
X15775907Y-75591264D02*
X15528288Y-75591264D01*
X15528288Y-75591264D02*
X15404479Y-75529360D01*
X15404479Y-75529360D02*
X15280669Y-75405550D01*
X15280669Y-75405550D02*
X15218765Y-75157931D01*
X15218765Y-75157931D02*
X15218765Y-74724598D01*
X15218765Y-74724598D02*
X15280669Y-74476979D01*
X15280669Y-74476979D02*
X15404479Y-74353169D01*
X15404479Y-74353169D02*
X15528288Y-74291264D01*
X16890193Y-74291264D02*
X17137812Y-74291264D01*
X17137812Y-74291264D02*
X17261622Y-74353169D01*
X17261622Y-74353169D02*
X17385431Y-74476979D01*
X17385431Y-74476979D02*
X17447336Y-74724598D01*
X17447336Y-74724598D02*
X17447336Y-75157931D01*
X17447336Y-75157931D02*
X17385431Y-75405550D01*
X17385431Y-75405550D02*
X17261622Y-75529360D01*
X17261622Y-75529360D02*
X17137812Y-75591264D01*
X17137812Y-75591264D02*
X16890193Y-75591264D01*
X16890193Y-75591264D02*
X16766384Y-75529360D01*
X16766384Y-75529360D02*
X16642574Y-75405550D01*
X16642574Y-75405550D02*
X16580670Y-75157931D01*
X16580670Y-75157931D02*
X16580670Y-74724598D01*
X16580670Y-74724598D02*
X16642574Y-74476979D01*
X16642574Y-74476979D02*
X16766384Y-74353169D01*
X16766384Y-74353169D02*
X16890193Y-74291264D01*
X17818765Y-74291264D02*
X18561622Y-74291264D01*
X18190194Y-75591264D02*
X18190194Y-74291264D01*
X18994955Y-75591264D02*
X18994955Y-74291264D01*
X18994955Y-74291264D02*
X19490193Y-74291264D01*
X19490193Y-74291264D02*
X19614003Y-74353169D01*
X19614003Y-74353169D02*
X19675908Y-74415074D01*
X19675908Y-74415074D02*
X19737812Y-74538883D01*
X19737812Y-74538883D02*
X19737812Y-74724598D01*
X19737812Y-74724598D02*
X19675908Y-74848407D01*
X19675908Y-74848407D02*
X19614003Y-74910312D01*
X19614003Y-74910312D02*
X19490193Y-74972217D01*
X19490193Y-74972217D02*
X18994955Y-74972217D01*
X21037812Y-75591264D02*
X20604479Y-74972217D01*
X20294955Y-75591264D02*
X20294955Y-74291264D01*
X20294955Y-74291264D02*
X20790193Y-74291264D01*
X20790193Y-74291264D02*
X20914003Y-74353169D01*
X20914003Y-74353169D02*
X20975908Y-74415074D01*
X20975908Y-74415074D02*
X21037812Y-74538883D01*
X21037812Y-74538883D02*
X21037812Y-74724598D01*
X21037812Y-74724598D02*
X20975908Y-74848407D01*
X20975908Y-74848407D02*
X20914003Y-74910312D01*
X20914003Y-74910312D02*
X20790193Y-74972217D01*
X20790193Y-74972217D02*
X20294955Y-74972217D01*
X21594955Y-75591264D02*
X21594955Y-74291264D01*
X22214003Y-75591264D02*
X22214003Y-74291264D01*
X22214003Y-74291264D02*
X22956860Y-75591264D01*
X22956860Y-75591264D02*
X22956860Y-74291264D01*
X23390194Y-74291264D02*
X24133051Y-74291264D01*
X23761623Y-75591264D02*
X23761623Y-74291264D01*
X25556860Y-74291264D02*
X25556860Y-75343645D01*
X25556860Y-75343645D02*
X25618765Y-75467455D01*
X25618765Y-75467455D02*
X25680670Y-75529360D01*
X25680670Y-75529360D02*
X25804479Y-75591264D01*
X25804479Y-75591264D02*
X26052098Y-75591264D01*
X26052098Y-75591264D02*
X26175908Y-75529360D01*
X26175908Y-75529360D02*
X26237813Y-75467455D01*
X26237813Y-75467455D02*
X26299717Y-75343645D01*
X26299717Y-75343645D02*
X26299717Y-74291264D01*
X26918765Y-75591264D02*
X26918765Y-74291264D01*
X26918765Y-74291264D02*
X27661622Y-75591264D01*
X27661622Y-75591264D02*
X27661622Y-74291264D01*
X28094956Y-74291264D02*
X28528289Y-75591264D01*
X28528289Y-75591264D02*
X28961623Y-74291264D01*
X29394956Y-74910312D02*
X29828290Y-74910312D01*
X30014004Y-75591264D02*
X29394956Y-75591264D01*
X29394956Y-75591264D02*
X29394956Y-74291264D01*
X29394956Y-74291264D02*
X30014004Y-74291264D01*
X31314003Y-75591264D02*
X30880670Y-74972217D01*
X30571146Y-75591264D02*
X30571146Y-74291264D01*
X30571146Y-74291264D02*
X31066384Y-74291264D01*
X31066384Y-74291264D02*
X31190194Y-74353169D01*
X31190194Y-74353169D02*
X31252099Y-74415074D01*
X31252099Y-74415074D02*
X31314003Y-74538883D01*
X31314003Y-74538883D02*
X31314003Y-74724598D01*
X31314003Y-74724598D02*
X31252099Y-74848407D01*
X31252099Y-74848407D02*
X31190194Y-74910312D01*
X31190194Y-74910312D02*
X31066384Y-74972217D01*
X31066384Y-74972217D02*
X30571146Y-74972217D01*
X31871146Y-75591264D02*
X31871146Y-74291264D01*
X32923528Y-74910312D02*
X32490194Y-74910312D01*
X32490194Y-75591264D02*
X32490194Y-74291264D01*
X32490194Y-74291264D02*
X33109242Y-74291264D01*
X33604480Y-75591264D02*
X33604480Y-74291264D01*
X34223528Y-74910312D02*
X34656862Y-74910312D01*
X34842576Y-75591264D02*
X34223528Y-75591264D01*
X34223528Y-75591264D02*
X34223528Y-74291264D01*
X34223528Y-74291264D02*
X34842576Y-74291264D01*
X35399718Y-75591264D02*
X35399718Y-74291264D01*
X35399718Y-74291264D02*
X35709242Y-74291264D01*
X35709242Y-74291264D02*
X35894956Y-74353169D01*
X35894956Y-74353169D02*
X36018766Y-74476979D01*
X36018766Y-74476979D02*
X36080671Y-74600788D01*
X36080671Y-74600788D02*
X36142575Y-74848407D01*
X36142575Y-74848407D02*
X36142575Y-75034121D01*
X36142575Y-75034121D02*
X36080671Y-75281740D01*
X36080671Y-75281740D02*
X36018766Y-75405550D01*
X36018766Y-75405550D02*
X35894956Y-75529360D01*
X35894956Y-75529360D02*
X35709242Y-75591264D01*
X35709242Y-75591264D02*
X35399718Y-75591264D01*
D13*
X31032706Y-80545782D02*
X30346992Y-80545782D01*
X30689849Y-80545782D02*
X30689849Y-79345782D01*
X30689849Y-79345782D02*
X30575563Y-79517211D01*
X30575563Y-79517211D02*
X30461278Y-79631497D01*
X30461278Y-79631497D02*
X30346992Y-79688640D01*
X31546992Y-80431497D02*
X31604135Y-80488640D01*
X31604135Y-80488640D02*
X31546992Y-80545782D01*
X31546992Y-80545782D02*
X31489849Y-80488640D01*
X31489849Y-80488640D02*
X31546992Y-80431497D01*
X31546992Y-80431497D02*
X31546992Y-80545782D01*
X31546992Y-79802925D02*
X31604135Y-79860068D01*
X31604135Y-79860068D02*
X31546992Y-79917211D01*
X31546992Y-79917211D02*
X31489849Y-79860068D01*
X31489849Y-79860068D02*
X31546992Y-79802925D01*
X31546992Y-79802925D02*
X31546992Y-79917211D01*
X32746992Y-80545782D02*
X32061278Y-80545782D01*
X32404135Y-80545782D02*
X32404135Y-79345782D01*
X32404135Y-79345782D02*
X32289849Y-79517211D01*
X32289849Y-79517211D02*
X32175564Y-79631497D01*
X32175564Y-79631497D02*
X32061278Y-79688640D01*
X34689850Y-80545782D02*
X34689850Y-79345782D01*
X34689850Y-80488640D02*
X34575564Y-80545782D01*
X34575564Y-80545782D02*
X34346992Y-80545782D01*
X34346992Y-80545782D02*
X34232707Y-80488640D01*
X34232707Y-80488640D02*
X34175564Y-80431497D01*
X34175564Y-80431497D02*
X34118421Y-80317211D01*
X34118421Y-80317211D02*
X34118421Y-79974354D01*
X34118421Y-79974354D02*
X34175564Y-79860068D01*
X34175564Y-79860068D02*
X34232707Y-79802925D01*
X34232707Y-79802925D02*
X34346992Y-79745782D01*
X34346992Y-79745782D02*
X34575564Y-79745782D01*
X34575564Y-79745782D02*
X34689850Y-79802925D01*
X35261278Y-80545782D02*
X35261278Y-79745782D01*
X35261278Y-79345782D02*
X35204135Y-79402925D01*
X35204135Y-79402925D02*
X35261278Y-79460068D01*
X35261278Y-79460068D02*
X35318421Y-79402925D01*
X35318421Y-79402925D02*
X35261278Y-79345782D01*
X35261278Y-79345782D02*
X35261278Y-79460068D01*
X35718421Y-79745782D02*
X36004135Y-80545782D01*
X36004135Y-80545782D02*
X36289850Y-79745782D01*
X36746993Y-80545782D02*
X36746993Y-79745782D01*
X36746993Y-79345782D02*
X36689850Y-79402925D01*
X36689850Y-79402925D02*
X36746993Y-79460068D01*
X36746993Y-79460068D02*
X36804136Y-79402925D01*
X36804136Y-79402925D02*
X36746993Y-79345782D01*
X36746993Y-79345782D02*
X36746993Y-79460068D01*
X37832708Y-80545782D02*
X37832708Y-79345782D01*
X37832708Y-80488640D02*
X37718422Y-80545782D01*
X37718422Y-80545782D02*
X37489850Y-80545782D01*
X37489850Y-80545782D02*
X37375565Y-80488640D01*
X37375565Y-80488640D02*
X37318422Y-80431497D01*
X37318422Y-80431497D02*
X37261279Y-80317211D01*
X37261279Y-80317211D02*
X37261279Y-79974354D01*
X37261279Y-79974354D02*
X37318422Y-79860068D01*
X37318422Y-79860068D02*
X37375565Y-79802925D01*
X37375565Y-79802925D02*
X37489850Y-79745782D01*
X37489850Y-79745782D02*
X37718422Y-79745782D01*
X37718422Y-79745782D02*
X37832708Y-79802925D01*
X38861279Y-80488640D02*
X38746993Y-80545782D01*
X38746993Y-80545782D02*
X38518422Y-80545782D01*
X38518422Y-80545782D02*
X38404136Y-80488640D01*
X38404136Y-80488640D02*
X38346993Y-80374354D01*
X38346993Y-80374354D02*
X38346993Y-79917211D01*
X38346993Y-79917211D02*
X38404136Y-79802925D01*
X38404136Y-79802925D02*
X38518422Y-79745782D01*
X38518422Y-79745782D02*
X38746993Y-79745782D01*
X38746993Y-79745782D02*
X38861279Y-79802925D01*
X38861279Y-79802925D02*
X38918422Y-79917211D01*
X38918422Y-79917211D02*
X38918422Y-80031497D01*
X38918422Y-80031497D02*
X38346993Y-80145782D01*
X39432707Y-80545782D02*
X39432707Y-79745782D01*
X39432707Y-79974354D02*
X39489850Y-79860068D01*
X39489850Y-79860068D02*
X39546993Y-79802925D01*
X39546993Y-79802925D02*
X39661278Y-79745782D01*
X39661278Y-79745782D02*
X39775564Y-79745782D01*
X41089850Y-80088640D02*
X42004136Y-80088640D01*
X44175564Y-80545782D02*
X43775564Y-79974354D01*
X43489850Y-80545782D02*
X43489850Y-79345782D01*
X43489850Y-79345782D02*
X43946993Y-79345782D01*
X43946993Y-79345782D02*
X44061278Y-79402925D01*
X44061278Y-79402925D02*
X44118421Y-79460068D01*
X44118421Y-79460068D02*
X44175564Y-79574354D01*
X44175564Y-79574354D02*
X44175564Y-79745782D01*
X44175564Y-79745782D02*
X44118421Y-79860068D01*
X44118421Y-79860068D02*
X44061278Y-79917211D01*
X44061278Y-79917211D02*
X43946993Y-79974354D01*
X43946993Y-79974354D02*
X43489850Y-79974354D01*
X45318421Y-80545782D02*
X44632707Y-80545782D01*
X44975564Y-80545782D02*
X44975564Y-79345782D01*
X44975564Y-79345782D02*
X44861278Y-79517211D01*
X44861278Y-79517211D02*
X44746993Y-79631497D01*
X44746993Y-79631497D02*
X44632707Y-79688640D01*
X47261279Y-80545782D02*
X47261279Y-79917211D01*
X47261279Y-79917211D02*
X47204136Y-79802925D01*
X47204136Y-79802925D02*
X47089850Y-79745782D01*
X47089850Y-79745782D02*
X46861279Y-79745782D01*
X46861279Y-79745782D02*
X46746993Y-79802925D01*
X47261279Y-80488640D02*
X47146993Y-80545782D01*
X47146993Y-80545782D02*
X46861279Y-80545782D01*
X46861279Y-80545782D02*
X46746993Y-80488640D01*
X46746993Y-80488640D02*
X46689850Y-80374354D01*
X46689850Y-80374354D02*
X46689850Y-80260068D01*
X46689850Y-80260068D02*
X46746993Y-80145782D01*
X46746993Y-80145782D02*
X46861279Y-80088640D01*
X46861279Y-80088640D02*
X47146993Y-80088640D01*
X47146993Y-80088640D02*
X47261279Y-80031497D01*
X47832707Y-79745782D02*
X47832707Y-80545782D01*
X47832707Y-79860068D02*
X47889850Y-79802925D01*
X47889850Y-79802925D02*
X48004135Y-79745782D01*
X48004135Y-79745782D02*
X48175564Y-79745782D01*
X48175564Y-79745782D02*
X48289850Y-79802925D01*
X48289850Y-79802925D02*
X48346993Y-79917211D01*
X48346993Y-79917211D02*
X48346993Y-80545782D01*
X49432707Y-80545782D02*
X49432707Y-79345782D01*
X49432707Y-80488640D02*
X49318421Y-80545782D01*
X49318421Y-80545782D02*
X49089849Y-80545782D01*
X49089849Y-80545782D02*
X48975564Y-80488640D01*
X48975564Y-80488640D02*
X48918421Y-80431497D01*
X48918421Y-80431497D02*
X48861278Y-80317211D01*
X48861278Y-80317211D02*
X48861278Y-79974354D01*
X48861278Y-79974354D02*
X48918421Y-79860068D01*
X48918421Y-79860068D02*
X48975564Y-79802925D01*
X48975564Y-79802925D02*
X49089849Y-79745782D01*
X49089849Y-79745782D02*
X49318421Y-79745782D01*
X49318421Y-79745782D02*
X49432707Y-79802925D01*
X51604135Y-80545782D02*
X51204135Y-79974354D01*
X50918421Y-80545782D02*
X50918421Y-79345782D01*
X50918421Y-79345782D02*
X51375564Y-79345782D01*
X51375564Y-79345782D02*
X51489849Y-79402925D01*
X51489849Y-79402925D02*
X51546992Y-79460068D01*
X51546992Y-79460068D02*
X51604135Y-79574354D01*
X51604135Y-79574354D02*
X51604135Y-79745782D01*
X51604135Y-79745782D02*
X51546992Y-79860068D01*
X51546992Y-79860068D02*
X51489849Y-79917211D01*
X51489849Y-79917211D02*
X51375564Y-79974354D01*
X51375564Y-79974354D02*
X50918421Y-79974354D01*
X52061278Y-79460068D02*
X52118421Y-79402925D01*
X52118421Y-79402925D02*
X52232707Y-79345782D01*
X52232707Y-79345782D02*
X52518421Y-79345782D01*
X52518421Y-79345782D02*
X52632707Y-79402925D01*
X52632707Y-79402925D02*
X52689849Y-79460068D01*
X52689849Y-79460068D02*
X52746992Y-79574354D01*
X52746992Y-79574354D02*
X52746992Y-79688640D01*
X52746992Y-79688640D02*
X52689849Y-79860068D01*
X52689849Y-79860068D02*
X52004135Y-80545782D01*
X52004135Y-80545782D02*
X52746992Y-80545782D01*
X54175564Y-80545782D02*
X54175564Y-79345782D01*
X54175564Y-79345782D02*
X54575564Y-80202925D01*
X54575564Y-80202925D02*
X54975564Y-79345782D01*
X54975564Y-79345782D02*
X54975564Y-80545782D01*
X55546993Y-79345782D02*
X55546993Y-80317211D01*
X55546993Y-80317211D02*
X55604136Y-80431497D01*
X55604136Y-80431497D02*
X55661279Y-80488640D01*
X55661279Y-80488640D02*
X55775564Y-80545782D01*
X55775564Y-80545782D02*
X56004136Y-80545782D01*
X56004136Y-80545782D02*
X56118421Y-80488640D01*
X56118421Y-80488640D02*
X56175564Y-80431497D01*
X56175564Y-80431497D02*
X56232707Y-80317211D01*
X56232707Y-80317211D02*
X56232707Y-79345782D01*
X56746993Y-80488640D02*
X56918422Y-80545782D01*
X56918422Y-80545782D02*
X57204136Y-80545782D01*
X57204136Y-80545782D02*
X57318422Y-80488640D01*
X57318422Y-80488640D02*
X57375564Y-80431497D01*
X57375564Y-80431497D02*
X57432707Y-80317211D01*
X57432707Y-80317211D02*
X57432707Y-80202925D01*
X57432707Y-80202925D02*
X57375564Y-80088640D01*
X57375564Y-80088640D02*
X57318422Y-80031497D01*
X57318422Y-80031497D02*
X57204136Y-79974354D01*
X57204136Y-79974354D02*
X56975564Y-79917211D01*
X56975564Y-79917211D02*
X56861279Y-79860068D01*
X56861279Y-79860068D02*
X56804136Y-79802925D01*
X56804136Y-79802925D02*
X56746993Y-79688640D01*
X56746993Y-79688640D02*
X56746993Y-79574354D01*
X56746993Y-79574354D02*
X56804136Y-79460068D01*
X56804136Y-79460068D02*
X56861279Y-79402925D01*
X56861279Y-79402925D02*
X56975564Y-79345782D01*
X56975564Y-79345782D02*
X57261279Y-79345782D01*
X57261279Y-79345782D02*
X57432707Y-79402925D01*
X57775564Y-79345782D02*
X58461279Y-79345782D01*
X58118421Y-80545782D02*
X58118421Y-79345782D01*
X59775565Y-80545782D02*
X59775565Y-79345782D01*
X59775565Y-79802925D02*
X59889851Y-79745782D01*
X59889851Y-79745782D02*
X60118422Y-79745782D01*
X60118422Y-79745782D02*
X60232708Y-79802925D01*
X60232708Y-79802925D02*
X60289851Y-79860068D01*
X60289851Y-79860068D02*
X60346993Y-79974354D01*
X60346993Y-79974354D02*
X60346993Y-80317211D01*
X60346993Y-80317211D02*
X60289851Y-80431497D01*
X60289851Y-80431497D02*
X60232708Y-80488640D01*
X60232708Y-80488640D02*
X60118422Y-80545782D01*
X60118422Y-80545782D02*
X59889851Y-80545782D01*
X59889851Y-80545782D02*
X59775565Y-80488640D01*
X61318422Y-80488640D02*
X61204136Y-80545782D01*
X61204136Y-80545782D02*
X60975565Y-80545782D01*
X60975565Y-80545782D02*
X60861279Y-80488640D01*
X60861279Y-80488640D02*
X60804136Y-80374354D01*
X60804136Y-80374354D02*
X60804136Y-79917211D01*
X60804136Y-79917211D02*
X60861279Y-79802925D01*
X60861279Y-79802925D02*
X60975565Y-79745782D01*
X60975565Y-79745782D02*
X61204136Y-79745782D01*
X61204136Y-79745782D02*
X61318422Y-79802925D01*
X61318422Y-79802925D02*
X61375565Y-79917211D01*
X61375565Y-79917211D02*
X61375565Y-80031497D01*
X61375565Y-80031497D02*
X60804136Y-80145782D01*
X63261279Y-80488640D02*
X63146993Y-80545782D01*
X63146993Y-80545782D02*
X62918422Y-80545782D01*
X62918422Y-80545782D02*
X62804136Y-80488640D01*
X62804136Y-80488640D02*
X62746993Y-80374354D01*
X62746993Y-80374354D02*
X62746993Y-79917211D01*
X62746993Y-79917211D02*
X62804136Y-79802925D01*
X62804136Y-79802925D02*
X62918422Y-79745782D01*
X62918422Y-79745782D02*
X63146993Y-79745782D01*
X63146993Y-79745782D02*
X63261279Y-79802925D01*
X63261279Y-79802925D02*
X63318422Y-79917211D01*
X63318422Y-79917211D02*
X63318422Y-80031497D01*
X63318422Y-80031497D02*
X62746993Y-80145782D01*
X64346993Y-79745782D02*
X64346993Y-80945782D01*
X64346993Y-80488640D02*
X64232707Y-80545782D01*
X64232707Y-80545782D02*
X64004135Y-80545782D01*
X64004135Y-80545782D02*
X63889850Y-80488640D01*
X63889850Y-80488640D02*
X63832707Y-80431497D01*
X63832707Y-80431497D02*
X63775564Y-80317211D01*
X63775564Y-80317211D02*
X63775564Y-79974354D01*
X63775564Y-79974354D02*
X63832707Y-79860068D01*
X63832707Y-79860068D02*
X63889850Y-79802925D01*
X63889850Y-79802925D02*
X64004135Y-79745782D01*
X64004135Y-79745782D02*
X64232707Y-79745782D01*
X64232707Y-79745782D02*
X64346993Y-79802925D01*
X65432707Y-79745782D02*
X65432707Y-80545782D01*
X64918421Y-79745782D02*
X64918421Y-80374354D01*
X64918421Y-80374354D02*
X64975564Y-80488640D01*
X64975564Y-80488640D02*
X65089849Y-80545782D01*
X65089849Y-80545782D02*
X65261278Y-80545782D01*
X65261278Y-80545782D02*
X65375564Y-80488640D01*
X65375564Y-80488640D02*
X65432707Y-80431497D01*
X66518421Y-80545782D02*
X66518421Y-79917211D01*
X66518421Y-79917211D02*
X66461278Y-79802925D01*
X66461278Y-79802925D02*
X66346992Y-79745782D01*
X66346992Y-79745782D02*
X66118421Y-79745782D01*
X66118421Y-79745782D02*
X66004135Y-79802925D01*
X66518421Y-80488640D02*
X66404135Y-80545782D01*
X66404135Y-80545782D02*
X66118421Y-80545782D01*
X66118421Y-80545782D02*
X66004135Y-80488640D01*
X66004135Y-80488640D02*
X65946992Y-80374354D01*
X65946992Y-80374354D02*
X65946992Y-80260068D01*
X65946992Y-80260068D02*
X66004135Y-80145782D01*
X66004135Y-80145782D02*
X66118421Y-80088640D01*
X66118421Y-80088640D02*
X66404135Y-80088640D01*
X66404135Y-80088640D02*
X66518421Y-80031497D01*
X67261277Y-80545782D02*
X67146992Y-80488640D01*
X67146992Y-80488640D02*
X67089849Y-80374354D01*
X67089849Y-80374354D02*
X67089849Y-79345782D01*
D10*
X43100588Y-38742438D02*
X43005350Y-38694819D01*
X43005350Y-38694819D02*
X42862493Y-38694819D01*
X42862493Y-38694819D02*
X42719636Y-38742438D01*
X42719636Y-38742438D02*
X42624398Y-38837676D01*
X42624398Y-38837676D02*
X42576779Y-38932914D01*
X42576779Y-38932914D02*
X42529160Y-39123390D01*
X42529160Y-39123390D02*
X42529160Y-39266247D01*
X42529160Y-39266247D02*
X42576779Y-39456723D01*
X42576779Y-39456723D02*
X42624398Y-39551961D01*
X42624398Y-39551961D02*
X42719636Y-39647200D01*
X42719636Y-39647200D02*
X42862493Y-39694819D01*
X42862493Y-39694819D02*
X42957731Y-39694819D01*
X42957731Y-39694819D02*
X43100588Y-39647200D01*
X43100588Y-39647200D02*
X43148207Y-39599580D01*
X43148207Y-39599580D02*
X43148207Y-39266247D01*
X43148207Y-39266247D02*
X42957731Y-39266247D01*
X43576779Y-39694819D02*
X43576779Y-38694819D01*
X43576779Y-38694819D02*
X43957731Y-38694819D01*
X43957731Y-38694819D02*
X44052969Y-38742438D01*
X44052969Y-38742438D02*
X44100588Y-38790057D01*
X44100588Y-38790057D02*
X44148207Y-38885295D01*
X44148207Y-38885295D02*
X44148207Y-39028152D01*
X44148207Y-39028152D02*
X44100588Y-39123390D01*
X44100588Y-39123390D02*
X44052969Y-39171009D01*
X44052969Y-39171009D02*
X43957731Y-39218628D01*
X43957731Y-39218628D02*
X43576779Y-39218628D01*
X44576779Y-39694819D02*
X44576779Y-38694819D01*
X45243445Y-38694819D02*
X45433921Y-38694819D01*
X45433921Y-38694819D02*
X45529159Y-38742438D01*
X45529159Y-38742438D02*
X45624397Y-38837676D01*
X45624397Y-38837676D02*
X45672016Y-39028152D01*
X45672016Y-39028152D02*
X45672016Y-39361485D01*
X45672016Y-39361485D02*
X45624397Y-39551961D01*
X45624397Y-39551961D02*
X45529159Y-39647200D01*
X45529159Y-39647200D02*
X45433921Y-39694819D01*
X45433921Y-39694819D02*
X45243445Y-39694819D01*
X45243445Y-39694819D02*
X45148207Y-39647200D01*
X45148207Y-39647200D02*
X45052969Y-39551961D01*
X45052969Y-39551961D02*
X45005350Y-39361485D01*
X45005350Y-39361485D02*
X45005350Y-39028152D01*
X45005350Y-39028152D02*
X45052969Y-38837676D01*
X45052969Y-38837676D02*
X45148207Y-38742438D01*
X45148207Y-38742438D02*
X45243445Y-38694819D01*
X46052969Y-38790057D02*
X46100588Y-38742438D01*
X46100588Y-38742438D02*
X46195826Y-38694819D01*
X46195826Y-38694819D02*
X46433921Y-38694819D01*
X46433921Y-38694819D02*
X46529159Y-38742438D01*
X46529159Y-38742438D02*
X46576778Y-38790057D01*
X46576778Y-38790057D02*
X46624397Y-38885295D01*
X46624397Y-38885295D02*
X46624397Y-38980533D01*
X46624397Y-38980533D02*
X46576778Y-39123390D01*
X46576778Y-39123390D02*
X46005350Y-39694819D01*
X46005350Y-39694819D02*
X46624397Y-39694819D01*
X12360588Y-31122438D02*
X12265350Y-31074819D01*
X12265350Y-31074819D02*
X12122493Y-31074819D01*
X12122493Y-31074819D02*
X11979636Y-31122438D01*
X11979636Y-31122438D02*
X11884398Y-31217676D01*
X11884398Y-31217676D02*
X11836779Y-31312914D01*
X11836779Y-31312914D02*
X11789160Y-31503390D01*
X11789160Y-31503390D02*
X11789160Y-31646247D01*
X11789160Y-31646247D02*
X11836779Y-31836723D01*
X11836779Y-31836723D02*
X11884398Y-31931961D01*
X11884398Y-31931961D02*
X11979636Y-32027200D01*
X11979636Y-32027200D02*
X12122493Y-32074819D01*
X12122493Y-32074819D02*
X12217731Y-32074819D01*
X12217731Y-32074819D02*
X12360588Y-32027200D01*
X12360588Y-32027200D02*
X12408207Y-31979580D01*
X12408207Y-31979580D02*
X12408207Y-31646247D01*
X12408207Y-31646247D02*
X12217731Y-31646247D01*
X12836779Y-32074819D02*
X12836779Y-31074819D01*
X12836779Y-31074819D02*
X13217731Y-31074819D01*
X13217731Y-31074819D02*
X13312969Y-31122438D01*
X13312969Y-31122438D02*
X13360588Y-31170057D01*
X13360588Y-31170057D02*
X13408207Y-31265295D01*
X13408207Y-31265295D02*
X13408207Y-31408152D01*
X13408207Y-31408152D02*
X13360588Y-31503390D01*
X13360588Y-31503390D02*
X13312969Y-31551009D01*
X13312969Y-31551009D02*
X13217731Y-31598628D01*
X13217731Y-31598628D02*
X12836779Y-31598628D01*
X13836779Y-32074819D02*
X13836779Y-31074819D01*
X14503445Y-31074819D02*
X14693921Y-31074819D01*
X14693921Y-31074819D02*
X14789159Y-31122438D01*
X14789159Y-31122438D02*
X14884397Y-31217676D01*
X14884397Y-31217676D02*
X14932016Y-31408152D01*
X14932016Y-31408152D02*
X14932016Y-31741485D01*
X14932016Y-31741485D02*
X14884397Y-31931961D01*
X14884397Y-31931961D02*
X14789159Y-32027200D01*
X14789159Y-32027200D02*
X14693921Y-32074819D01*
X14693921Y-32074819D02*
X14503445Y-32074819D01*
X14503445Y-32074819D02*
X14408207Y-32027200D01*
X14408207Y-32027200D02*
X14312969Y-31931961D01*
X14312969Y-31931961D02*
X14265350Y-31741485D01*
X14265350Y-31741485D02*
X14265350Y-31408152D01*
X14265350Y-31408152D02*
X14312969Y-31217676D01*
X14312969Y-31217676D02*
X14408207Y-31122438D01*
X14408207Y-31122438D02*
X14503445Y-31074819D01*
X15884397Y-32074819D02*
X15312969Y-32074819D01*
X15598683Y-32074819D02*
X15598683Y-31074819D01*
X15598683Y-31074819D02*
X15503445Y-31217676D01*
X15503445Y-31217676D02*
X15408207Y-31312914D01*
X15408207Y-31312914D02*
X15312969Y-31360533D01*
X16217731Y-31074819D02*
X16836778Y-31074819D01*
X16836778Y-31074819D02*
X16503445Y-31455771D01*
X16503445Y-31455771D02*
X16646302Y-31455771D01*
X16646302Y-31455771D02*
X16741540Y-31503390D01*
X16741540Y-31503390D02*
X16789159Y-31551009D01*
X16789159Y-31551009D02*
X16836778Y-31646247D01*
X16836778Y-31646247D02*
X16836778Y-31884342D01*
X16836778Y-31884342D02*
X16789159Y-31979580D01*
X16789159Y-31979580D02*
X16741540Y-32027200D01*
X16741540Y-32027200D02*
X16646302Y-32074819D01*
X16646302Y-32074819D02*
X16360588Y-32074819D01*
X16360588Y-32074819D02*
X16265350Y-32027200D01*
X16265350Y-32027200D02*
X16217731Y-31979580D01*
X12360588Y-38742438D02*
X12265350Y-38694819D01*
X12265350Y-38694819D02*
X12122493Y-38694819D01*
X12122493Y-38694819D02*
X11979636Y-38742438D01*
X11979636Y-38742438D02*
X11884398Y-38837676D01*
X11884398Y-38837676D02*
X11836779Y-38932914D01*
X11836779Y-38932914D02*
X11789160Y-39123390D01*
X11789160Y-39123390D02*
X11789160Y-39266247D01*
X11789160Y-39266247D02*
X11836779Y-39456723D01*
X11836779Y-39456723D02*
X11884398Y-39551961D01*
X11884398Y-39551961D02*
X11979636Y-39647200D01*
X11979636Y-39647200D02*
X12122493Y-39694819D01*
X12122493Y-39694819D02*
X12217731Y-39694819D01*
X12217731Y-39694819D02*
X12360588Y-39647200D01*
X12360588Y-39647200D02*
X12408207Y-39599580D01*
X12408207Y-39599580D02*
X12408207Y-39266247D01*
X12408207Y-39266247D02*
X12217731Y-39266247D01*
X12836779Y-39694819D02*
X12836779Y-38694819D01*
X12836779Y-38694819D02*
X13217731Y-38694819D01*
X13217731Y-38694819D02*
X13312969Y-38742438D01*
X13312969Y-38742438D02*
X13360588Y-38790057D01*
X13360588Y-38790057D02*
X13408207Y-38885295D01*
X13408207Y-38885295D02*
X13408207Y-39028152D01*
X13408207Y-39028152D02*
X13360588Y-39123390D01*
X13360588Y-39123390D02*
X13312969Y-39171009D01*
X13312969Y-39171009D02*
X13217731Y-39218628D01*
X13217731Y-39218628D02*
X12836779Y-39218628D01*
X13836779Y-39694819D02*
X13836779Y-38694819D01*
X14503445Y-38694819D02*
X14693921Y-38694819D01*
X14693921Y-38694819D02*
X14789159Y-38742438D01*
X14789159Y-38742438D02*
X14884397Y-38837676D01*
X14884397Y-38837676D02*
X14932016Y-39028152D01*
X14932016Y-39028152D02*
X14932016Y-39361485D01*
X14932016Y-39361485D02*
X14884397Y-39551961D01*
X14884397Y-39551961D02*
X14789159Y-39647200D01*
X14789159Y-39647200D02*
X14693921Y-39694819D01*
X14693921Y-39694819D02*
X14503445Y-39694819D01*
X14503445Y-39694819D02*
X14408207Y-39647200D01*
X14408207Y-39647200D02*
X14312969Y-39551961D01*
X14312969Y-39551961D02*
X14265350Y-39361485D01*
X14265350Y-39361485D02*
X14265350Y-39028152D01*
X14265350Y-39028152D02*
X14312969Y-38837676D01*
X14312969Y-38837676D02*
X14408207Y-38742438D01*
X14408207Y-38742438D02*
X14503445Y-38694819D01*
X15884397Y-39694819D02*
X15312969Y-39694819D01*
X15598683Y-39694819D02*
X15598683Y-38694819D01*
X15598683Y-38694819D02*
X15503445Y-38837676D01*
X15503445Y-38837676D02*
X15408207Y-38932914D01*
X15408207Y-38932914D02*
X15312969Y-38980533D01*
X16503445Y-38694819D02*
X16598683Y-38694819D01*
X16598683Y-38694819D02*
X16693921Y-38742438D01*
X16693921Y-38742438D02*
X16741540Y-38790057D01*
X16741540Y-38790057D02*
X16789159Y-38885295D01*
X16789159Y-38885295D02*
X16836778Y-39075771D01*
X16836778Y-39075771D02*
X16836778Y-39313866D01*
X16836778Y-39313866D02*
X16789159Y-39504342D01*
X16789159Y-39504342D02*
X16741540Y-39599580D01*
X16741540Y-39599580D02*
X16693921Y-39647200D01*
X16693921Y-39647200D02*
X16598683Y-39694819D01*
X16598683Y-39694819D02*
X16503445Y-39694819D01*
X16503445Y-39694819D02*
X16408207Y-39647200D01*
X16408207Y-39647200D02*
X16360588Y-39599580D01*
X16360588Y-39599580D02*
X16312969Y-39504342D01*
X16312969Y-39504342D02*
X16265350Y-39313866D01*
X16265350Y-39313866D02*
X16265350Y-39075771D01*
X16265350Y-39075771D02*
X16312969Y-38885295D01*
X16312969Y-38885295D02*
X16360588Y-38790057D01*
X16360588Y-38790057D02*
X16408207Y-38742438D01*
X16408207Y-38742438D02*
X16503445Y-38694819D01*
X12360588Y-26042438D02*
X12265350Y-25994819D01*
X12265350Y-25994819D02*
X12122493Y-25994819D01*
X12122493Y-25994819D02*
X11979636Y-26042438D01*
X11979636Y-26042438D02*
X11884398Y-26137676D01*
X11884398Y-26137676D02*
X11836779Y-26232914D01*
X11836779Y-26232914D02*
X11789160Y-26423390D01*
X11789160Y-26423390D02*
X11789160Y-26566247D01*
X11789160Y-26566247D02*
X11836779Y-26756723D01*
X11836779Y-26756723D02*
X11884398Y-26851961D01*
X11884398Y-26851961D02*
X11979636Y-26947200D01*
X11979636Y-26947200D02*
X12122493Y-26994819D01*
X12122493Y-26994819D02*
X12217731Y-26994819D01*
X12217731Y-26994819D02*
X12360588Y-26947200D01*
X12360588Y-26947200D02*
X12408207Y-26899580D01*
X12408207Y-26899580D02*
X12408207Y-26566247D01*
X12408207Y-26566247D02*
X12217731Y-26566247D01*
X12836779Y-26994819D02*
X12836779Y-25994819D01*
X12836779Y-25994819D02*
X13408207Y-26994819D01*
X13408207Y-26994819D02*
X13408207Y-25994819D01*
X13884398Y-26994819D02*
X13884398Y-25994819D01*
X13884398Y-25994819D02*
X14122493Y-25994819D01*
X14122493Y-25994819D02*
X14265350Y-26042438D01*
X14265350Y-26042438D02*
X14360588Y-26137676D01*
X14360588Y-26137676D02*
X14408207Y-26232914D01*
X14408207Y-26232914D02*
X14455826Y-26423390D01*
X14455826Y-26423390D02*
X14455826Y-26566247D01*
X14455826Y-26566247D02*
X14408207Y-26756723D01*
X14408207Y-26756723D02*
X14360588Y-26851961D01*
X14360588Y-26851961D02*
X14265350Y-26947200D01*
X14265350Y-26947200D02*
X14122493Y-26994819D01*
X14122493Y-26994819D02*
X13884398Y-26994819D01*
X12360588Y-41282438D02*
X12265350Y-41234819D01*
X12265350Y-41234819D02*
X12122493Y-41234819D01*
X12122493Y-41234819D02*
X11979636Y-41282438D01*
X11979636Y-41282438D02*
X11884398Y-41377676D01*
X11884398Y-41377676D02*
X11836779Y-41472914D01*
X11836779Y-41472914D02*
X11789160Y-41663390D01*
X11789160Y-41663390D02*
X11789160Y-41806247D01*
X11789160Y-41806247D02*
X11836779Y-41996723D01*
X11836779Y-41996723D02*
X11884398Y-42091961D01*
X11884398Y-42091961D02*
X11979636Y-42187200D01*
X11979636Y-42187200D02*
X12122493Y-42234819D01*
X12122493Y-42234819D02*
X12217731Y-42234819D01*
X12217731Y-42234819D02*
X12360588Y-42187200D01*
X12360588Y-42187200D02*
X12408207Y-42139580D01*
X12408207Y-42139580D02*
X12408207Y-41806247D01*
X12408207Y-41806247D02*
X12217731Y-41806247D01*
X12836779Y-42234819D02*
X12836779Y-41234819D01*
X12836779Y-41234819D02*
X13217731Y-41234819D01*
X13217731Y-41234819D02*
X13312969Y-41282438D01*
X13312969Y-41282438D02*
X13360588Y-41330057D01*
X13360588Y-41330057D02*
X13408207Y-41425295D01*
X13408207Y-41425295D02*
X13408207Y-41568152D01*
X13408207Y-41568152D02*
X13360588Y-41663390D01*
X13360588Y-41663390D02*
X13312969Y-41711009D01*
X13312969Y-41711009D02*
X13217731Y-41758628D01*
X13217731Y-41758628D02*
X12836779Y-41758628D01*
X13836779Y-42234819D02*
X13836779Y-41234819D01*
X14503445Y-41234819D02*
X14693921Y-41234819D01*
X14693921Y-41234819D02*
X14789159Y-41282438D01*
X14789159Y-41282438D02*
X14884397Y-41377676D01*
X14884397Y-41377676D02*
X14932016Y-41568152D01*
X14932016Y-41568152D02*
X14932016Y-41901485D01*
X14932016Y-41901485D02*
X14884397Y-42091961D01*
X14884397Y-42091961D02*
X14789159Y-42187200D01*
X14789159Y-42187200D02*
X14693921Y-42234819D01*
X14693921Y-42234819D02*
X14503445Y-42234819D01*
X14503445Y-42234819D02*
X14408207Y-42187200D01*
X14408207Y-42187200D02*
X14312969Y-42091961D01*
X14312969Y-42091961D02*
X14265350Y-41901485D01*
X14265350Y-41901485D02*
X14265350Y-41568152D01*
X14265350Y-41568152D02*
X14312969Y-41377676D01*
X14312969Y-41377676D02*
X14408207Y-41282438D01*
X14408207Y-41282438D02*
X14503445Y-41234819D01*
X15408207Y-42234819D02*
X15598683Y-42234819D01*
X15598683Y-42234819D02*
X15693921Y-42187200D01*
X15693921Y-42187200D02*
X15741540Y-42139580D01*
X15741540Y-42139580D02*
X15836778Y-41996723D01*
X15836778Y-41996723D02*
X15884397Y-41806247D01*
X15884397Y-41806247D02*
X15884397Y-41425295D01*
X15884397Y-41425295D02*
X15836778Y-41330057D01*
X15836778Y-41330057D02*
X15789159Y-41282438D01*
X15789159Y-41282438D02*
X15693921Y-41234819D01*
X15693921Y-41234819D02*
X15503445Y-41234819D01*
X15503445Y-41234819D02*
X15408207Y-41282438D01*
X15408207Y-41282438D02*
X15360588Y-41330057D01*
X15360588Y-41330057D02*
X15312969Y-41425295D01*
X15312969Y-41425295D02*
X15312969Y-41663390D01*
X15312969Y-41663390D02*
X15360588Y-41758628D01*
X15360588Y-41758628D02*
X15408207Y-41806247D01*
X15408207Y-41806247D02*
X15503445Y-41853866D01*
X15503445Y-41853866D02*
X15693921Y-41853866D01*
X15693921Y-41853866D02*
X15789159Y-41806247D01*
X15789159Y-41806247D02*
X15836778Y-41758628D01*
X15836778Y-41758628D02*
X15884397Y-41663390D01*
D14*
X6453132Y-79075329D02*
X6376941Y-79151520D01*
X6376941Y-79151520D02*
X6148370Y-79227710D01*
X6148370Y-79227710D02*
X5995989Y-79227710D01*
X5995989Y-79227710D02*
X5767417Y-79151520D01*
X5767417Y-79151520D02*
X5615036Y-78999139D01*
X5615036Y-78999139D02*
X5538846Y-78846758D01*
X5538846Y-78846758D02*
X5462655Y-78541996D01*
X5462655Y-78541996D02*
X5462655Y-78313424D01*
X5462655Y-78313424D02*
X5538846Y-78008662D01*
X5538846Y-78008662D02*
X5615036Y-77856281D01*
X5615036Y-77856281D02*
X5767417Y-77703900D01*
X5767417Y-77703900D02*
X5995989Y-77627710D01*
X5995989Y-77627710D02*
X6148370Y-77627710D01*
X6148370Y-77627710D02*
X6376941Y-77703900D01*
X6376941Y-77703900D02*
X6453132Y-77780091D01*
X7138846Y-78389615D02*
X7672179Y-78389615D01*
X7900751Y-79227710D02*
X7138846Y-79227710D01*
X7138846Y-79227710D02*
X7138846Y-77627710D01*
X7138846Y-77627710D02*
X7900751Y-77627710D01*
X8586465Y-79227710D02*
X8586465Y-77627710D01*
X8586465Y-77627710D02*
X9500751Y-79227710D01*
X9500751Y-79227710D02*
X9500751Y-77627710D01*
X10034083Y-77627710D02*
X10948369Y-77627710D01*
X10491226Y-79227710D02*
X10491226Y-77627710D01*
X12395989Y-79227710D02*
X11862655Y-78465805D01*
X11481703Y-79227710D02*
X11481703Y-77627710D01*
X11481703Y-77627710D02*
X12091227Y-77627710D01*
X12091227Y-77627710D02*
X12243608Y-77703900D01*
X12243608Y-77703900D02*
X12319798Y-77780091D01*
X12319798Y-77780091D02*
X12395989Y-77932472D01*
X12395989Y-77932472D02*
X12395989Y-78161043D01*
X12395989Y-78161043D02*
X12319798Y-78313424D01*
X12319798Y-78313424D02*
X12243608Y-78389615D01*
X12243608Y-78389615D02*
X12091227Y-78465805D01*
X12091227Y-78465805D02*
X11481703Y-78465805D01*
X13005512Y-78770567D02*
X13767417Y-78770567D01*
X12853131Y-79227710D02*
X13386465Y-77627710D01*
X13386465Y-77627710D02*
X13919798Y-79227710D01*
X15215037Y-79227710D02*
X14453132Y-79227710D01*
X14453132Y-79227710D02*
X14453132Y-77627710D01*
X16967418Y-79227710D02*
X16967418Y-77627710D01*
X16967418Y-78389615D02*
X17881704Y-78389615D01*
X17881704Y-79227710D02*
X17881704Y-77627710D01*
X18948370Y-77627710D02*
X19253132Y-77627710D01*
X19253132Y-77627710D02*
X19405513Y-77703900D01*
X19405513Y-77703900D02*
X19557894Y-77856281D01*
X19557894Y-77856281D02*
X19634084Y-78161043D01*
X19634084Y-78161043D02*
X19634084Y-78694377D01*
X19634084Y-78694377D02*
X19557894Y-78999139D01*
X19557894Y-78999139D02*
X19405513Y-79151520D01*
X19405513Y-79151520D02*
X19253132Y-79227710D01*
X19253132Y-79227710D02*
X18948370Y-79227710D01*
X18948370Y-79227710D02*
X18795989Y-79151520D01*
X18795989Y-79151520D02*
X18643608Y-78999139D01*
X18643608Y-78999139D02*
X18567417Y-78694377D01*
X18567417Y-78694377D02*
X18567417Y-78161043D01*
X18567417Y-78161043D02*
X18643608Y-77856281D01*
X18643608Y-77856281D02*
X18795989Y-77703900D01*
X18795989Y-77703900D02*
X18948370Y-77627710D01*
X20243607Y-79151520D02*
X20472179Y-79227710D01*
X20472179Y-79227710D02*
X20853131Y-79227710D01*
X20853131Y-79227710D02*
X21005512Y-79151520D01*
X21005512Y-79151520D02*
X21081703Y-79075329D01*
X21081703Y-79075329D02*
X21157893Y-78922948D01*
X21157893Y-78922948D02*
X21157893Y-78770567D01*
X21157893Y-78770567D02*
X21081703Y-78618186D01*
X21081703Y-78618186D02*
X21005512Y-78541996D01*
X21005512Y-78541996D02*
X20853131Y-78465805D01*
X20853131Y-78465805D02*
X20548369Y-78389615D01*
X20548369Y-78389615D02*
X20395988Y-78313424D01*
X20395988Y-78313424D02*
X20319798Y-78237234D01*
X20319798Y-78237234D02*
X20243607Y-78084853D01*
X20243607Y-78084853D02*
X20243607Y-77932472D01*
X20243607Y-77932472D02*
X20319798Y-77780091D01*
X20319798Y-77780091D02*
X20395988Y-77703900D01*
X20395988Y-77703900D02*
X20548369Y-77627710D01*
X20548369Y-77627710D02*
X20929322Y-77627710D01*
X20929322Y-77627710D02*
X21157893Y-77703900D01*
X21615036Y-77627710D02*
X22529322Y-77627710D01*
X22072179Y-79227710D02*
X22072179Y-77627710D01*
X24129323Y-78161043D02*
X24510275Y-79227710D01*
X24510275Y-79227710D02*
X24891228Y-78161043D01*
X26186466Y-78161043D02*
X26186466Y-79227710D01*
X25805514Y-77551520D02*
X25424561Y-78694377D01*
X25424561Y-78694377D02*
X26415038Y-78694377D01*
X27024562Y-79075329D02*
X27100752Y-79151520D01*
X27100752Y-79151520D02*
X27024562Y-79227710D01*
X27024562Y-79227710D02*
X26948371Y-79151520D01*
X26948371Y-79151520D02*
X27024562Y-79075329D01*
X27024562Y-79075329D02*
X27024562Y-79227710D01*
X27634086Y-77627710D02*
X28700753Y-77627710D01*
X28700753Y-77627710D02*
X28015038Y-79227710D01*
X29310277Y-79075329D02*
X29386467Y-79151520D01*
X29386467Y-79151520D02*
X29310277Y-79227710D01*
X29310277Y-79227710D02*
X29234086Y-79151520D01*
X29234086Y-79151520D02*
X29310277Y-79075329D01*
X29310277Y-79075329D02*
X29310277Y-79227710D01*
X30834087Y-77627710D02*
X30072182Y-77627710D01*
X30072182Y-77627710D02*
X29995991Y-78389615D01*
X29995991Y-78389615D02*
X30072182Y-78313424D01*
X30072182Y-78313424D02*
X30224563Y-78237234D01*
X30224563Y-78237234D02*
X30605515Y-78237234D01*
X30605515Y-78237234D02*
X30757896Y-78313424D01*
X30757896Y-78313424D02*
X30834087Y-78389615D01*
X30834087Y-78389615D02*
X30910277Y-78541996D01*
X30910277Y-78541996D02*
X30910277Y-78922948D01*
X30910277Y-78922948D02*
X30834087Y-79075329D01*
X30834087Y-79075329D02*
X30757896Y-79151520D01*
X30757896Y-79151520D02*
X30605515Y-79227710D01*
X30605515Y-79227710D02*
X30224563Y-79227710D01*
X30224563Y-79227710D02*
X30072182Y-79151520D01*
X30072182Y-79151520D02*
X29995991Y-79075329D01*
X31595992Y-78618186D02*
X32815040Y-78618186D01*
X33881706Y-77627710D02*
X34186468Y-77627710D01*
X34186468Y-77627710D02*
X34338849Y-77703900D01*
X34338849Y-77703900D02*
X34491230Y-77856281D01*
X34491230Y-77856281D02*
X34567420Y-78161043D01*
X34567420Y-78161043D02*
X34567420Y-78694377D01*
X34567420Y-78694377D02*
X34491230Y-78999139D01*
X34491230Y-78999139D02*
X34338849Y-79151520D01*
X34338849Y-79151520D02*
X34186468Y-79227710D01*
X34186468Y-79227710D02*
X33881706Y-79227710D01*
X33881706Y-79227710D02*
X33729325Y-79151520D01*
X33729325Y-79151520D02*
X33576944Y-78999139D01*
X33576944Y-78999139D02*
X33500753Y-78694377D01*
X33500753Y-78694377D02*
X33500753Y-78161043D01*
X33500753Y-78161043D02*
X33576944Y-77856281D01*
X33576944Y-77856281D02*
X33729325Y-77703900D01*
X33729325Y-77703900D02*
X33881706Y-77627710D01*
X36015039Y-79227710D02*
X35253134Y-79227710D01*
X35253134Y-79227710D02*
X35253134Y-77627710D01*
X36548372Y-78389615D02*
X37081705Y-78389615D01*
X37310277Y-79227710D02*
X36548372Y-79227710D01*
X36548372Y-79227710D02*
X36548372Y-77627710D01*
X36548372Y-77627710D02*
X37310277Y-77627710D01*
X37995991Y-79227710D02*
X37995991Y-77627710D01*
X37995991Y-77627710D02*
X38376943Y-77627710D01*
X38376943Y-77627710D02*
X38605515Y-77703900D01*
X38605515Y-77703900D02*
X38757896Y-77856281D01*
X38757896Y-77856281D02*
X38834086Y-78008662D01*
X38834086Y-78008662D02*
X38910277Y-78313424D01*
X38910277Y-78313424D02*
X38910277Y-78541996D01*
X38910277Y-78541996D02*
X38834086Y-78846758D01*
X38834086Y-78846758D02*
X38757896Y-78999139D01*
X38757896Y-78999139D02*
X38605515Y-79151520D01*
X38605515Y-79151520D02*
X38376943Y-79227710D01*
X38376943Y-79227710D02*
X37995991Y-79227710D01*
D10*
X43100588Y-26042438D02*
X43005350Y-25994819D01*
X43005350Y-25994819D02*
X42862493Y-25994819D01*
X42862493Y-25994819D02*
X42719636Y-26042438D01*
X42719636Y-26042438D02*
X42624398Y-26137676D01*
X42624398Y-26137676D02*
X42576779Y-26232914D01*
X42576779Y-26232914D02*
X42529160Y-26423390D01*
X42529160Y-26423390D02*
X42529160Y-26566247D01*
X42529160Y-26566247D02*
X42576779Y-26756723D01*
X42576779Y-26756723D02*
X42624398Y-26851961D01*
X42624398Y-26851961D02*
X42719636Y-26947200D01*
X42719636Y-26947200D02*
X42862493Y-26994819D01*
X42862493Y-26994819D02*
X42957731Y-26994819D01*
X42957731Y-26994819D02*
X43100588Y-26947200D01*
X43100588Y-26947200D02*
X43148207Y-26899580D01*
X43148207Y-26899580D02*
X43148207Y-26566247D01*
X43148207Y-26566247D02*
X42957731Y-26566247D01*
X43576779Y-26994819D02*
X43576779Y-25994819D01*
X43576779Y-25994819D02*
X43957731Y-25994819D01*
X43957731Y-25994819D02*
X44052969Y-26042438D01*
X44052969Y-26042438D02*
X44100588Y-26090057D01*
X44100588Y-26090057D02*
X44148207Y-26185295D01*
X44148207Y-26185295D02*
X44148207Y-26328152D01*
X44148207Y-26328152D02*
X44100588Y-26423390D01*
X44100588Y-26423390D02*
X44052969Y-26471009D01*
X44052969Y-26471009D02*
X43957731Y-26518628D01*
X43957731Y-26518628D02*
X43576779Y-26518628D01*
X44576779Y-26994819D02*
X44576779Y-25994819D01*
X45243445Y-25994819D02*
X45433921Y-25994819D01*
X45433921Y-25994819D02*
X45529159Y-26042438D01*
X45529159Y-26042438D02*
X45624397Y-26137676D01*
X45624397Y-26137676D02*
X45672016Y-26328152D01*
X45672016Y-26328152D02*
X45672016Y-26661485D01*
X45672016Y-26661485D02*
X45624397Y-26851961D01*
X45624397Y-26851961D02*
X45529159Y-26947200D01*
X45529159Y-26947200D02*
X45433921Y-26994819D01*
X45433921Y-26994819D02*
X45243445Y-26994819D01*
X45243445Y-26994819D02*
X45148207Y-26947200D01*
X45148207Y-26947200D02*
X45052969Y-26851961D01*
X45052969Y-26851961D02*
X45005350Y-26661485D01*
X45005350Y-26661485D02*
X45005350Y-26328152D01*
X45005350Y-26328152D02*
X45052969Y-26137676D01*
X45052969Y-26137676D02*
X45148207Y-26042438D01*
X45148207Y-26042438D02*
X45243445Y-25994819D01*
X46005350Y-25994819D02*
X46672016Y-25994819D01*
X46672016Y-25994819D02*
X46243445Y-26994819D01*
X43100588Y-28582438D02*
X43005350Y-28534819D01*
X43005350Y-28534819D02*
X42862493Y-28534819D01*
X42862493Y-28534819D02*
X42719636Y-28582438D01*
X42719636Y-28582438D02*
X42624398Y-28677676D01*
X42624398Y-28677676D02*
X42576779Y-28772914D01*
X42576779Y-28772914D02*
X42529160Y-28963390D01*
X42529160Y-28963390D02*
X42529160Y-29106247D01*
X42529160Y-29106247D02*
X42576779Y-29296723D01*
X42576779Y-29296723D02*
X42624398Y-29391961D01*
X42624398Y-29391961D02*
X42719636Y-29487200D01*
X42719636Y-29487200D02*
X42862493Y-29534819D01*
X42862493Y-29534819D02*
X42957731Y-29534819D01*
X42957731Y-29534819D02*
X43100588Y-29487200D01*
X43100588Y-29487200D02*
X43148207Y-29439580D01*
X43148207Y-29439580D02*
X43148207Y-29106247D01*
X43148207Y-29106247D02*
X42957731Y-29106247D01*
X43576779Y-29534819D02*
X43576779Y-28534819D01*
X43576779Y-28534819D02*
X43957731Y-28534819D01*
X43957731Y-28534819D02*
X44052969Y-28582438D01*
X44052969Y-28582438D02*
X44100588Y-28630057D01*
X44100588Y-28630057D02*
X44148207Y-28725295D01*
X44148207Y-28725295D02*
X44148207Y-28868152D01*
X44148207Y-28868152D02*
X44100588Y-28963390D01*
X44100588Y-28963390D02*
X44052969Y-29011009D01*
X44052969Y-29011009D02*
X43957731Y-29058628D01*
X43957731Y-29058628D02*
X43576779Y-29058628D01*
X44576779Y-29534819D02*
X44576779Y-28534819D01*
X45243445Y-28534819D02*
X45433921Y-28534819D01*
X45433921Y-28534819D02*
X45529159Y-28582438D01*
X45529159Y-28582438D02*
X45624397Y-28677676D01*
X45624397Y-28677676D02*
X45672016Y-28868152D01*
X45672016Y-28868152D02*
X45672016Y-29201485D01*
X45672016Y-29201485D02*
X45624397Y-29391961D01*
X45624397Y-29391961D02*
X45529159Y-29487200D01*
X45529159Y-29487200D02*
X45433921Y-29534819D01*
X45433921Y-29534819D02*
X45243445Y-29534819D01*
X45243445Y-29534819D02*
X45148207Y-29487200D01*
X45148207Y-29487200D02*
X45052969Y-29391961D01*
X45052969Y-29391961D02*
X45005350Y-29201485D01*
X45005350Y-29201485D02*
X45005350Y-28868152D01*
X45005350Y-28868152D02*
X45052969Y-28677676D01*
X45052969Y-28677676D02*
X45148207Y-28582438D01*
X45148207Y-28582438D02*
X45243445Y-28534819D01*
X46529159Y-28534819D02*
X46338683Y-28534819D01*
X46338683Y-28534819D02*
X46243445Y-28582438D01*
X46243445Y-28582438D02*
X46195826Y-28630057D01*
X46195826Y-28630057D02*
X46100588Y-28772914D01*
X46100588Y-28772914D02*
X46052969Y-28963390D01*
X46052969Y-28963390D02*
X46052969Y-29344342D01*
X46052969Y-29344342D02*
X46100588Y-29439580D01*
X46100588Y-29439580D02*
X46148207Y-29487200D01*
X46148207Y-29487200D02*
X46243445Y-29534819D01*
X46243445Y-29534819D02*
X46433921Y-29534819D01*
X46433921Y-29534819D02*
X46529159Y-29487200D01*
X46529159Y-29487200D02*
X46576778Y-29439580D01*
X46576778Y-29439580D02*
X46624397Y-29344342D01*
X46624397Y-29344342D02*
X46624397Y-29106247D01*
X46624397Y-29106247D02*
X46576778Y-29011009D01*
X46576778Y-29011009D02*
X46529159Y-28963390D01*
X46529159Y-28963390D02*
X46433921Y-28915771D01*
X46433921Y-28915771D02*
X46243445Y-28915771D01*
X46243445Y-28915771D02*
X46148207Y-28963390D01*
X46148207Y-28963390D02*
X46100588Y-29011009D01*
X46100588Y-29011009D02*
X46052969Y-29106247D01*
X43100588Y-23502438D02*
X43005350Y-23454819D01*
X43005350Y-23454819D02*
X42862493Y-23454819D01*
X42862493Y-23454819D02*
X42719636Y-23502438D01*
X42719636Y-23502438D02*
X42624398Y-23597676D01*
X42624398Y-23597676D02*
X42576779Y-23692914D01*
X42576779Y-23692914D02*
X42529160Y-23883390D01*
X42529160Y-23883390D02*
X42529160Y-24026247D01*
X42529160Y-24026247D02*
X42576779Y-24216723D01*
X42576779Y-24216723D02*
X42624398Y-24311961D01*
X42624398Y-24311961D02*
X42719636Y-24407200D01*
X42719636Y-24407200D02*
X42862493Y-24454819D01*
X42862493Y-24454819D02*
X42957731Y-24454819D01*
X42957731Y-24454819D02*
X43100588Y-24407200D01*
X43100588Y-24407200D02*
X43148207Y-24359580D01*
X43148207Y-24359580D02*
X43148207Y-24026247D01*
X43148207Y-24026247D02*
X42957731Y-24026247D01*
X43576779Y-24454819D02*
X43576779Y-23454819D01*
X43576779Y-23454819D02*
X43957731Y-23454819D01*
X43957731Y-23454819D02*
X44052969Y-23502438D01*
X44052969Y-23502438D02*
X44100588Y-23550057D01*
X44100588Y-23550057D02*
X44148207Y-23645295D01*
X44148207Y-23645295D02*
X44148207Y-23788152D01*
X44148207Y-23788152D02*
X44100588Y-23883390D01*
X44100588Y-23883390D02*
X44052969Y-23931009D01*
X44052969Y-23931009D02*
X43957731Y-23978628D01*
X43957731Y-23978628D02*
X43576779Y-23978628D01*
X44576779Y-24454819D02*
X44576779Y-23454819D01*
X45243445Y-23454819D02*
X45433921Y-23454819D01*
X45433921Y-23454819D02*
X45529159Y-23502438D01*
X45529159Y-23502438D02*
X45624397Y-23597676D01*
X45624397Y-23597676D02*
X45672016Y-23788152D01*
X45672016Y-23788152D02*
X45672016Y-24121485D01*
X45672016Y-24121485D02*
X45624397Y-24311961D01*
X45624397Y-24311961D02*
X45529159Y-24407200D01*
X45529159Y-24407200D02*
X45433921Y-24454819D01*
X45433921Y-24454819D02*
X45243445Y-24454819D01*
X45243445Y-24454819D02*
X45148207Y-24407200D01*
X45148207Y-24407200D02*
X45052969Y-24311961D01*
X45052969Y-24311961D02*
X45005350Y-24121485D01*
X45005350Y-24121485D02*
X45005350Y-23788152D01*
X45005350Y-23788152D02*
X45052969Y-23597676D01*
X45052969Y-23597676D02*
X45148207Y-23502438D01*
X45148207Y-23502438D02*
X45243445Y-23454819D01*
X46243445Y-23883390D02*
X46148207Y-23835771D01*
X46148207Y-23835771D02*
X46100588Y-23788152D01*
X46100588Y-23788152D02*
X46052969Y-23692914D01*
X46052969Y-23692914D02*
X46052969Y-23645295D01*
X46052969Y-23645295D02*
X46100588Y-23550057D01*
X46100588Y-23550057D02*
X46148207Y-23502438D01*
X46148207Y-23502438D02*
X46243445Y-23454819D01*
X46243445Y-23454819D02*
X46433921Y-23454819D01*
X46433921Y-23454819D02*
X46529159Y-23502438D01*
X46529159Y-23502438D02*
X46576778Y-23550057D01*
X46576778Y-23550057D02*
X46624397Y-23645295D01*
X46624397Y-23645295D02*
X46624397Y-23692914D01*
X46624397Y-23692914D02*
X46576778Y-23788152D01*
X46576778Y-23788152D02*
X46529159Y-23835771D01*
X46529159Y-23835771D02*
X46433921Y-23883390D01*
X46433921Y-23883390D02*
X46243445Y-23883390D01*
X46243445Y-23883390D02*
X46148207Y-23931009D01*
X46148207Y-23931009D02*
X46100588Y-23978628D01*
X46100588Y-23978628D02*
X46052969Y-24073866D01*
X46052969Y-24073866D02*
X46052969Y-24264342D01*
X46052969Y-24264342D02*
X46100588Y-24359580D01*
X46100588Y-24359580D02*
X46148207Y-24407200D01*
X46148207Y-24407200D02*
X46243445Y-24454819D01*
X46243445Y-24454819D02*
X46433921Y-24454819D01*
X46433921Y-24454819D02*
X46529159Y-24407200D01*
X46529159Y-24407200D02*
X46576778Y-24359580D01*
X46576778Y-24359580D02*
X46624397Y-24264342D01*
X46624397Y-24264342D02*
X46624397Y-24073866D01*
X46624397Y-24073866D02*
X46576778Y-23978628D01*
X46576778Y-23978628D02*
X46529159Y-23931009D01*
X46529159Y-23931009D02*
X46433921Y-23883390D01*
X12360588Y-33662438D02*
X12265350Y-33614819D01*
X12265350Y-33614819D02*
X12122493Y-33614819D01*
X12122493Y-33614819D02*
X11979636Y-33662438D01*
X11979636Y-33662438D02*
X11884398Y-33757676D01*
X11884398Y-33757676D02*
X11836779Y-33852914D01*
X11836779Y-33852914D02*
X11789160Y-34043390D01*
X11789160Y-34043390D02*
X11789160Y-34186247D01*
X11789160Y-34186247D02*
X11836779Y-34376723D01*
X11836779Y-34376723D02*
X11884398Y-34471961D01*
X11884398Y-34471961D02*
X11979636Y-34567200D01*
X11979636Y-34567200D02*
X12122493Y-34614819D01*
X12122493Y-34614819D02*
X12217731Y-34614819D01*
X12217731Y-34614819D02*
X12360588Y-34567200D01*
X12360588Y-34567200D02*
X12408207Y-34519580D01*
X12408207Y-34519580D02*
X12408207Y-34186247D01*
X12408207Y-34186247D02*
X12217731Y-34186247D01*
X12836779Y-34614819D02*
X12836779Y-33614819D01*
X12836779Y-33614819D02*
X13217731Y-33614819D01*
X13217731Y-33614819D02*
X13312969Y-33662438D01*
X13312969Y-33662438D02*
X13360588Y-33710057D01*
X13360588Y-33710057D02*
X13408207Y-33805295D01*
X13408207Y-33805295D02*
X13408207Y-33948152D01*
X13408207Y-33948152D02*
X13360588Y-34043390D01*
X13360588Y-34043390D02*
X13312969Y-34091009D01*
X13312969Y-34091009D02*
X13217731Y-34138628D01*
X13217731Y-34138628D02*
X12836779Y-34138628D01*
X13836779Y-34614819D02*
X13836779Y-33614819D01*
X14503445Y-33614819D02*
X14693921Y-33614819D01*
X14693921Y-33614819D02*
X14789159Y-33662438D01*
X14789159Y-33662438D02*
X14884397Y-33757676D01*
X14884397Y-33757676D02*
X14932016Y-33948152D01*
X14932016Y-33948152D02*
X14932016Y-34281485D01*
X14932016Y-34281485D02*
X14884397Y-34471961D01*
X14884397Y-34471961D02*
X14789159Y-34567200D01*
X14789159Y-34567200D02*
X14693921Y-34614819D01*
X14693921Y-34614819D02*
X14503445Y-34614819D01*
X14503445Y-34614819D02*
X14408207Y-34567200D01*
X14408207Y-34567200D02*
X14312969Y-34471961D01*
X14312969Y-34471961D02*
X14265350Y-34281485D01*
X14265350Y-34281485D02*
X14265350Y-33948152D01*
X14265350Y-33948152D02*
X14312969Y-33757676D01*
X14312969Y-33757676D02*
X14408207Y-33662438D01*
X14408207Y-33662438D02*
X14503445Y-33614819D01*
X15884397Y-34614819D02*
X15312969Y-34614819D01*
X15598683Y-34614819D02*
X15598683Y-33614819D01*
X15598683Y-33614819D02*
X15503445Y-33757676D01*
X15503445Y-33757676D02*
X15408207Y-33852914D01*
X15408207Y-33852914D02*
X15312969Y-33900533D01*
X16265350Y-33710057D02*
X16312969Y-33662438D01*
X16312969Y-33662438D02*
X16408207Y-33614819D01*
X16408207Y-33614819D02*
X16646302Y-33614819D01*
X16646302Y-33614819D02*
X16741540Y-33662438D01*
X16741540Y-33662438D02*
X16789159Y-33710057D01*
X16789159Y-33710057D02*
X16836778Y-33805295D01*
X16836778Y-33805295D02*
X16836778Y-33900533D01*
X16836778Y-33900533D02*
X16789159Y-34043390D01*
X16789159Y-34043390D02*
X16217731Y-34614819D01*
X16217731Y-34614819D02*
X16836778Y-34614819D01*
D11*
X68737123Y-41924110D02*
X68894266Y-41976491D01*
X68894266Y-41976491D02*
X68946647Y-42028872D01*
X68946647Y-42028872D02*
X68999028Y-42133634D01*
X68999028Y-42133634D02*
X68999028Y-42290777D01*
X68999028Y-42290777D02*
X68946647Y-42395539D01*
X68946647Y-42395539D02*
X68894266Y-42447920D01*
X68894266Y-42447920D02*
X68789504Y-42500300D01*
X68789504Y-42500300D02*
X68370456Y-42500300D01*
X68370456Y-42500300D02*
X68370456Y-41400300D01*
X68370456Y-41400300D02*
X68737123Y-41400300D01*
X68737123Y-41400300D02*
X68841885Y-41452681D01*
X68841885Y-41452681D02*
X68894266Y-41505062D01*
X68894266Y-41505062D02*
X68946647Y-41609824D01*
X68946647Y-41609824D02*
X68946647Y-41714586D01*
X68946647Y-41714586D02*
X68894266Y-41819348D01*
X68894266Y-41819348D02*
X68841885Y-41871729D01*
X68841885Y-41871729D02*
X68737123Y-41924110D01*
X68737123Y-41924110D02*
X68370456Y-41924110D01*
X69941885Y-41766967D02*
X69941885Y-42500300D01*
X69470456Y-41766967D02*
X69470456Y-42343158D01*
X69470456Y-42343158D02*
X69522837Y-42447920D01*
X69522837Y-42447920D02*
X69627599Y-42500300D01*
X69627599Y-42500300D02*
X69784742Y-42500300D01*
X69784742Y-42500300D02*
X69889504Y-42447920D01*
X69889504Y-42447920D02*
X69941885Y-42395539D01*
X70360932Y-41766967D02*
X70937123Y-41766967D01*
X70937123Y-41766967D02*
X70360932Y-42500300D01*
X70360932Y-42500300D02*
X70937123Y-42500300D01*
X71251408Y-41766967D02*
X71827599Y-41766967D01*
X71827599Y-41766967D02*
X71251408Y-42500300D01*
X71251408Y-42500300D02*
X71827599Y-42500300D01*
X72665694Y-42447920D02*
X72560932Y-42500300D01*
X72560932Y-42500300D02*
X72351408Y-42500300D01*
X72351408Y-42500300D02*
X72246646Y-42447920D01*
X72246646Y-42447920D02*
X72194265Y-42343158D01*
X72194265Y-42343158D02*
X72194265Y-41924110D01*
X72194265Y-41924110D02*
X72246646Y-41819348D01*
X72246646Y-41819348D02*
X72351408Y-41766967D01*
X72351408Y-41766967D02*
X72560932Y-41766967D01*
X72560932Y-41766967D02*
X72665694Y-41819348D01*
X72665694Y-41819348D02*
X72718075Y-41924110D01*
X72718075Y-41924110D02*
X72718075Y-42028872D01*
X72718075Y-42028872D02*
X72194265Y-42133634D01*
X73189503Y-42500300D02*
X73189503Y-41766967D01*
X73189503Y-41976491D02*
X73241884Y-41871729D01*
X73241884Y-41871729D02*
X73294265Y-41819348D01*
X73294265Y-41819348D02*
X73399027Y-41766967D01*
X73399027Y-41766967D02*
X73503789Y-41766967D01*
D10*
X5289160Y-81907200D02*
X5432017Y-81954819D01*
X5432017Y-81954819D02*
X5670112Y-81954819D01*
X5670112Y-81954819D02*
X5765350Y-81907200D01*
X5765350Y-81907200D02*
X5812969Y-81859580D01*
X5812969Y-81859580D02*
X5860588Y-81764342D01*
X5860588Y-81764342D02*
X5860588Y-81669104D01*
X5860588Y-81669104D02*
X5812969Y-81573866D01*
X5812969Y-81573866D02*
X5765350Y-81526247D01*
X5765350Y-81526247D02*
X5670112Y-81478628D01*
X5670112Y-81478628D02*
X5479636Y-81431009D01*
X5479636Y-81431009D02*
X5384398Y-81383390D01*
X5384398Y-81383390D02*
X5336779Y-81335771D01*
X5336779Y-81335771D02*
X5289160Y-81240533D01*
X5289160Y-81240533D02*
X5289160Y-81145295D01*
X5289160Y-81145295D02*
X5336779Y-81050057D01*
X5336779Y-81050057D02*
X5384398Y-81002438D01*
X5384398Y-81002438D02*
X5479636Y-80954819D01*
X5479636Y-80954819D02*
X5717731Y-80954819D01*
X5717731Y-80954819D02*
X5860588Y-81002438D01*
X6289160Y-81954819D02*
X6289160Y-81288152D01*
X6289160Y-81383390D02*
X6336779Y-81335771D01*
X6336779Y-81335771D02*
X6432017Y-81288152D01*
X6432017Y-81288152D02*
X6574874Y-81288152D01*
X6574874Y-81288152D02*
X6670112Y-81335771D01*
X6670112Y-81335771D02*
X6717731Y-81431009D01*
X6717731Y-81431009D02*
X6717731Y-81954819D01*
X6717731Y-81431009D02*
X6765350Y-81335771D01*
X6765350Y-81335771D02*
X6860588Y-81288152D01*
X6860588Y-81288152D02*
X7003445Y-81288152D01*
X7003445Y-81288152D02*
X7098684Y-81335771D01*
X7098684Y-81335771D02*
X7146303Y-81431009D01*
X7146303Y-81431009D02*
X7146303Y-81954819D01*
X8051064Y-81954819D02*
X8051064Y-81431009D01*
X8051064Y-81431009D02*
X8003445Y-81335771D01*
X8003445Y-81335771D02*
X7908207Y-81288152D01*
X7908207Y-81288152D02*
X7717731Y-81288152D01*
X7717731Y-81288152D02*
X7622493Y-81335771D01*
X8051064Y-81907200D02*
X7955826Y-81954819D01*
X7955826Y-81954819D02*
X7717731Y-81954819D01*
X7717731Y-81954819D02*
X7622493Y-81907200D01*
X7622493Y-81907200D02*
X7574874Y-81811961D01*
X7574874Y-81811961D02*
X7574874Y-81716723D01*
X7574874Y-81716723D02*
X7622493Y-81621485D01*
X7622493Y-81621485D02*
X7717731Y-81573866D01*
X7717731Y-81573866D02*
X7955826Y-81573866D01*
X7955826Y-81573866D02*
X8051064Y-81526247D01*
X8527255Y-81954819D02*
X8527255Y-81288152D01*
X8527255Y-81478628D02*
X8574874Y-81383390D01*
X8574874Y-81383390D02*
X8622493Y-81335771D01*
X8622493Y-81335771D02*
X8717731Y-81288152D01*
X8717731Y-81288152D02*
X8812969Y-81288152D01*
X9003446Y-81288152D02*
X9384398Y-81288152D01*
X9146303Y-80954819D02*
X9146303Y-81811961D01*
X9146303Y-81811961D02*
X9193922Y-81907200D01*
X9193922Y-81907200D02*
X9289160Y-81954819D01*
X9289160Y-81954819D02*
X9384398Y-81954819D01*
X10479637Y-81954819D02*
X10479637Y-80954819D01*
X10812970Y-80954819D02*
X11146303Y-81954819D01*
X11146303Y-81954819D02*
X11479636Y-80954819D01*
X12527256Y-81669104D02*
X13003446Y-81669104D01*
X12432018Y-81954819D02*
X12765351Y-80954819D01*
X12765351Y-80954819D02*
X13098684Y-81954819D01*
X13574875Y-81954819D02*
X13479637Y-81907200D01*
X13479637Y-81907200D02*
X13432018Y-81811961D01*
X13432018Y-81811961D02*
X13432018Y-80954819D01*
X14336780Y-81907200D02*
X14241542Y-81954819D01*
X14241542Y-81954819D02*
X14051066Y-81954819D01*
X14051066Y-81954819D02*
X13955828Y-81907200D01*
X13955828Y-81907200D02*
X13908209Y-81811961D01*
X13908209Y-81811961D02*
X13908209Y-81431009D01*
X13908209Y-81431009D02*
X13955828Y-81335771D01*
X13955828Y-81335771D02*
X14051066Y-81288152D01*
X14051066Y-81288152D02*
X14241542Y-81288152D01*
X14241542Y-81288152D02*
X14336780Y-81335771D01*
X14336780Y-81335771D02*
X14384399Y-81431009D01*
X14384399Y-81431009D02*
X14384399Y-81526247D01*
X14384399Y-81526247D02*
X13908209Y-81621485D01*
X14812971Y-81954819D02*
X14812971Y-81288152D01*
X14812971Y-81478628D02*
X14860590Y-81383390D01*
X14860590Y-81383390D02*
X14908209Y-81335771D01*
X14908209Y-81335771D02*
X15003447Y-81288152D01*
X15003447Y-81288152D02*
X15098685Y-81288152D01*
X15289162Y-81288152D02*
X15670114Y-81288152D01*
X15432019Y-80954819D02*
X15432019Y-81811961D01*
X15432019Y-81811961D02*
X15479638Y-81907200D01*
X15479638Y-81907200D02*
X15574876Y-81954819D01*
X15574876Y-81954819D02*
X15670114Y-81954819D01*
X17193924Y-81907200D02*
X17098686Y-81954819D01*
X17098686Y-81954819D02*
X16908210Y-81954819D01*
X16908210Y-81954819D02*
X16812972Y-81907200D01*
X16812972Y-81907200D02*
X16765353Y-81859580D01*
X16765353Y-81859580D02*
X16717734Y-81764342D01*
X16717734Y-81764342D02*
X16717734Y-81478628D01*
X16717734Y-81478628D02*
X16765353Y-81383390D01*
X16765353Y-81383390D02*
X16812972Y-81335771D01*
X16812972Y-81335771D02*
X16908210Y-81288152D01*
X16908210Y-81288152D02*
X17098686Y-81288152D01*
X17098686Y-81288152D02*
X17193924Y-81335771D01*
X18051067Y-81954819D02*
X18051067Y-81431009D01*
X18051067Y-81431009D02*
X18003448Y-81335771D01*
X18003448Y-81335771D02*
X17908210Y-81288152D01*
X17908210Y-81288152D02*
X17717734Y-81288152D01*
X17717734Y-81288152D02*
X17622496Y-81335771D01*
X18051067Y-81907200D02*
X17955829Y-81954819D01*
X17955829Y-81954819D02*
X17717734Y-81954819D01*
X17717734Y-81954819D02*
X17622496Y-81907200D01*
X17622496Y-81907200D02*
X17574877Y-81811961D01*
X17574877Y-81811961D02*
X17574877Y-81716723D01*
X17574877Y-81716723D02*
X17622496Y-81621485D01*
X17622496Y-81621485D02*
X17717734Y-81573866D01*
X17717734Y-81573866D02*
X17955829Y-81573866D01*
X17955829Y-81573866D02*
X18051067Y-81526247D01*
X18527258Y-81954819D02*
X18527258Y-81288152D01*
X18527258Y-81478628D02*
X18574877Y-81383390D01*
X18574877Y-81383390D02*
X18622496Y-81335771D01*
X18622496Y-81335771D02*
X18717734Y-81288152D01*
X18717734Y-81288152D02*
X18812972Y-81288152D01*
X19146306Y-81954819D02*
X19146306Y-81288152D01*
X19146306Y-81478628D02*
X19193925Y-81383390D01*
X19193925Y-81383390D02*
X19241544Y-81335771D01*
X19241544Y-81335771D02*
X19336782Y-81288152D01*
X19336782Y-81288152D02*
X19432020Y-81288152D01*
X19765354Y-81954819D02*
X19765354Y-81288152D01*
X19765354Y-80954819D02*
X19717735Y-81002438D01*
X19717735Y-81002438D02*
X19765354Y-81050057D01*
X19765354Y-81050057D02*
X19812973Y-81002438D01*
X19812973Y-81002438D02*
X19765354Y-80954819D01*
X19765354Y-80954819D02*
X19765354Y-81050057D01*
X20622496Y-81907200D02*
X20527258Y-81954819D01*
X20527258Y-81954819D02*
X20336782Y-81954819D01*
X20336782Y-81954819D02*
X20241544Y-81907200D01*
X20241544Y-81907200D02*
X20193925Y-81811961D01*
X20193925Y-81811961D02*
X20193925Y-81431009D01*
X20193925Y-81431009D02*
X20241544Y-81335771D01*
X20241544Y-81335771D02*
X20336782Y-81288152D01*
X20336782Y-81288152D02*
X20527258Y-81288152D01*
X20527258Y-81288152D02*
X20622496Y-81335771D01*
X20622496Y-81335771D02*
X20670115Y-81431009D01*
X20670115Y-81431009D02*
X20670115Y-81526247D01*
X20670115Y-81526247D02*
X20193925Y-81621485D01*
X21098687Y-81954819D02*
X21098687Y-81288152D01*
X21098687Y-81478628D02*
X21146306Y-81383390D01*
X21146306Y-81383390D02*
X21193925Y-81335771D01*
X21193925Y-81335771D02*
X21289163Y-81288152D01*
X21289163Y-81288152D02*
X21384401Y-81288152D01*
X22479640Y-81954819D02*
X22479640Y-80954819D01*
X22479640Y-81335771D02*
X22574878Y-81288152D01*
X22574878Y-81288152D02*
X22765354Y-81288152D01*
X22765354Y-81288152D02*
X22860592Y-81335771D01*
X22860592Y-81335771D02*
X22908211Y-81383390D01*
X22908211Y-81383390D02*
X22955830Y-81478628D01*
X22955830Y-81478628D02*
X22955830Y-81764342D01*
X22955830Y-81764342D02*
X22908211Y-81859580D01*
X22908211Y-81859580D02*
X22860592Y-81907200D01*
X22860592Y-81907200D02*
X22765354Y-81954819D01*
X22765354Y-81954819D02*
X22574878Y-81954819D01*
X22574878Y-81954819D02*
X22479640Y-81907200D01*
X23527259Y-81954819D02*
X23432021Y-81907200D01*
X23432021Y-81907200D02*
X23384402Y-81859580D01*
X23384402Y-81859580D02*
X23336783Y-81764342D01*
X23336783Y-81764342D02*
X23336783Y-81478628D01*
X23336783Y-81478628D02*
X23384402Y-81383390D01*
X23384402Y-81383390D02*
X23432021Y-81335771D01*
X23432021Y-81335771D02*
X23527259Y-81288152D01*
X23527259Y-81288152D02*
X23670116Y-81288152D01*
X23670116Y-81288152D02*
X23765354Y-81335771D01*
X23765354Y-81335771D02*
X23812973Y-81383390D01*
X23812973Y-81383390D02*
X23860592Y-81478628D01*
X23860592Y-81478628D02*
X23860592Y-81764342D01*
X23860592Y-81764342D02*
X23812973Y-81859580D01*
X23812973Y-81859580D02*
X23765354Y-81907200D01*
X23765354Y-81907200D02*
X23670116Y-81954819D01*
X23670116Y-81954819D02*
X23527259Y-81954819D01*
X24717735Y-81954819D02*
X24717735Y-81431009D01*
X24717735Y-81431009D02*
X24670116Y-81335771D01*
X24670116Y-81335771D02*
X24574878Y-81288152D01*
X24574878Y-81288152D02*
X24384402Y-81288152D01*
X24384402Y-81288152D02*
X24289164Y-81335771D01*
X24717735Y-81907200D02*
X24622497Y-81954819D01*
X24622497Y-81954819D02*
X24384402Y-81954819D01*
X24384402Y-81954819D02*
X24289164Y-81907200D01*
X24289164Y-81907200D02*
X24241545Y-81811961D01*
X24241545Y-81811961D02*
X24241545Y-81716723D01*
X24241545Y-81716723D02*
X24289164Y-81621485D01*
X24289164Y-81621485D02*
X24384402Y-81573866D01*
X24384402Y-81573866D02*
X24622497Y-81573866D01*
X24622497Y-81573866D02*
X24717735Y-81526247D01*
X25193926Y-81954819D02*
X25193926Y-81288152D01*
X25193926Y-81478628D02*
X25241545Y-81383390D01*
X25241545Y-81383390D02*
X25289164Y-81335771D01*
X25289164Y-81335771D02*
X25384402Y-81288152D01*
X25384402Y-81288152D02*
X25479640Y-81288152D01*
X26241545Y-81954819D02*
X26241545Y-80954819D01*
X26241545Y-81907200D02*
X26146307Y-81954819D01*
X26146307Y-81954819D02*
X25955831Y-81954819D01*
X25955831Y-81954819D02*
X25860593Y-81907200D01*
X25860593Y-81907200D02*
X25812974Y-81859580D01*
X25812974Y-81859580D02*
X25765355Y-81764342D01*
X25765355Y-81764342D02*
X25765355Y-81478628D01*
X25765355Y-81478628D02*
X25812974Y-81383390D01*
X25812974Y-81383390D02*
X25860593Y-81335771D01*
X25860593Y-81335771D02*
X25955831Y-81288152D01*
X25955831Y-81288152D02*
X26146307Y-81288152D01*
X26146307Y-81288152D02*
X26241545Y-81335771D01*
X27479641Y-81954819D02*
X27479641Y-81288152D01*
X27479641Y-81478628D02*
X27527260Y-81383390D01*
X27527260Y-81383390D02*
X27574879Y-81335771D01*
X27574879Y-81335771D02*
X27670117Y-81288152D01*
X27670117Y-81288152D02*
X27765355Y-81288152D01*
X28479641Y-81907200D02*
X28384403Y-81954819D01*
X28384403Y-81954819D02*
X28193927Y-81954819D01*
X28193927Y-81954819D02*
X28098689Y-81907200D01*
X28098689Y-81907200D02*
X28051070Y-81811961D01*
X28051070Y-81811961D02*
X28051070Y-81431009D01*
X28051070Y-81431009D02*
X28098689Y-81335771D01*
X28098689Y-81335771D02*
X28193927Y-81288152D01*
X28193927Y-81288152D02*
X28384403Y-81288152D01*
X28384403Y-81288152D02*
X28479641Y-81335771D01*
X28479641Y-81335771D02*
X28527260Y-81431009D01*
X28527260Y-81431009D02*
X28527260Y-81526247D01*
X28527260Y-81526247D02*
X28051070Y-81621485D01*
X28860594Y-81288152D02*
X29098689Y-81954819D01*
X29098689Y-81954819D02*
X29336784Y-81288152D01*
X31003451Y-81954819D02*
X30432023Y-81954819D01*
X30717737Y-81954819D02*
X30717737Y-80954819D01*
X30717737Y-80954819D02*
X30622499Y-81097676D01*
X30622499Y-81097676D02*
X30527261Y-81192914D01*
X30527261Y-81192914D02*
X30432023Y-81240533D01*
X31432023Y-81859580D02*
X31479642Y-81907200D01*
X31479642Y-81907200D02*
X31432023Y-81954819D01*
X31432023Y-81954819D02*
X31384404Y-81907200D01*
X31384404Y-81907200D02*
X31432023Y-81859580D01*
X31432023Y-81859580D02*
X31432023Y-81954819D01*
X32098689Y-80954819D02*
X32193927Y-80954819D01*
X32193927Y-80954819D02*
X32289165Y-81002438D01*
X32289165Y-81002438D02*
X32336784Y-81050057D01*
X32336784Y-81050057D02*
X32384403Y-81145295D01*
X32384403Y-81145295D02*
X32432022Y-81335771D01*
X32432022Y-81335771D02*
X32432022Y-81573866D01*
X32432022Y-81573866D02*
X32384403Y-81764342D01*
X32384403Y-81764342D02*
X32336784Y-81859580D01*
X32336784Y-81859580D02*
X32289165Y-81907200D01*
X32289165Y-81907200D02*
X32193927Y-81954819D01*
X32193927Y-81954819D02*
X32098689Y-81954819D01*
X32098689Y-81954819D02*
X32003451Y-81907200D01*
X32003451Y-81907200D02*
X31955832Y-81859580D01*
X31955832Y-81859580D02*
X31908213Y-81764342D01*
X31908213Y-81764342D02*
X31860594Y-81573866D01*
X31860594Y-81573866D02*
X31860594Y-81335771D01*
X31860594Y-81335771D02*
X31908213Y-81145295D01*
X31908213Y-81145295D02*
X31955832Y-81050057D01*
X31955832Y-81050057D02*
X32003451Y-81002438D01*
X32003451Y-81002438D02*
X32098689Y-80954819D01*
D11*
X50370456Y-63500300D02*
X50370456Y-62400300D01*
X50370456Y-62400300D02*
X50789504Y-62400300D01*
X50789504Y-62400300D02*
X50894266Y-62452681D01*
X50894266Y-62452681D02*
X50946647Y-62505062D01*
X50946647Y-62505062D02*
X50999028Y-62609824D01*
X50999028Y-62609824D02*
X50999028Y-62766967D01*
X50999028Y-62766967D02*
X50946647Y-62871729D01*
X50946647Y-62871729D02*
X50894266Y-62924110D01*
X50894266Y-62924110D02*
X50789504Y-62976491D01*
X50789504Y-62976491D02*
X50370456Y-62976491D01*
X51941885Y-63500300D02*
X51941885Y-62924110D01*
X51941885Y-62924110D02*
X51889504Y-62819348D01*
X51889504Y-62819348D02*
X51784742Y-62766967D01*
X51784742Y-62766967D02*
X51575218Y-62766967D01*
X51575218Y-62766967D02*
X51470456Y-62819348D01*
X51941885Y-63447920D02*
X51837123Y-63500300D01*
X51837123Y-63500300D02*
X51575218Y-63500300D01*
X51575218Y-63500300D02*
X51470456Y-63447920D01*
X51470456Y-63447920D02*
X51418075Y-63343158D01*
X51418075Y-63343158D02*
X51418075Y-63238396D01*
X51418075Y-63238396D02*
X51470456Y-63133634D01*
X51470456Y-63133634D02*
X51575218Y-63081253D01*
X51575218Y-63081253D02*
X51837123Y-63081253D01*
X51837123Y-63081253D02*
X51941885Y-63028872D01*
X52937123Y-62766967D02*
X52937123Y-63657443D01*
X52937123Y-63657443D02*
X52884742Y-63762205D01*
X52884742Y-63762205D02*
X52832361Y-63814586D01*
X52832361Y-63814586D02*
X52727599Y-63866967D01*
X52727599Y-63866967D02*
X52570456Y-63866967D01*
X52570456Y-63866967D02*
X52465694Y-63814586D01*
X52937123Y-63447920D02*
X52832361Y-63500300D01*
X52832361Y-63500300D02*
X52622837Y-63500300D01*
X52622837Y-63500300D02*
X52518075Y-63447920D01*
X52518075Y-63447920D02*
X52465694Y-63395539D01*
X52465694Y-63395539D02*
X52413313Y-63290777D01*
X52413313Y-63290777D02*
X52413313Y-62976491D01*
X52413313Y-62976491D02*
X52465694Y-62871729D01*
X52465694Y-62871729D02*
X52518075Y-62819348D01*
X52518075Y-62819348D02*
X52622837Y-62766967D01*
X52622837Y-62766967D02*
X52832361Y-62766967D01*
X52832361Y-62766967D02*
X52937123Y-62819348D01*
X53879980Y-63447920D02*
X53775218Y-63500300D01*
X53775218Y-63500300D02*
X53565694Y-63500300D01*
X53565694Y-63500300D02*
X53460932Y-63447920D01*
X53460932Y-63447920D02*
X53408551Y-63343158D01*
X53408551Y-63343158D02*
X53408551Y-62924110D01*
X53408551Y-62924110D02*
X53460932Y-62819348D01*
X53460932Y-62819348D02*
X53565694Y-62766967D01*
X53565694Y-62766967D02*
X53775218Y-62766967D01*
X53775218Y-62766967D02*
X53879980Y-62819348D01*
X53879980Y-62819348D02*
X53932361Y-62924110D01*
X53932361Y-62924110D02*
X53932361Y-63028872D01*
X53932361Y-63028872D02*
X53408551Y-63133634D01*
X56027599Y-62347920D02*
X55084741Y-63762205D01*
X57179979Y-63447920D02*
X57284741Y-63500300D01*
X57284741Y-63500300D02*
X57494265Y-63500300D01*
X57494265Y-63500300D02*
X57599027Y-63447920D01*
X57599027Y-63447920D02*
X57651408Y-63343158D01*
X57651408Y-63343158D02*
X57651408Y-63290777D01*
X57651408Y-63290777D02*
X57599027Y-63186015D01*
X57599027Y-63186015D02*
X57494265Y-63133634D01*
X57494265Y-63133634D02*
X57337122Y-63133634D01*
X57337122Y-63133634D02*
X57232360Y-63081253D01*
X57232360Y-63081253D02*
X57179979Y-62976491D01*
X57179979Y-62976491D02*
X57179979Y-62924110D01*
X57179979Y-62924110D02*
X57232360Y-62819348D01*
X57232360Y-62819348D02*
X57337122Y-62766967D01*
X57337122Y-62766967D02*
X57494265Y-62766967D01*
X57494265Y-62766967D02*
X57599027Y-62819348D01*
X58594265Y-63447920D02*
X58489503Y-63500300D01*
X58489503Y-63500300D02*
X58279979Y-63500300D01*
X58279979Y-63500300D02*
X58175217Y-63447920D01*
X58175217Y-63447920D02*
X58122836Y-63395539D01*
X58122836Y-63395539D02*
X58070455Y-63290777D01*
X58070455Y-63290777D02*
X58070455Y-62976491D01*
X58070455Y-62976491D02*
X58122836Y-62871729D01*
X58122836Y-62871729D02*
X58175217Y-62819348D01*
X58175217Y-62819348D02*
X58279979Y-62766967D01*
X58279979Y-62766967D02*
X58489503Y-62766967D01*
X58489503Y-62766967D02*
X58594265Y-62819348D01*
X59065693Y-63500300D02*
X59065693Y-62766967D01*
X59065693Y-62976491D02*
X59118074Y-62871729D01*
X59118074Y-62871729D02*
X59170455Y-62819348D01*
X59170455Y-62819348D02*
X59275217Y-62766967D01*
X59275217Y-62766967D02*
X59379979Y-62766967D01*
X60165693Y-63447920D02*
X60060931Y-63500300D01*
X60060931Y-63500300D02*
X59851407Y-63500300D01*
X59851407Y-63500300D02*
X59746645Y-63447920D01*
X59746645Y-63447920D02*
X59694264Y-63343158D01*
X59694264Y-63343158D02*
X59694264Y-62924110D01*
X59694264Y-62924110D02*
X59746645Y-62819348D01*
X59746645Y-62819348D02*
X59851407Y-62766967D01*
X59851407Y-62766967D02*
X60060931Y-62766967D01*
X60060931Y-62766967D02*
X60165693Y-62819348D01*
X60165693Y-62819348D02*
X60218074Y-62924110D01*
X60218074Y-62924110D02*
X60218074Y-63028872D01*
X60218074Y-63028872D02*
X59694264Y-63133634D01*
X61108550Y-63447920D02*
X61003788Y-63500300D01*
X61003788Y-63500300D02*
X60794264Y-63500300D01*
X60794264Y-63500300D02*
X60689502Y-63447920D01*
X60689502Y-63447920D02*
X60637121Y-63343158D01*
X60637121Y-63343158D02*
X60637121Y-62924110D01*
X60637121Y-62924110D02*
X60689502Y-62819348D01*
X60689502Y-62819348D02*
X60794264Y-62766967D01*
X60794264Y-62766967D02*
X61003788Y-62766967D01*
X61003788Y-62766967D02*
X61108550Y-62819348D01*
X61108550Y-62819348D02*
X61160931Y-62924110D01*
X61160931Y-62924110D02*
X61160931Y-63028872D01*
X61160931Y-63028872D02*
X60637121Y-63133634D01*
X61632359Y-62766967D02*
X61632359Y-63500300D01*
X61632359Y-62871729D02*
X61684740Y-62819348D01*
X61684740Y-62819348D02*
X61789502Y-62766967D01*
X61789502Y-62766967D02*
X61946645Y-62766967D01*
X61946645Y-62766967D02*
X62051407Y-62819348D01*
X62051407Y-62819348D02*
X62103788Y-62924110D01*
X62103788Y-62924110D02*
X62103788Y-63500300D01*
X62575216Y-63447920D02*
X62679978Y-63500300D01*
X62679978Y-63500300D02*
X62889502Y-63500300D01*
X62889502Y-63500300D02*
X62994264Y-63447920D01*
X62994264Y-63447920D02*
X63046645Y-63343158D01*
X63046645Y-63343158D02*
X63046645Y-63290777D01*
X63046645Y-63290777D02*
X62994264Y-63186015D01*
X62994264Y-63186015D02*
X62889502Y-63133634D01*
X62889502Y-63133634D02*
X62732359Y-63133634D01*
X62732359Y-63133634D02*
X62627597Y-63081253D01*
X62627597Y-63081253D02*
X62575216Y-62976491D01*
X62575216Y-62976491D02*
X62575216Y-62924110D01*
X62575216Y-62924110D02*
X62627597Y-62819348D01*
X62627597Y-62819348D02*
X62732359Y-62766967D01*
X62732359Y-62766967D02*
X62889502Y-62766967D01*
X62889502Y-62766967D02*
X62994264Y-62819348D01*
X63989502Y-63500300D02*
X63989502Y-62924110D01*
X63989502Y-62924110D02*
X63937121Y-62819348D01*
X63937121Y-62819348D02*
X63832359Y-62766967D01*
X63832359Y-62766967D02*
X63622835Y-62766967D01*
X63622835Y-62766967D02*
X63518073Y-62819348D01*
X63989502Y-63447920D02*
X63884740Y-63500300D01*
X63884740Y-63500300D02*
X63622835Y-63500300D01*
X63622835Y-63500300D02*
X63518073Y-63447920D01*
X63518073Y-63447920D02*
X63465692Y-63343158D01*
X63465692Y-63343158D02*
X63465692Y-63238396D01*
X63465692Y-63238396D02*
X63518073Y-63133634D01*
X63518073Y-63133634D02*
X63622835Y-63081253D01*
X63622835Y-63081253D02*
X63884740Y-63081253D01*
X63884740Y-63081253D02*
X63989502Y-63028872D01*
X64408549Y-62766967D02*
X64670454Y-63500300D01*
X64670454Y-63500300D02*
X64932359Y-62766967D01*
X65770454Y-63447920D02*
X65665692Y-63500300D01*
X65665692Y-63500300D02*
X65456168Y-63500300D01*
X65456168Y-63500300D02*
X65351406Y-63447920D01*
X65351406Y-63447920D02*
X65299025Y-63343158D01*
X65299025Y-63343158D02*
X65299025Y-62924110D01*
X65299025Y-62924110D02*
X65351406Y-62819348D01*
X65351406Y-62819348D02*
X65456168Y-62766967D01*
X65456168Y-62766967D02*
X65665692Y-62766967D01*
X65665692Y-62766967D02*
X65770454Y-62819348D01*
X65770454Y-62819348D02*
X65822835Y-62924110D01*
X65822835Y-62924110D02*
X65822835Y-63028872D01*
X65822835Y-63028872D02*
X65299025Y-63133634D01*
X66294263Y-63500300D02*
X66294263Y-62766967D01*
X66294263Y-62976491D02*
X66346644Y-62871729D01*
X66346644Y-62871729D02*
X66399025Y-62819348D01*
X66399025Y-62819348D02*
X66503787Y-62766967D01*
X66503787Y-62766967D02*
X66608549Y-62766967D01*
X78579980Y-20670300D02*
X78789504Y-20670300D01*
X78789504Y-20670300D02*
X78894266Y-20722681D01*
X78894266Y-20722681D02*
X78999028Y-20827443D01*
X78999028Y-20827443D02*
X79051409Y-21036967D01*
X79051409Y-21036967D02*
X79051409Y-21403634D01*
X79051409Y-21403634D02*
X78999028Y-21613158D01*
X78999028Y-21613158D02*
X78894266Y-21717920D01*
X78894266Y-21717920D02*
X78789504Y-21770300D01*
X78789504Y-21770300D02*
X78579980Y-21770300D01*
X78579980Y-21770300D02*
X78475218Y-21717920D01*
X78475218Y-21717920D02*
X78370456Y-21613158D01*
X78370456Y-21613158D02*
X78318075Y-21403634D01*
X78318075Y-21403634D02*
X78318075Y-21036967D01*
X78318075Y-21036967D02*
X78370456Y-20827443D01*
X78370456Y-20827443D02*
X78475218Y-20722681D01*
X78475218Y-20722681D02*
X78579980Y-20670300D01*
X80046647Y-21770300D02*
X79522837Y-21770300D01*
X79522837Y-21770300D02*
X79522837Y-20670300D01*
X80413313Y-21194110D02*
X80779980Y-21194110D01*
X80937123Y-21770300D02*
X80413313Y-21770300D01*
X80413313Y-21770300D02*
X80413313Y-20670300D01*
X80413313Y-20670300D02*
X80937123Y-20670300D01*
X81408551Y-21770300D02*
X81408551Y-20670300D01*
X81408551Y-20670300D02*
X81670456Y-20670300D01*
X81670456Y-20670300D02*
X81827599Y-20722681D01*
X81827599Y-20722681D02*
X81932361Y-20827443D01*
X81932361Y-20827443D02*
X81984742Y-20932205D01*
X81984742Y-20932205D02*
X82037123Y-21141729D01*
X82037123Y-21141729D02*
X82037123Y-21298872D01*
X82037123Y-21298872D02*
X81984742Y-21508396D01*
X81984742Y-21508396D02*
X81932361Y-21613158D01*
X81932361Y-21613158D02*
X81827599Y-21717920D01*
X81827599Y-21717920D02*
X81670456Y-21770300D01*
X81670456Y-21770300D02*
X81408551Y-21770300D01*
X83294265Y-21717920D02*
X83451408Y-21770300D01*
X83451408Y-21770300D02*
X83713313Y-21770300D01*
X83713313Y-21770300D02*
X83818075Y-21717920D01*
X83818075Y-21717920D02*
X83870456Y-21665539D01*
X83870456Y-21665539D02*
X83922837Y-21560777D01*
X83922837Y-21560777D02*
X83922837Y-21456015D01*
X83922837Y-21456015D02*
X83870456Y-21351253D01*
X83870456Y-21351253D02*
X83818075Y-21298872D01*
X83818075Y-21298872D02*
X83713313Y-21246491D01*
X83713313Y-21246491D02*
X83503789Y-21194110D01*
X83503789Y-21194110D02*
X83399027Y-21141729D01*
X83399027Y-21141729D02*
X83346646Y-21089348D01*
X83346646Y-21089348D02*
X83294265Y-20984586D01*
X83294265Y-20984586D02*
X83294265Y-20879824D01*
X83294265Y-20879824D02*
X83346646Y-20775062D01*
X83346646Y-20775062D02*
X83399027Y-20722681D01*
X83399027Y-20722681D02*
X83503789Y-20670300D01*
X83503789Y-20670300D02*
X83765694Y-20670300D01*
X83765694Y-20670300D02*
X83922837Y-20722681D01*
X84394265Y-21770300D02*
X84394265Y-20670300D01*
X84394265Y-21194110D02*
X85022837Y-21194110D01*
X85022837Y-21770300D02*
X85022837Y-20670300D01*
X86122837Y-21770300D02*
X85494265Y-21770300D01*
X85808551Y-21770300D02*
X85808551Y-20670300D01*
X85808551Y-20670300D02*
X85703789Y-20827443D01*
X85703789Y-20827443D02*
X85599027Y-20932205D01*
X85599027Y-20932205D02*
X85494265Y-20984586D01*
X87170456Y-21770300D02*
X86541884Y-21770300D01*
X86856170Y-21770300D02*
X86856170Y-20670300D01*
X86856170Y-20670300D02*
X86751408Y-20827443D01*
X86751408Y-20827443D02*
X86646646Y-20932205D01*
X86646646Y-20932205D02*
X86541884Y-20984586D01*
X87851408Y-20670300D02*
X87956170Y-20670300D01*
X87956170Y-20670300D02*
X88060932Y-20722681D01*
X88060932Y-20722681D02*
X88113313Y-20775062D01*
X88113313Y-20775062D02*
X88165694Y-20879824D01*
X88165694Y-20879824D02*
X88218075Y-21089348D01*
X88218075Y-21089348D02*
X88218075Y-21351253D01*
X88218075Y-21351253D02*
X88165694Y-21560777D01*
X88165694Y-21560777D02*
X88113313Y-21665539D01*
X88113313Y-21665539D02*
X88060932Y-21717920D01*
X88060932Y-21717920D02*
X87956170Y-21770300D01*
X87956170Y-21770300D02*
X87851408Y-21770300D01*
X87851408Y-21770300D02*
X87746646Y-21717920D01*
X87746646Y-21717920D02*
X87694265Y-21665539D01*
X87694265Y-21665539D02*
X87641884Y-21560777D01*
X87641884Y-21560777D02*
X87589503Y-21351253D01*
X87589503Y-21351253D02*
X87589503Y-21089348D01*
X87589503Y-21089348D02*
X87641884Y-20879824D01*
X87641884Y-20879824D02*
X87694265Y-20775062D01*
X87694265Y-20775062D02*
X87746646Y-20722681D01*
X87746646Y-20722681D02*
X87851408Y-20670300D01*
X89160932Y-20670300D02*
X88951408Y-20670300D01*
X88951408Y-20670300D02*
X88846646Y-20722681D01*
X88846646Y-20722681D02*
X88794265Y-20775062D01*
X88794265Y-20775062D02*
X88689503Y-20932205D01*
X88689503Y-20932205D02*
X88637122Y-21141729D01*
X88637122Y-21141729D02*
X88637122Y-21560777D01*
X88637122Y-21560777D02*
X88689503Y-21665539D01*
X88689503Y-21665539D02*
X88741884Y-21717920D01*
X88741884Y-21717920D02*
X88846646Y-21770300D01*
X88846646Y-21770300D02*
X89056170Y-21770300D01*
X89056170Y-21770300D02*
X89160932Y-21717920D01*
X89160932Y-21717920D02*
X89213313Y-21665539D01*
X89213313Y-21665539D02*
X89265694Y-21560777D01*
X89265694Y-21560777D02*
X89265694Y-21298872D01*
X89265694Y-21298872D02*
X89213313Y-21194110D01*
X89213313Y-21194110D02*
X89160932Y-21141729D01*
X89160932Y-21141729D02*
X89056170Y-21089348D01*
X89056170Y-21089348D02*
X88846646Y-21089348D01*
X88846646Y-21089348D02*
X88741884Y-21141729D01*
X88741884Y-21141729D02*
X88689503Y-21194110D01*
X88689503Y-21194110D02*
X88637122Y-21298872D01*
X90575217Y-21770300D02*
X90575217Y-20670300D01*
X91046646Y-20775062D02*
X91099027Y-20722681D01*
X91099027Y-20722681D02*
X91203789Y-20670300D01*
X91203789Y-20670300D02*
X91465694Y-20670300D01*
X91465694Y-20670300D02*
X91570456Y-20722681D01*
X91570456Y-20722681D02*
X91622837Y-20775062D01*
X91622837Y-20775062D02*
X91675218Y-20879824D01*
X91675218Y-20879824D02*
X91675218Y-20984586D01*
X91675218Y-20984586D02*
X91622837Y-21141729D01*
X91622837Y-21141729D02*
X90994265Y-21770300D01*
X90994265Y-21770300D02*
X91675218Y-21770300D01*
X92775218Y-21665539D02*
X92722837Y-21717920D01*
X92722837Y-21717920D02*
X92565694Y-21770300D01*
X92565694Y-21770300D02*
X92460932Y-21770300D01*
X92460932Y-21770300D02*
X92303789Y-21717920D01*
X92303789Y-21717920D02*
X92199027Y-21613158D01*
X92199027Y-21613158D02*
X92146646Y-21508396D01*
X92146646Y-21508396D02*
X92094265Y-21298872D01*
X92094265Y-21298872D02*
X92094265Y-21141729D01*
X92094265Y-21141729D02*
X92146646Y-20932205D01*
X92146646Y-20932205D02*
X92199027Y-20827443D01*
X92199027Y-20827443D02*
X92303789Y-20722681D01*
X92303789Y-20722681D02*
X92460932Y-20670300D01*
X92460932Y-20670300D02*
X92565694Y-20670300D01*
X92565694Y-20670300D02*
X92722837Y-20722681D01*
X92722837Y-20722681D02*
X92775218Y-20775062D01*
D10*
X13908207Y-56454819D02*
X13574874Y-55978628D01*
X13336779Y-56454819D02*
X13336779Y-55454819D01*
X13336779Y-55454819D02*
X13717731Y-55454819D01*
X13717731Y-55454819D02*
X13812969Y-55502438D01*
X13812969Y-55502438D02*
X13860588Y-55550057D01*
X13860588Y-55550057D02*
X13908207Y-55645295D01*
X13908207Y-55645295D02*
X13908207Y-55788152D01*
X13908207Y-55788152D02*
X13860588Y-55883390D01*
X13860588Y-55883390D02*
X13812969Y-55931009D01*
X13812969Y-55931009D02*
X13717731Y-55978628D01*
X13717731Y-55978628D02*
X13336779Y-55978628D01*
X14860588Y-56454819D02*
X14289160Y-56454819D01*
X14574874Y-56454819D02*
X14574874Y-55454819D01*
X14574874Y-55454819D02*
X14479636Y-55597676D01*
X14479636Y-55597676D02*
X14384398Y-55692914D01*
X14384398Y-55692914D02*
X14289160Y-55740533D01*
X43100588Y-33662438D02*
X43005350Y-33614819D01*
X43005350Y-33614819D02*
X42862493Y-33614819D01*
X42862493Y-33614819D02*
X42719636Y-33662438D01*
X42719636Y-33662438D02*
X42624398Y-33757676D01*
X42624398Y-33757676D02*
X42576779Y-33852914D01*
X42576779Y-33852914D02*
X42529160Y-34043390D01*
X42529160Y-34043390D02*
X42529160Y-34186247D01*
X42529160Y-34186247D02*
X42576779Y-34376723D01*
X42576779Y-34376723D02*
X42624398Y-34471961D01*
X42624398Y-34471961D02*
X42719636Y-34567200D01*
X42719636Y-34567200D02*
X42862493Y-34614819D01*
X42862493Y-34614819D02*
X42957731Y-34614819D01*
X42957731Y-34614819D02*
X43100588Y-34567200D01*
X43100588Y-34567200D02*
X43148207Y-34519580D01*
X43148207Y-34519580D02*
X43148207Y-34186247D01*
X43148207Y-34186247D02*
X42957731Y-34186247D01*
X43576779Y-34614819D02*
X43576779Y-33614819D01*
X43576779Y-33614819D02*
X43957731Y-33614819D01*
X43957731Y-33614819D02*
X44052969Y-33662438D01*
X44052969Y-33662438D02*
X44100588Y-33710057D01*
X44100588Y-33710057D02*
X44148207Y-33805295D01*
X44148207Y-33805295D02*
X44148207Y-33948152D01*
X44148207Y-33948152D02*
X44100588Y-34043390D01*
X44100588Y-34043390D02*
X44052969Y-34091009D01*
X44052969Y-34091009D02*
X43957731Y-34138628D01*
X43957731Y-34138628D02*
X43576779Y-34138628D01*
X44576779Y-34614819D02*
X44576779Y-33614819D01*
X45243445Y-33614819D02*
X45433921Y-33614819D01*
X45433921Y-33614819D02*
X45529159Y-33662438D01*
X45529159Y-33662438D02*
X45624397Y-33757676D01*
X45624397Y-33757676D02*
X45672016Y-33948152D01*
X45672016Y-33948152D02*
X45672016Y-34281485D01*
X45672016Y-34281485D02*
X45624397Y-34471961D01*
X45624397Y-34471961D02*
X45529159Y-34567200D01*
X45529159Y-34567200D02*
X45433921Y-34614819D01*
X45433921Y-34614819D02*
X45243445Y-34614819D01*
X45243445Y-34614819D02*
X45148207Y-34567200D01*
X45148207Y-34567200D02*
X45052969Y-34471961D01*
X45052969Y-34471961D02*
X45005350Y-34281485D01*
X45005350Y-34281485D02*
X45005350Y-33948152D01*
X45005350Y-33948152D02*
X45052969Y-33757676D01*
X45052969Y-33757676D02*
X45148207Y-33662438D01*
X45148207Y-33662438D02*
X45243445Y-33614819D01*
X46529159Y-33948152D02*
X46529159Y-34614819D01*
X46291064Y-33567200D02*
X46052969Y-34281485D01*
X46052969Y-34281485D02*
X46672016Y-34281485D01*
X43100588Y-31122438D02*
X43005350Y-31074819D01*
X43005350Y-31074819D02*
X42862493Y-31074819D01*
X42862493Y-31074819D02*
X42719636Y-31122438D01*
X42719636Y-31122438D02*
X42624398Y-31217676D01*
X42624398Y-31217676D02*
X42576779Y-31312914D01*
X42576779Y-31312914D02*
X42529160Y-31503390D01*
X42529160Y-31503390D02*
X42529160Y-31646247D01*
X42529160Y-31646247D02*
X42576779Y-31836723D01*
X42576779Y-31836723D02*
X42624398Y-31931961D01*
X42624398Y-31931961D02*
X42719636Y-32027200D01*
X42719636Y-32027200D02*
X42862493Y-32074819D01*
X42862493Y-32074819D02*
X42957731Y-32074819D01*
X42957731Y-32074819D02*
X43100588Y-32027200D01*
X43100588Y-32027200D02*
X43148207Y-31979580D01*
X43148207Y-31979580D02*
X43148207Y-31646247D01*
X43148207Y-31646247D02*
X42957731Y-31646247D01*
X43576779Y-32074819D02*
X43576779Y-31074819D01*
X43576779Y-31074819D02*
X43957731Y-31074819D01*
X43957731Y-31074819D02*
X44052969Y-31122438D01*
X44052969Y-31122438D02*
X44100588Y-31170057D01*
X44100588Y-31170057D02*
X44148207Y-31265295D01*
X44148207Y-31265295D02*
X44148207Y-31408152D01*
X44148207Y-31408152D02*
X44100588Y-31503390D01*
X44100588Y-31503390D02*
X44052969Y-31551009D01*
X44052969Y-31551009D02*
X43957731Y-31598628D01*
X43957731Y-31598628D02*
X43576779Y-31598628D01*
X44576779Y-32074819D02*
X44576779Y-31074819D01*
X45243445Y-31074819D02*
X45433921Y-31074819D01*
X45433921Y-31074819D02*
X45529159Y-31122438D01*
X45529159Y-31122438D02*
X45624397Y-31217676D01*
X45624397Y-31217676D02*
X45672016Y-31408152D01*
X45672016Y-31408152D02*
X45672016Y-31741485D01*
X45672016Y-31741485D02*
X45624397Y-31931961D01*
X45624397Y-31931961D02*
X45529159Y-32027200D01*
X45529159Y-32027200D02*
X45433921Y-32074819D01*
X45433921Y-32074819D02*
X45243445Y-32074819D01*
X45243445Y-32074819D02*
X45148207Y-32027200D01*
X45148207Y-32027200D02*
X45052969Y-31931961D01*
X45052969Y-31931961D02*
X45005350Y-31741485D01*
X45005350Y-31741485D02*
X45005350Y-31408152D01*
X45005350Y-31408152D02*
X45052969Y-31217676D01*
X45052969Y-31217676D02*
X45148207Y-31122438D01*
X45148207Y-31122438D02*
X45243445Y-31074819D01*
X46576778Y-31074819D02*
X46100588Y-31074819D01*
X46100588Y-31074819D02*
X46052969Y-31551009D01*
X46052969Y-31551009D02*
X46100588Y-31503390D01*
X46100588Y-31503390D02*
X46195826Y-31455771D01*
X46195826Y-31455771D02*
X46433921Y-31455771D01*
X46433921Y-31455771D02*
X46529159Y-31503390D01*
X46529159Y-31503390D02*
X46576778Y-31551009D01*
X46576778Y-31551009D02*
X46624397Y-31646247D01*
X46624397Y-31646247D02*
X46624397Y-31884342D01*
X46624397Y-31884342D02*
X46576778Y-31979580D01*
X46576778Y-31979580D02*
X46529159Y-32027200D01*
X46529159Y-32027200D02*
X46433921Y-32074819D01*
X46433921Y-32074819D02*
X46195826Y-32074819D01*
X46195826Y-32074819D02*
X46100588Y-32027200D01*
X46100588Y-32027200D02*
X46052969Y-31979580D01*
X24908207Y-60454819D02*
X24574874Y-59978628D01*
X24336779Y-60454819D02*
X24336779Y-59454819D01*
X24336779Y-59454819D02*
X24717731Y-59454819D01*
X24717731Y-59454819D02*
X24812969Y-59502438D01*
X24812969Y-59502438D02*
X24860588Y-59550057D01*
X24860588Y-59550057D02*
X24908207Y-59645295D01*
X24908207Y-59645295D02*
X24908207Y-59788152D01*
X24908207Y-59788152D02*
X24860588Y-59883390D01*
X24860588Y-59883390D02*
X24812969Y-59931009D01*
X24812969Y-59931009D02*
X24717731Y-59978628D01*
X24717731Y-59978628D02*
X24336779Y-59978628D01*
X25289160Y-59550057D02*
X25336779Y-59502438D01*
X25336779Y-59502438D02*
X25432017Y-59454819D01*
X25432017Y-59454819D02*
X25670112Y-59454819D01*
X25670112Y-59454819D02*
X25765350Y-59502438D01*
X25765350Y-59502438D02*
X25812969Y-59550057D01*
X25812969Y-59550057D02*
X25860588Y-59645295D01*
X25860588Y-59645295D02*
X25860588Y-59740533D01*
X25860588Y-59740533D02*
X25812969Y-59883390D01*
X25812969Y-59883390D02*
X25241541Y-60454819D01*
X25241541Y-60454819D02*
X25860588Y-60454819D01*
X43100588Y-36202438D02*
X43005350Y-36154819D01*
X43005350Y-36154819D02*
X42862493Y-36154819D01*
X42862493Y-36154819D02*
X42719636Y-36202438D01*
X42719636Y-36202438D02*
X42624398Y-36297676D01*
X42624398Y-36297676D02*
X42576779Y-36392914D01*
X42576779Y-36392914D02*
X42529160Y-36583390D01*
X42529160Y-36583390D02*
X42529160Y-36726247D01*
X42529160Y-36726247D02*
X42576779Y-36916723D01*
X42576779Y-36916723D02*
X42624398Y-37011961D01*
X42624398Y-37011961D02*
X42719636Y-37107200D01*
X42719636Y-37107200D02*
X42862493Y-37154819D01*
X42862493Y-37154819D02*
X42957731Y-37154819D01*
X42957731Y-37154819D02*
X43100588Y-37107200D01*
X43100588Y-37107200D02*
X43148207Y-37059580D01*
X43148207Y-37059580D02*
X43148207Y-36726247D01*
X43148207Y-36726247D02*
X42957731Y-36726247D01*
X43576779Y-37154819D02*
X43576779Y-36154819D01*
X43576779Y-36154819D02*
X43957731Y-36154819D01*
X43957731Y-36154819D02*
X44052969Y-36202438D01*
X44052969Y-36202438D02*
X44100588Y-36250057D01*
X44100588Y-36250057D02*
X44148207Y-36345295D01*
X44148207Y-36345295D02*
X44148207Y-36488152D01*
X44148207Y-36488152D02*
X44100588Y-36583390D01*
X44100588Y-36583390D02*
X44052969Y-36631009D01*
X44052969Y-36631009D02*
X43957731Y-36678628D01*
X43957731Y-36678628D02*
X43576779Y-36678628D01*
X44576779Y-37154819D02*
X44576779Y-36154819D01*
X45243445Y-36154819D02*
X45433921Y-36154819D01*
X45433921Y-36154819D02*
X45529159Y-36202438D01*
X45529159Y-36202438D02*
X45624397Y-36297676D01*
X45624397Y-36297676D02*
X45672016Y-36488152D01*
X45672016Y-36488152D02*
X45672016Y-36821485D01*
X45672016Y-36821485D02*
X45624397Y-37011961D01*
X45624397Y-37011961D02*
X45529159Y-37107200D01*
X45529159Y-37107200D02*
X45433921Y-37154819D01*
X45433921Y-37154819D02*
X45243445Y-37154819D01*
X45243445Y-37154819D02*
X45148207Y-37107200D01*
X45148207Y-37107200D02*
X45052969Y-37011961D01*
X45052969Y-37011961D02*
X45005350Y-36821485D01*
X45005350Y-36821485D02*
X45005350Y-36488152D01*
X45005350Y-36488152D02*
X45052969Y-36297676D01*
X45052969Y-36297676D02*
X45148207Y-36202438D01*
X45148207Y-36202438D02*
X45243445Y-36154819D01*
X46005350Y-36154819D02*
X46624397Y-36154819D01*
X46624397Y-36154819D02*
X46291064Y-36535771D01*
X46291064Y-36535771D02*
X46433921Y-36535771D01*
X46433921Y-36535771D02*
X46529159Y-36583390D01*
X46529159Y-36583390D02*
X46576778Y-36631009D01*
X46576778Y-36631009D02*
X46624397Y-36726247D01*
X46624397Y-36726247D02*
X46624397Y-36964342D01*
X46624397Y-36964342D02*
X46576778Y-37059580D01*
X46576778Y-37059580D02*
X46529159Y-37107200D01*
X46529159Y-37107200D02*
X46433921Y-37154819D01*
X46433921Y-37154819D02*
X46148207Y-37154819D01*
X46148207Y-37154819D02*
X46052969Y-37107200D01*
X46052969Y-37107200D02*
X46005350Y-37059580D01*
X12312969Y-23454819D02*
X11836779Y-23454819D01*
X11836779Y-23454819D02*
X11789160Y-23931009D01*
X11789160Y-23931009D02*
X11836779Y-23883390D01*
X11836779Y-23883390D02*
X11932017Y-23835771D01*
X11932017Y-23835771D02*
X12170112Y-23835771D01*
X12170112Y-23835771D02*
X12265350Y-23883390D01*
X12265350Y-23883390D02*
X12312969Y-23931009D01*
X12312969Y-23931009D02*
X12360588Y-24026247D01*
X12360588Y-24026247D02*
X12360588Y-24264342D01*
X12360588Y-24264342D02*
X12312969Y-24359580D01*
X12312969Y-24359580D02*
X12265350Y-24407200D01*
X12265350Y-24407200D02*
X12170112Y-24454819D01*
X12170112Y-24454819D02*
X11932017Y-24454819D01*
X11932017Y-24454819D02*
X11836779Y-24407200D01*
X11836779Y-24407200D02*
X11789160Y-24359580D01*
X12646303Y-23454819D02*
X12979636Y-24454819D01*
X12979636Y-24454819D02*
X13312969Y-23454819D01*
X12360588Y-36202438D02*
X12265350Y-36154819D01*
X12265350Y-36154819D02*
X12122493Y-36154819D01*
X12122493Y-36154819D02*
X11979636Y-36202438D01*
X11979636Y-36202438D02*
X11884398Y-36297676D01*
X11884398Y-36297676D02*
X11836779Y-36392914D01*
X11836779Y-36392914D02*
X11789160Y-36583390D01*
X11789160Y-36583390D02*
X11789160Y-36726247D01*
X11789160Y-36726247D02*
X11836779Y-36916723D01*
X11836779Y-36916723D02*
X11884398Y-37011961D01*
X11884398Y-37011961D02*
X11979636Y-37107200D01*
X11979636Y-37107200D02*
X12122493Y-37154819D01*
X12122493Y-37154819D02*
X12217731Y-37154819D01*
X12217731Y-37154819D02*
X12360588Y-37107200D01*
X12360588Y-37107200D02*
X12408207Y-37059580D01*
X12408207Y-37059580D02*
X12408207Y-36726247D01*
X12408207Y-36726247D02*
X12217731Y-36726247D01*
X12836779Y-37154819D02*
X12836779Y-36154819D01*
X12836779Y-36154819D02*
X13217731Y-36154819D01*
X13217731Y-36154819D02*
X13312969Y-36202438D01*
X13312969Y-36202438D02*
X13360588Y-36250057D01*
X13360588Y-36250057D02*
X13408207Y-36345295D01*
X13408207Y-36345295D02*
X13408207Y-36488152D01*
X13408207Y-36488152D02*
X13360588Y-36583390D01*
X13360588Y-36583390D02*
X13312969Y-36631009D01*
X13312969Y-36631009D02*
X13217731Y-36678628D01*
X13217731Y-36678628D02*
X12836779Y-36678628D01*
X13836779Y-37154819D02*
X13836779Y-36154819D01*
X14503445Y-36154819D02*
X14693921Y-36154819D01*
X14693921Y-36154819D02*
X14789159Y-36202438D01*
X14789159Y-36202438D02*
X14884397Y-36297676D01*
X14884397Y-36297676D02*
X14932016Y-36488152D01*
X14932016Y-36488152D02*
X14932016Y-36821485D01*
X14932016Y-36821485D02*
X14884397Y-37011961D01*
X14884397Y-37011961D02*
X14789159Y-37107200D01*
X14789159Y-37107200D02*
X14693921Y-37154819D01*
X14693921Y-37154819D02*
X14503445Y-37154819D01*
X14503445Y-37154819D02*
X14408207Y-37107200D01*
X14408207Y-37107200D02*
X14312969Y-37011961D01*
X14312969Y-37011961D02*
X14265350Y-36821485D01*
X14265350Y-36821485D02*
X14265350Y-36488152D01*
X14265350Y-36488152D02*
X14312969Y-36297676D01*
X14312969Y-36297676D02*
X14408207Y-36202438D01*
X14408207Y-36202438D02*
X14503445Y-36154819D01*
X15884397Y-37154819D02*
X15312969Y-37154819D01*
X15598683Y-37154819D02*
X15598683Y-36154819D01*
X15598683Y-36154819D02*
X15503445Y-36297676D01*
X15503445Y-36297676D02*
X15408207Y-36392914D01*
X15408207Y-36392914D02*
X15312969Y-36440533D01*
X16836778Y-37154819D02*
X16265350Y-37154819D01*
X16551064Y-37154819D02*
X16551064Y-36154819D01*
X16551064Y-36154819D02*
X16455826Y-36297676D01*
X16455826Y-36297676D02*
X16360588Y-36392914D01*
X16360588Y-36392914D02*
X16265350Y-36440533D01*
X14452380Y-41124819D02*
X14452380Y-41839104D01*
X14452380Y-41839104D02*
X14404761Y-41981961D01*
X14404761Y-41981961D02*
X14309523Y-42077200D01*
X14309523Y-42077200D02*
X14166666Y-42124819D01*
X14166666Y-42124819D02*
X14071428Y-42124819D01*
X14690476Y-42220057D02*
X15452380Y-42220057D01*
X16023809Y-41601009D02*
X16166666Y-41648628D01*
X16166666Y-41648628D02*
X16214285Y-41696247D01*
X16214285Y-41696247D02*
X16261904Y-41791485D01*
X16261904Y-41791485D02*
X16261904Y-41934342D01*
X16261904Y-41934342D02*
X16214285Y-42029580D01*
X16214285Y-42029580D02*
X16166666Y-42077200D01*
X16166666Y-42077200D02*
X16071428Y-42124819D01*
X16071428Y-42124819D02*
X15690476Y-42124819D01*
X15690476Y-42124819D02*
X15690476Y-41124819D01*
X15690476Y-41124819D02*
X16023809Y-41124819D01*
X16023809Y-41124819D02*
X16119047Y-41172438D01*
X16119047Y-41172438D02*
X16166666Y-41220057D01*
X16166666Y-41220057D02*
X16214285Y-41315295D01*
X16214285Y-41315295D02*
X16214285Y-41410533D01*
X16214285Y-41410533D02*
X16166666Y-41505771D01*
X16166666Y-41505771D02*
X16119047Y-41553390D01*
X16119047Y-41553390D02*
X16023809Y-41601009D01*
X16023809Y-41601009D02*
X15690476Y-41601009D01*
X16642857Y-41839104D02*
X17119047Y-41839104D01*
X16547619Y-42124819D02*
X16880952Y-41124819D01*
X16880952Y-41124819D02*
X17214285Y-42124819D01*
X17404762Y-41124819D02*
X17976190Y-41124819D01*
X17690476Y-42124819D02*
X17690476Y-41124819D01*
X21357142Y-21124819D02*
X21357142Y-21839104D01*
X21357142Y-21839104D02*
X21309523Y-21981961D01*
X21309523Y-21981961D02*
X21214285Y-22077200D01*
X21214285Y-22077200D02*
X21071428Y-22124819D01*
X21071428Y-22124819D02*
X20976190Y-22124819D01*
X21595238Y-22220057D02*
X22357142Y-22220057D01*
X22595238Y-22124819D02*
X22595238Y-21124819D01*
X22595238Y-21124819D02*
X22928571Y-21839104D01*
X22928571Y-21839104D02*
X23261904Y-21124819D01*
X23261904Y-21124819D02*
X23261904Y-22124819D01*
X24309523Y-22029580D02*
X24261904Y-22077200D01*
X24261904Y-22077200D02*
X24119047Y-22124819D01*
X24119047Y-22124819D02*
X24023809Y-22124819D01*
X24023809Y-22124819D02*
X23880952Y-22077200D01*
X23880952Y-22077200D02*
X23785714Y-21981961D01*
X23785714Y-21981961D02*
X23738095Y-21886723D01*
X23738095Y-21886723D02*
X23690476Y-21696247D01*
X23690476Y-21696247D02*
X23690476Y-21553390D01*
X23690476Y-21553390D02*
X23738095Y-21362914D01*
X23738095Y-21362914D02*
X23785714Y-21267676D01*
X23785714Y-21267676D02*
X23880952Y-21172438D01*
X23880952Y-21172438D02*
X24023809Y-21124819D01*
X24023809Y-21124819D02*
X24119047Y-21124819D01*
X24119047Y-21124819D02*
X24261904Y-21172438D01*
X24261904Y-21172438D02*
X24309523Y-21220057D01*
X24738095Y-21124819D02*
X24738095Y-21934342D01*
X24738095Y-21934342D02*
X24785714Y-22029580D01*
X24785714Y-22029580D02*
X24833333Y-22077200D01*
X24833333Y-22077200D02*
X24928571Y-22124819D01*
X24928571Y-22124819D02*
X25119047Y-22124819D01*
X25119047Y-22124819D02*
X25214285Y-22077200D01*
X25214285Y-22077200D02*
X25261904Y-22029580D01*
X25261904Y-22029580D02*
X25309523Y-21934342D01*
X25309523Y-21934342D02*
X25309523Y-21124819D01*
X25547619Y-22220057D02*
X26309523Y-22220057D01*
X26500000Y-21839104D02*
X26976190Y-21839104D01*
X26404762Y-22124819D02*
X26738095Y-21124819D01*
X26738095Y-21124819D02*
X27071428Y-22124819D01*
X20084819Y-59086666D02*
X19608628Y-59419999D01*
X20084819Y-59658094D02*
X19084819Y-59658094D01*
X19084819Y-59658094D02*
X19084819Y-59277142D01*
X19084819Y-59277142D02*
X19132438Y-59181904D01*
X19132438Y-59181904D02*
X19180057Y-59134285D01*
X19180057Y-59134285D02*
X19275295Y-59086666D01*
X19275295Y-59086666D02*
X19418152Y-59086666D01*
X19418152Y-59086666D02*
X19513390Y-59134285D01*
X19513390Y-59134285D02*
X19561009Y-59181904D01*
X19561009Y-59181904D02*
X19608628Y-59277142D01*
X19608628Y-59277142D02*
X19608628Y-59658094D01*
X19180057Y-58705713D02*
X19132438Y-58658094D01*
X19132438Y-58658094D02*
X19084819Y-58562856D01*
X19084819Y-58562856D02*
X19084819Y-58324761D01*
X19084819Y-58324761D02*
X19132438Y-58229523D01*
X19132438Y-58229523D02*
X19180057Y-58181904D01*
X19180057Y-58181904D02*
X19275295Y-58134285D01*
X19275295Y-58134285D02*
X19370533Y-58134285D01*
X19370533Y-58134285D02*
X19513390Y-58181904D01*
X19513390Y-58181904D02*
X20084819Y-58753332D01*
X20084819Y-58753332D02*
X20084819Y-58134285D01*
X15084819Y-55086666D02*
X14608628Y-55419999D01*
X15084819Y-55658094D02*
X14084819Y-55658094D01*
X14084819Y-55658094D02*
X14084819Y-55277142D01*
X14084819Y-55277142D02*
X14132438Y-55181904D01*
X14132438Y-55181904D02*
X14180057Y-55134285D01*
X14180057Y-55134285D02*
X14275295Y-55086666D01*
X14275295Y-55086666D02*
X14418152Y-55086666D01*
X14418152Y-55086666D02*
X14513390Y-55134285D01*
X14513390Y-55134285D02*
X14561009Y-55181904D01*
X14561009Y-55181904D02*
X14608628Y-55277142D01*
X14608628Y-55277142D02*
X14608628Y-55658094D01*
X15084819Y-54134285D02*
X15084819Y-54705713D01*
X15084819Y-54419999D02*
X14084819Y-54419999D01*
X14084819Y-54419999D02*
X14227676Y-54515237D01*
X14227676Y-54515237D02*
X14322914Y-54610475D01*
X14322914Y-54610475D02*
X14370533Y-54705713D01*
X77880952Y-22394819D02*
X77880952Y-23109104D01*
X77880952Y-23109104D02*
X77833333Y-23251961D01*
X77833333Y-23251961D02*
X77738095Y-23347200D01*
X77738095Y-23347200D02*
X77595238Y-23394819D01*
X77595238Y-23394819D02*
X77500000Y-23394819D01*
X78119048Y-23490057D02*
X78880952Y-23490057D01*
X79309524Y-22394819D02*
X79500000Y-22394819D01*
X79500000Y-22394819D02*
X79595238Y-22442438D01*
X79595238Y-22442438D02*
X79690476Y-22537676D01*
X79690476Y-22537676D02*
X79738095Y-22728152D01*
X79738095Y-22728152D02*
X79738095Y-23061485D01*
X79738095Y-23061485D02*
X79690476Y-23251961D01*
X79690476Y-23251961D02*
X79595238Y-23347200D01*
X79595238Y-23347200D02*
X79500000Y-23394819D01*
X79500000Y-23394819D02*
X79309524Y-23394819D01*
X79309524Y-23394819D02*
X79214286Y-23347200D01*
X79214286Y-23347200D02*
X79119048Y-23251961D01*
X79119048Y-23251961D02*
X79071429Y-23061485D01*
X79071429Y-23061485D02*
X79071429Y-22728152D01*
X79071429Y-22728152D02*
X79119048Y-22537676D01*
X79119048Y-22537676D02*
X79214286Y-22442438D01*
X79214286Y-22442438D02*
X79309524Y-22394819D01*
X80642857Y-23394819D02*
X80166667Y-23394819D01*
X80166667Y-23394819D02*
X80166667Y-22394819D01*
X80976191Y-22871009D02*
X81309524Y-22871009D01*
X81452381Y-23394819D02*
X80976191Y-23394819D01*
X80976191Y-23394819D02*
X80976191Y-22394819D01*
X80976191Y-22394819D02*
X81452381Y-22394819D01*
X81880953Y-23394819D02*
X81880953Y-22394819D01*
X81880953Y-22394819D02*
X82119048Y-22394819D01*
X82119048Y-22394819D02*
X82261905Y-22442438D01*
X82261905Y-22442438D02*
X82357143Y-22537676D01*
X82357143Y-22537676D02*
X82404762Y-22632914D01*
X82404762Y-22632914D02*
X82452381Y-22823390D01*
X82452381Y-22823390D02*
X82452381Y-22966247D01*
X82452381Y-22966247D02*
X82404762Y-23156723D01*
X82404762Y-23156723D02*
X82357143Y-23251961D01*
X82357143Y-23251961D02*
X82261905Y-23347200D01*
X82261905Y-23347200D02*
X82119048Y-23394819D01*
X82119048Y-23394819D02*
X81880953Y-23394819D01*
X72731009Y-42080952D02*
X72778628Y-41938095D01*
X72778628Y-41938095D02*
X72826247Y-41890476D01*
X72826247Y-41890476D02*
X72921485Y-41842857D01*
X72921485Y-41842857D02*
X73064342Y-41842857D01*
X73064342Y-41842857D02*
X73159580Y-41890476D01*
X73159580Y-41890476D02*
X73207200Y-41938095D01*
X73207200Y-41938095D02*
X73254819Y-42033333D01*
X73254819Y-42033333D02*
X73254819Y-42414285D01*
X73254819Y-42414285D02*
X72254819Y-42414285D01*
X72254819Y-42414285D02*
X72254819Y-42080952D01*
X72254819Y-42080952D02*
X72302438Y-41985714D01*
X72302438Y-41985714D02*
X72350057Y-41938095D01*
X72350057Y-41938095D02*
X72445295Y-41890476D01*
X72445295Y-41890476D02*
X72540533Y-41890476D01*
X72540533Y-41890476D02*
X72635771Y-41938095D01*
X72635771Y-41938095D02*
X72683390Y-41985714D01*
X72683390Y-41985714D02*
X72731009Y-42080952D01*
X72731009Y-42080952D02*
X72731009Y-42414285D01*
X72254819Y-41509523D02*
X72254819Y-40842857D01*
X72254819Y-40842857D02*
X73254819Y-41509523D01*
X73254819Y-41509523D02*
X73254819Y-40842857D01*
X73254819Y-39938095D02*
X73254819Y-40509523D01*
X73254819Y-40223809D02*
X72254819Y-40223809D01*
X72254819Y-40223809D02*
X72397676Y-40319047D01*
X72397676Y-40319047D02*
X72492914Y-40414285D01*
X72492914Y-40414285D02*
X72540533Y-40509523D01*
X77533866Y-45390951D02*
X77533866Y-44629047D01*
X77914819Y-45009999D02*
X77152914Y-45009999D01*
X75916667Y-52407200D02*
X76059524Y-52454819D01*
X76059524Y-52454819D02*
X76297619Y-52454819D01*
X76297619Y-52454819D02*
X76392857Y-52407200D01*
X76392857Y-52407200D02*
X76440476Y-52359580D01*
X76440476Y-52359580D02*
X76488095Y-52264342D01*
X76488095Y-52264342D02*
X76488095Y-52169104D01*
X76488095Y-52169104D02*
X76440476Y-52073866D01*
X76440476Y-52073866D02*
X76392857Y-52026247D01*
X76392857Y-52026247D02*
X76297619Y-51978628D01*
X76297619Y-51978628D02*
X76107143Y-51931009D01*
X76107143Y-51931009D02*
X76011905Y-51883390D01*
X76011905Y-51883390D02*
X75964286Y-51835771D01*
X75964286Y-51835771D02*
X75916667Y-51740533D01*
X75916667Y-51740533D02*
X75916667Y-51645295D01*
X75916667Y-51645295D02*
X75964286Y-51550057D01*
X75964286Y-51550057D02*
X76011905Y-51502438D01*
X76011905Y-51502438D02*
X76107143Y-51454819D01*
X76107143Y-51454819D02*
X76345238Y-51454819D01*
X76345238Y-51454819D02*
X76488095Y-51502438D01*
X76821429Y-51454819D02*
X77059524Y-52454819D01*
X77059524Y-52454819D02*
X77250000Y-51740533D01*
X77250000Y-51740533D02*
X77440476Y-52454819D01*
X77440476Y-52454819D02*
X77678572Y-51454819D01*
X78583333Y-52454819D02*
X78011905Y-52454819D01*
X78297619Y-52454819D02*
X78297619Y-51454819D01*
X78297619Y-51454819D02*
X78202381Y-51597676D01*
X78202381Y-51597676D02*
X78107143Y-51692914D01*
X78107143Y-51692914D02*
X78011905Y-51740533D01*
X36525714Y-21124819D02*
X36525714Y-21839104D01*
X36525714Y-21839104D02*
X36478095Y-21981961D01*
X36478095Y-21981961D02*
X36382857Y-22077200D01*
X36382857Y-22077200D02*
X36240000Y-22124819D01*
X36240000Y-22124819D02*
X36144762Y-22124819D01*
X36763810Y-22220057D02*
X37525714Y-22220057D01*
X37763810Y-22124819D02*
X37763810Y-21124819D01*
X37763810Y-21124819D02*
X38097143Y-21839104D01*
X38097143Y-21839104D02*
X38430476Y-21124819D01*
X38430476Y-21124819D02*
X38430476Y-22124819D01*
X39478095Y-22029580D02*
X39430476Y-22077200D01*
X39430476Y-22077200D02*
X39287619Y-22124819D01*
X39287619Y-22124819D02*
X39192381Y-22124819D01*
X39192381Y-22124819D02*
X39049524Y-22077200D01*
X39049524Y-22077200D02*
X38954286Y-21981961D01*
X38954286Y-21981961D02*
X38906667Y-21886723D01*
X38906667Y-21886723D02*
X38859048Y-21696247D01*
X38859048Y-21696247D02*
X38859048Y-21553390D01*
X38859048Y-21553390D02*
X38906667Y-21362914D01*
X38906667Y-21362914D02*
X38954286Y-21267676D01*
X38954286Y-21267676D02*
X39049524Y-21172438D01*
X39049524Y-21172438D02*
X39192381Y-21124819D01*
X39192381Y-21124819D02*
X39287619Y-21124819D01*
X39287619Y-21124819D02*
X39430476Y-21172438D01*
X39430476Y-21172438D02*
X39478095Y-21220057D01*
X39906667Y-21124819D02*
X39906667Y-21934342D01*
X39906667Y-21934342D02*
X39954286Y-22029580D01*
X39954286Y-22029580D02*
X40001905Y-22077200D01*
X40001905Y-22077200D02*
X40097143Y-22124819D01*
X40097143Y-22124819D02*
X40287619Y-22124819D01*
X40287619Y-22124819D02*
X40382857Y-22077200D01*
X40382857Y-22077200D02*
X40430476Y-22029580D01*
X40430476Y-22029580D02*
X40478095Y-21934342D01*
X40478095Y-21934342D02*
X40478095Y-21124819D01*
X40716191Y-22220057D02*
X41478095Y-22220057D01*
X42049524Y-21601009D02*
X42192381Y-21648628D01*
X42192381Y-21648628D02*
X42240000Y-21696247D01*
X42240000Y-21696247D02*
X42287619Y-21791485D01*
X42287619Y-21791485D02*
X42287619Y-21934342D01*
X42287619Y-21934342D02*
X42240000Y-22029580D01*
X42240000Y-22029580D02*
X42192381Y-22077200D01*
X42192381Y-22077200D02*
X42097143Y-22124819D01*
X42097143Y-22124819D02*
X41716191Y-22124819D01*
X41716191Y-22124819D02*
X41716191Y-21124819D01*
X41716191Y-21124819D02*
X42049524Y-21124819D01*
X42049524Y-21124819D02*
X42144762Y-21172438D01*
X42144762Y-21172438D02*
X42192381Y-21220057D01*
X42192381Y-21220057D02*
X42240000Y-21315295D01*
X42240000Y-21315295D02*
X42240000Y-21410533D01*
X42240000Y-21410533D02*
X42192381Y-21505771D01*
X42192381Y-21505771D02*
X42144762Y-21553390D01*
X42144762Y-21553390D02*
X42049524Y-21601009D01*
X42049524Y-21601009D02*
X41716191Y-21601009D01*
X75916667Y-63407200D02*
X76059524Y-63454819D01*
X76059524Y-63454819D02*
X76297619Y-63454819D01*
X76297619Y-63454819D02*
X76392857Y-63407200D01*
X76392857Y-63407200D02*
X76440476Y-63359580D01*
X76440476Y-63359580D02*
X76488095Y-63264342D01*
X76488095Y-63264342D02*
X76488095Y-63169104D01*
X76488095Y-63169104D02*
X76440476Y-63073866D01*
X76440476Y-63073866D02*
X76392857Y-63026247D01*
X76392857Y-63026247D02*
X76297619Y-62978628D01*
X76297619Y-62978628D02*
X76107143Y-62931009D01*
X76107143Y-62931009D02*
X76011905Y-62883390D01*
X76011905Y-62883390D02*
X75964286Y-62835771D01*
X75964286Y-62835771D02*
X75916667Y-62740533D01*
X75916667Y-62740533D02*
X75916667Y-62645295D01*
X75916667Y-62645295D02*
X75964286Y-62550057D01*
X75964286Y-62550057D02*
X76011905Y-62502438D01*
X76011905Y-62502438D02*
X76107143Y-62454819D01*
X76107143Y-62454819D02*
X76345238Y-62454819D01*
X76345238Y-62454819D02*
X76488095Y-62502438D01*
X76821429Y-62454819D02*
X77059524Y-63454819D01*
X77059524Y-63454819D02*
X77250000Y-62740533D01*
X77250000Y-62740533D02*
X77440476Y-63454819D01*
X77440476Y-63454819D02*
X77678572Y-62454819D01*
X78011905Y-62550057D02*
X78059524Y-62502438D01*
X78059524Y-62502438D02*
X78154762Y-62454819D01*
X78154762Y-62454819D02*
X78392857Y-62454819D01*
X78392857Y-62454819D02*
X78488095Y-62502438D01*
X78488095Y-62502438D02*
X78535714Y-62550057D01*
X78535714Y-62550057D02*
X78583333Y-62645295D01*
X78583333Y-62645295D02*
X78583333Y-62740533D01*
X78583333Y-62740533D02*
X78535714Y-62883390D01*
X78535714Y-62883390D02*
X77964286Y-63454819D01*
X77964286Y-63454819D02*
X78583333Y-63454819D01*
D15*
%TO.C,J_BAT*%
X14670000Y-42670000D02*
X16000000Y-42670000D01*
X14670000Y-44000000D02*
X14670000Y-42670000D01*
X14670000Y-45270000D02*
X14670000Y-47870000D01*
X14670000Y-45270000D02*
X17330000Y-45270000D01*
X14670000Y-47870000D02*
X17330000Y-47870000D01*
X17330000Y-45270000D02*
X17330000Y-47870000D01*
%TO.C,J_MCU_A*%
X22670000Y-22670000D02*
X24000000Y-22670000D01*
X22670000Y-24000000D02*
X22670000Y-22670000D01*
X22670000Y-25270000D02*
X22670000Y-43110000D01*
X22670000Y-25270000D02*
X25330000Y-25270000D01*
X22670000Y-43110000D02*
X25330000Y-43110000D01*
X25330000Y-25270000D02*
X25330000Y-43110000D01*
%TO.C,R2*%
X22000000Y-62960000D02*
X22000000Y-62190000D01*
X20630000Y-62190000D02*
X23370000Y-62190000D01*
X23370000Y-62190000D02*
X23370000Y-55650000D01*
X20630000Y-55650000D02*
X20630000Y-62190000D01*
X23370000Y-55650000D02*
X20630000Y-55650000D01*
X22000000Y-54880000D02*
X22000000Y-55650000D01*
%TO.C,R1*%
X17000000Y-58960000D02*
X17000000Y-58190000D01*
X15630000Y-58190000D02*
X18370000Y-58190000D01*
X18370000Y-58190000D02*
X18370000Y-51650000D01*
X15630000Y-51650000D02*
X15630000Y-58190000D01*
X18370000Y-51650000D02*
X15630000Y-51650000D01*
X17000000Y-50880000D02*
X17000000Y-51650000D01*
%TO.C,J_OLED*%
X78670000Y-23940000D02*
X80000000Y-23940000D01*
X78670000Y-25270000D02*
X78670000Y-23940000D01*
X78670000Y-26540000D02*
X78670000Y-34220000D01*
X78670000Y-26540000D02*
X81330000Y-26540000D01*
X78670000Y-34220000D02*
X81330000Y-34220000D01*
X81330000Y-26540000D02*
X81330000Y-34220000D01*
%TO.C,BZ1*%
X86100000Y-41200000D02*
G75*
G03*
X73900000Y-41200000I-6100000J0D01*
G01*
X73900000Y-41200000D02*
G75*
G03*
X86100000Y-41200000I6100000J0D01*
G01*
%TO.C,SW1*%
X73750000Y-55500000D02*
X73750000Y-57000000D01*
X75000000Y-59500000D02*
X79500000Y-59500000D01*
X79500000Y-53000000D02*
X75000000Y-53000000D01*
X80750000Y-57000000D02*
X80750000Y-55500000D01*
%TO.C,J_MCU_B*%
X37910000Y-22670000D02*
X39240000Y-22670000D01*
X37910000Y-24000000D02*
X37910000Y-22670000D01*
X37910000Y-25270000D02*
X37910000Y-43110000D01*
X37910000Y-25270000D02*
X40570000Y-25270000D01*
X37910000Y-43110000D02*
X40570000Y-43110000D01*
X40570000Y-25270000D02*
X40570000Y-43110000D01*
%TO.C,SW2*%
X73750000Y-66500000D02*
X73750000Y-68000000D01*
X75000000Y-70500000D02*
X79500000Y-70500000D01*
X79500000Y-64000000D02*
X75000000Y-64000000D01*
X80750000Y-68000000D02*
X80750000Y-66500000D01*
%TD*%
M02*
