M48
; DRILL file {KiCad 7.0.11+dfsg-1build4} date Mon Sep 21 08:58:12 2026
; FORMAT={-:-/ absolute / metric / decimal}
; #@! TF.CreationDate,2026-09-21T08:58:12+00:00
; #@! TF.GenerationSoftware,Kicad,Pcbnew,7.0.11+dfsg-1build4
; #@! TF.FileFunction,MixedPlating,1,2
FMAT,2
METRIC
; #@! TA.AperFunction,Plated,PTH,ViaDrill
T1C0.400
; #@! TA.AperFunction,Plated,PTH,ComponentDrill
T2C0.800
; #@! TA.AperFunction,Plated,PTH,ComponentDrill
T3C1.000
; #@! TA.AperFunction,Plated,PTH,ComponentDrill
T4C1.100
; #@! TA.AperFunction,NonPlated,NPTH,ComponentDrill
T5C3.200
%
G90
G05
T1
X5.0Y-8.0
X5.0Y-41.78
X6.0Y-44.0
X6.0Y-60.0
X7.0Y-49.84
X7.0Y-64.0
X8.0Y-9.0
X8.0Y-64.0
X9.0Y-10.0
X9.0Y-29.08
X10.0Y-46.54
X10.0Y-53.84
X11.0Y-26.54
X11.0Y-46.54
X12.0Y-11.0
X12.0Y-26.54
X44.0Y-24.0
X44.0Y-32.89
X45.6Y-8.0
X45.6Y-30.35
X47.2Y-26.54
X47.2Y-45.0
X48.8Y-34.16
X48.8Y-54.0
X50.4Y-31.62
X50.4Y-65.0
X52.0Y-9.0
X52.0Y-41.78
X53.6Y-10.0
X53.6Y-27.81
X55.2Y-11.0
X55.2Y-25.27
X56.8Y-25.27
X56.8Y-37.4
X58.4Y-37.4
X58.4Y-58.5
X60.0Y-58.5
X60.0Y-69.5
T2
X17.0Y-49.84
X17.0Y-60.0
X22.0Y-53.84
X22.0Y-64.0
T3
X16.0Y-44.0
X16.0Y-46.54
X24.0Y-24.0
X24.0Y-26.54
X24.0Y-29.08
X24.0Y-31.62
X24.0Y-34.16
X24.0Y-36.7
X24.0Y-39.24
X24.0Y-41.78
X39.24Y-24.0
X39.24Y-26.54
X39.24Y-29.08
X39.24Y-31.62
X39.24Y-34.16
X39.24Y-36.7
X39.24Y-39.24
X39.24Y-41.78
X80.0Y-25.27
X80.0Y-27.81
X80.0Y-30.35
X80.0Y-32.89
X80.0Y-37.4
X80.0Y-45.0
T4
X74.0Y-54.0
X74.0Y-58.5
X74.0Y-65.0
X74.0Y-69.5
X80.5Y-54.0
X80.5Y-58.5
X80.5Y-65.0
X80.5Y-69.5
T5
X4.0Y-4.0
X4.0Y-82.0
X96.0Y-4.0
X96.0Y-82.0
M30
